<svg xmlns="http://www.w3.org/2000/svg" xmlns:xlink="http://www.w3.org/1999/xlink" xmlns:inkscape="http://www.inkscape.org/namespaces/inkscape" version="1.1" width="594.95999" height="841.92" viewBox="0 0 594.95999 841.92">
<defs>
<clipPath id="clip_174">
<path transform="matrix(.24,0,0,.24,0,0)" d="M118.75 118.75H2362.7442V3390.7716H118.75Z" clip-rule="evenodd"/>
</clipPath>
<clipPath id="clip_175">
<path transform="matrix(.24,0,0,.24,0,0)" d="M309.11598 619.2283H342.89057V858.72097H309.11598Z" clip-rule="evenodd"/>
</clipPath>
<clipPath id="clip_176">
<path transform="matrix(.24,0,0,.24,0,0)" d="M349.03144 628.4397H499.48197V843.3689H349.03144Z" clip-rule="evenodd"/>
</clipPath>
<clipPath id="clip_177">
<path transform="matrix(.24,0,0,.24,0,0)" d="M726.693 613.08767H800.38308V864.8618H726.693Z" clip-rule="evenodd"/>
</clipPath>
<clipPath id="clip_178">
<path transform="matrix(.24,0,0,.24,0,0)" d="M806.52389 628.4397H956.97439V843.3689H806.52389Z" clip-rule="evenodd"/>
</clipPath>
<clipPath id="clip_179">
<path transform="matrix(.24,0,0,.24,0,0)" d="M1125.8474 613.08767H1202.6079V864.8618H1125.8474Z" clip-rule="evenodd"/>
</clipPath>
<clipPath id="clip_180">
<path transform="matrix(.24,0,0,.24,0,0)" d="M1221.0304 603.8762H1346.9176V677.5663H1221.0304Z" clip-rule="evenodd"/>
</clipPath>
<clipPath id="clip_181">
<path transform="matrix(.24,0,0,.24,0,0)" d="M1208.7488 692.91848H1359.1994V852.58029H1208.7488Z" clip-rule="evenodd"/>
</clipPath>
<clipPath id="clip_182">
<path transform="matrix(.24,0,0,.24,0,0)" d="M1531.1428 613.08767H1607.9032V864.8618H1531.1428Z" clip-rule="evenodd"/>
</clipPath>
<clipPath id="clip_183">
<path transform="matrix(.24,0,0,.24,0,0)" d="M1626.3258 613.08767H1752.2129V729.7634H1626.3258Z" clip-rule="evenodd"/>
</clipPath>
<clipPath id="clip_184">
<path transform="matrix(.24,0,0,.24,0,0)" d="M1617.1145 754.3269H1761.4242V846.43948H1617.1145Z" clip-rule="evenodd"/>
</clipPath>
<clipPath id="clip_185">
<path transform="matrix(.24,0,0,.24,0,0)" d="M2000.9169 613.08767H2077.6773V864.8618H2000.9169Z" clip-rule="evenodd"/>
</clipPath>
<clipPath id="clip_186">
<path transform="matrix(.24,0,0,.24,0,0)" d="M2093.0294 603.8762H2221.9869V677.5663H2093.0294Z" clip-rule="evenodd"/>
</clipPath>
<clipPath id="clip_187">
<path transform="matrix(.24,0,0,.24,0,0)" d="M2083.8184 671.42556H2231.1983V766.6084H2083.8184Z" clip-rule="evenodd"/>
</clipPath>
<clipPath id="clip_188">
<path transform="matrix(.24,0,0,.24,0,0)" d="M2093.0294 778.89016H2221.9869V858.721H2093.0294Z" clip-rule="evenodd"/>
</clipPath>
<clipPath id="clip_189">
<path transform="matrix(.24,0,0,.24,0,0)" d="M263.0597 1119.7068H342.8906V1285.5094H263.0597Z" clip-rule="evenodd"/>
</clipPath>
<clipPath id="clip_190">
<path transform="matrix(.24,0,0,.24,0,0)" d="M345.961 1082.8616H502.5524V1187.2559H345.961Z" clip-rule="evenodd"/>
</clipPath>
<clipPath id="clip_191">
<path transform="matrix(.24,0,0,.24,0,0)" d="M352.10188 1217.9602H496.41157V1310.0725H352.10188Z" clip-rule="evenodd"/>
</clipPath>
<clipPath id="clip_192">
<path transform="matrix(.24,0,0,.24,0,0)" d="M720.5521 1119.7068H800.383V1285.5094H720.5521Z" clip-rule="evenodd"/>
</clipPath>
<clipPath id="clip_193">
<path transform="matrix(.24,0,0,.24,0,0)" d="M809.5943 1070.5798H956.9744V1196.467H809.5943Z" clip-rule="evenodd"/>
</clipPath>
<clipPath id="clip_194">
<path transform="matrix(.24,0,0,.24,0,0)" d="M809.5943 1208.7488H956.9744V1319.2838H809.5943Z" clip-rule="evenodd"/>
</clipPath>
<clipPath id="clip_195">
<path transform="matrix(.24,0,0,.24,0,0)" d="M1135.0587 1085.9319H1233.3121V1319.2837H1135.0587Z" clip-rule="evenodd"/>
</clipPath>
<clipPath id="clip_196">
<path transform="matrix(.24,0,0,.24,0,0)" d="M1208.7488 1079.7913H1359.1994V1187.256H1208.7488Z" clip-rule="evenodd"/>
</clipPath>
<clipPath id="clip_197">
<path transform="matrix(.24,0,0,.24,0,0)" d="M1208.7488 1208.7488H1359.1994V1319.2838H1208.7488Z" clip-rule="evenodd"/>
</clipPath>
<clipPath id="clip_198">
<path transform="matrix(.24,0,0,.24,0,0)" d="M1509.6498 1110.4954H1607.9032V1291.6502H1509.6498Z" clip-rule="evenodd"/>
</clipPath>
<clipPath id="clip_199">
<path transform="matrix(.24,0,0,.24,0,0)" d="M1635.537 1076.721H1743.0017V1193.3967H1635.537Z" clip-rule="evenodd"/>
</clipPath>
<clipPath id="clip_200">
<path transform="matrix(.24,0,0,.24,0,0)" d="M1620.1849 1211.8191H1758.3538V1316.2134H1620.1849Z" clip-rule="evenodd"/>
</clipPath>
<clipPath id="clip_201">
<path transform="matrix(.24,0,0,.24,0,0)" d="M1979.424 1110.4954H2077.6773V1291.6502H1979.424Z" clip-rule="evenodd"/>
</clipPath>
<clipPath id="clip_202">
<path transform="matrix(.24,0,0,.24,0,0)" d="M2102.2408 1076.721H2212.776V1193.3967H2102.2408Z" clip-rule="evenodd"/>
</clipPath>
<clipPath id="clip_203">
<path transform="matrix(.24,0,0,.24,0,0)" d="M2077.6773 1208.7488H2237.339V1316.2135H2077.6773Z" clip-rule="evenodd"/>
</clipPath>
</defs>
<g clip-path="url(#clip_174)">
<path transform="matrix(.73690059,0,0,.73690059,28.5,-757.03598)" d="M0 1066H731V1776H0Z" fill="#ffffff"/>
<path transform="matrix(.73690059,0,0,.73690059,28.5,-757.03598)" d="M1 1165H164V1219H1Z" fill="#ffffff"/>
<path transform="matrix(.73690059,0,0,.73690059,28.5,-757.03598)" d="M164 1165H298V1219H164Z" fill="#ffffff"/>
<path transform="matrix(.73690059,0,0,.73690059,28.5,-757.03598)" d="M298 1165H426V1219H298Z" fill="#ffffff"/>
<path transform="matrix(.73690059,0,0,.73690059,28.5,-757.03598)" d="M426 1165H563V1219H426Z" fill="#ffffff"/>
<path transform="matrix(.73690059,0,0,.73690059,28.5,-757.03598)" d="M563 1165H731V1219H563Z" fill="#ffffff"/>
<path transform="matrix(.73690059,0,0,.73690059,28.5,-757.03598)" d="M1 1219H164V1316H1Z" fill="#ffffff"/>
<path transform="matrix(.73690059,0,0,.73690059,28.5,-757.03598)" d="M298 1219H426V1316H298Z" fill="#ffffff"/>
<path transform="matrix(.73690059,0,0,.73690059,28.5,-757.03598)" d="M563 1219H731V1316H563Z" fill="#ffffff"/>
<path transform="matrix(.73690059,0,0,.73690059,28.5,-757.03598)" d="M1 1316H164V1370H1Z" fill="#ffffff"/>
<path transform="matrix(.73690059,0,0,.73690059,28.5,-757.03598)" d="M164 1316H298V1370H164Z" fill="#ffffff"/>
<path transform="matrix(.73690059,0,0,.73690059,28.5,-757.03598)" d="M298 1316H426V1370H298Z" fill="#ffffff"/>
<path transform="matrix(.73690059,0,0,.73690059,28.5,-757.03598)" d="M426 1316H563V1370H426Z" fill="#ffffff"/>
<path transform="matrix(.73690059,0,0,.73690059,28.5,-757.03598)" d="M563 1316H731V1370H563Z" fill="#ffffff"/>
<path transform="matrix(.73690059,0,0,.73690059,28.5,-757.03598)" d="M1 1370H164V1467H1Z" fill="#ffffff"/>
<path transform="matrix(.73690059,0,0,.73690059,28.5,-757.03598)" d="M298 1370H426V1467H298Z" fill="#ffffff"/>
<path transform="matrix(.73690059,0,0,.73690059,28.5,-757.03598)" d="M563 1370H731V1467H563Z" fill="#ffffff"/>
<path transform="matrix(.73690059,0,0,.73690059,28.5,-757.03598)" d="M0 1165H1V1220H0Z" fill="#41b8b8"/>
<path transform="matrix(.73690059,0,0,.73690059,28.5,-757.03598)" d="M0 1165H165V1166H0Z" fill="#41b8b8"/>
<path transform="matrix(.73690059,0,0,.73690059,28.5,-757.03598)" d="M164 1165H165V1220H164Z" fill="#41b8b8"/>
<path transform="matrix(.73690059,0,0,.73690059,28.5,-757.03598)" d="M165 1165H299V1166H165Z" fill="#41b8b8"/>
<path transform="matrix(.73690059,0,0,.73690059,28.5,-757.03598)" d="M298 1165H299V1220H298Z" fill="#41b8b8"/>
<path transform="matrix(.73690059,0,0,.73690059,28.5,-757.03598)" d="M299 1165H426V1166H299Z" fill="#41b8b8"/>
<path transform="matrix(.73690059,0,0,.73690059,28.5,-757.03598)" d="M425 1165H426V1220H425Z" fill="#41b8b8"/>
<path transform="matrix(.73690059,0,0,.73690059,28.5,-757.03598)" d="M426 1165H563V1166H426Z" fill="#41b8b8"/>
<path transform="matrix(.73690059,0,0,.73690059,28.5,-757.03598)" d="M562 1165H563V1220H562Z" fill="#41b8b8"/>
<path transform="matrix(.73690059,0,0,.73690059,28.5,-757.03598)" d="M563 1165H731V1166H563Z" fill="#41b8b8"/>
<path transform="matrix(.73690059,0,0,.73690059,28.5,-757.03598)" d="M730 1165H731V1220H730Z" fill="#41b8b8"/>
<path transform="matrix(.73690059,0,0,.73690059,28.5,-757.03598)" d="M0 1220H1V1317H0Z" fill="#41b8b8"/>
<path transform="matrix(.73690059,0,0,.73690059,28.5,-757.03598)" d="M0 1219H165V1220H0Z" fill="#41b8b8"/>
<path transform="matrix(.73690059,0,0,.73690059,28.5,-757.03598)" d="M164 1220H165V1317H164Z" fill="#41b8b8"/>
<path transform="matrix(.73690059,0,0,.73690059,28.5,-757.03598)" d="M165 1219H299V1220H165Z" fill="#41b8b8"/>
<path transform="matrix(.73690059,0,0,.73690059,28.5,-757.03598)" d="M298 1220H299V1317H298Z" fill="#41b8b8"/>
<path transform="matrix(.73690059,0,0,.73690059,28.5,-757.03598)" d="M299 1219H426V1220H299Z" fill="#41b8b8"/>
<path transform="matrix(.73690059,0,0,.73690059,28.5,-757.03598)" d="M425 1220H426V1317H425Z" fill="#41b8b8"/>
<path transform="matrix(.73690059,0,0,.73690059,28.5,-757.03598)" d="M426 1219H563V1220H426Z" fill="#41b8b8"/>
<path transform="matrix(.73690059,0,0,.73690059,28.5,-757.03598)" d="M562 1220H563V1317H562Z" fill="#41b8b8"/>
<path transform="matrix(.73690059,0,0,.73690059,28.5,-757.03598)" d="M563 1219H731V1220H563Z" fill="#41b8b8"/>
<path transform="matrix(.73690059,0,0,.73690059,28.5,-757.03598)" d="M730 1220H731V1317H730Z" fill="#41b8b8"/>
<path transform="matrix(.73690059,0,0,.73690059,28.5,-757.03598)" d="M0 1317H1V1371H0Z" fill="#41b8b8"/>
<path transform="matrix(.73690059,0,0,.73690059,28.5,-757.03598)" d="M0 1316H165V1317H0Z" fill="#41b8b8"/>
<path transform="matrix(.73690059,0,0,.73690059,28.5,-757.03598)" d="M164 1317H165V1371H164Z" fill="#41b8b8"/>
<path transform="matrix(.73690059,0,0,.73690059,28.5,-757.03598)" d="M165 1316H299V1317H165Z" fill="#41b8b8"/>
<path transform="matrix(.73690059,0,0,.73690059,28.5,-757.03598)" d="M298 1317H299V1371H298Z" fill="#41b8b8"/>
<path transform="matrix(.73690059,0,0,.73690059,28.5,-757.03598)" d="M299 1316H426V1317H299Z" fill="#41b8b8"/>
<path transform="matrix(.73690059,0,0,.73690059,28.5,-757.03598)" d="M425 1317H426V1371H425Z" fill="#41b8b8"/>
<path transform="matrix(.73690059,0,0,.73690059,28.5,-757.03598)" d="M426 1316H563V1317H426Z" fill="#41b8b8"/>
<path transform="matrix(.73690059,0,0,.73690059,28.5,-757.03598)" d="M562 1317H563V1371H562Z" fill="#41b8b8"/>
<path transform="matrix(.73690059,0,0,.73690059,28.5,-757.03598)" d="M563 1316H731V1317H563Z" fill="#41b8b8"/>
<path transform="matrix(.73690059,0,0,.73690059,28.5,-757.03598)" d="M730 1317H731V1371H730Z" fill="#41b8b8"/>
<path transform="matrix(.73690059,0,0,.73690059,28.5,-757.03598)" d="M0 1371H1V1468H0Z" fill="#41b8b8"/>
<path transform="matrix(.73690059,0,0,.73690059,28.5,-757.03598)" d="M0 1370H165V1371H0Z" fill="#41b8b8"/>
<path transform="matrix(.73690059,0,0,.73690059,28.5,-757.03598)" d="M164 1371H165V1468H164Z" fill="#41b8b8"/>
<path transform="matrix(.73690059,0,0,.73690059,28.5,-757.03598)" d="M165 1370H299V1371H165Z" fill="#41b8b8"/>
<path transform="matrix(.73690059,0,0,.73690059,28.5,-757.03598)" d="M298 1371H299V1468H298Z" fill="#41b8b8"/>
<path transform="matrix(.73690059,0,0,.73690059,28.5,-757.03598)" d="M299 1370H426V1371H299Z" fill="#41b8b8"/>
<path transform="matrix(.73690059,0,0,.73690059,28.5,-757.03598)" d="M425 1371H426V1468H425Z" fill="#41b8b8"/>
<path transform="matrix(.73690059,0,0,.73690059,28.5,-757.03598)" d="M426 1370H563V1371H426Z" fill="#41b8b8"/>
<path transform="matrix(.73690059,0,0,.73690059,28.5,-757.03598)" d="M562 1371H563V1468H562Z" fill="#41b8b8"/>
<path transform="matrix(.73690059,0,0,.73690059,28.5,-757.03598)" d="M563 1370H731V1371H563Z" fill="#41b8b8"/>
<path transform="matrix(.73690059,0,0,.73690059,28.5,-757.03598)" d="M730 1371H731V1468H730Z" fill="#41b8b8"/>
<path transform="matrix(.73690059,0,0,.73690059,28.5,-757.03598)" d="M0 1467H165V1468H0Z" fill="#41b8b8"/>
<path transform="matrix(.73690059,0,0,.73690059,28.5,-757.03598)" d="M165 1467H299V1468H165Z" fill="#41b8b8"/>
<path transform="matrix(.73690059,0,0,.73690059,28.5,-757.03598)" d="M299 1467H426V1468H299Z" fill="#41b8b8"/>
<path transform="matrix(.73690059,0,0,.73690059,28.5,-757.03598)" d="M426 1467H563V1468H426Z" fill="#41b8b8"/>
<path transform="matrix(.73690059,0,0,.73690059,28.5,-757.03598)" d="M563 1467H731V1468H563Z" fill="#41b8b8"/>
<text fill="#7f7f7f" xml:space="preserve" transform="matrix(.73690059 0 0 .73690059 28.5 -757.03598)" font-size="32" font-family="SegoeUI" font-weight="bold"><tspan y="1129" x="6.390625 29.142626 48.406629 65.71863 85.558628 94.390628 112.278629 121.36662 130.19863 142.64662">Gh&#x00e9;p k&#x00ed; t&#x1ef1;</tspan></text>
<text xml:space="preserve" transform="matrix(.73690059 0 0 .73690059 28.5 -757.03598)" font-size="32" font-family="SegoeUI" font-weight="bold"><tspan y="1206" x="73.71875">a</tspan></text>
<text xml:space="preserve" transform="matrix(.73690059 0 0 .73690059 28.5 -757.03598)" font-size="32" font-family="SegoeUI" font-weight="bold"><tspan y="1206" x="212.53125 232.75525">&#x0111;a</tspan></text>
<text xml:space="preserve" transform="matrix(.73690059 0 0 .73690059 28.5 -757.03598)" font-size="32" font-family="SegoeUI" font-weight="bold"><tspan y="1206" x="343.25 363.474">&#x0111;&#x00e1;</tspan></text>
<text xml:space="preserve" transform="matrix(.73690059 0 0 .73690059 28.5 -757.03598)" font-size="32" font-family="SegoeUI" font-weight="bold"><tspan y="1206" x="465.67189 485.89588 503.11189">&#x0111;an</tspan></text>
<text xml:space="preserve" transform="matrix(.73690059 0 0 .73690059 28.5 -757.03598)" font-size="32" font-family="SegoeUI" font-weight="bold"><tspan y="1206" x="618.1406 638.3646 655.5806">&#x0111;&#x00e1;n</tspan></text>
<text xml:space="preserve" transform="matrix(.73690059 0 0 .73690059 28.5 -757.03598)" font-size="32" font-family="SegoeUI" font-weight="bold"><tspan y="1357" x="35.953126 55.761125 75.121128 92.03125 109.34325">quy&#x00ea;n</tspan></text>
<text xml:space="preserve" transform="matrix(.73690059 0 0 .73690059 28.5 -757.03598)" font-size="32" font-family="SegoeUI" font-weight="bold"><tspan y="1357" x="194.21875 214.02675 233.38675 252.93875">qu&#x1ed1;c</tspan></text>
<text xml:space="preserve" transform="matrix(.73690059 0 0 .73690059 28.5 -757.03598)" font-size="32" font-family="SegoeUI" font-weight="bold"><tspan y="1357" x="327.15626 342.51625 361.87623 381.42823">cu&#x1ed1;c</tspan></text>
<text xml:space="preserve" transform="matrix(.73690059 0 0 .73690059 28.5 -757.03598)" font-size="32" font-family="SegoeUI" font-weight="bold"><tspan y="1357" x="456.15626 473.28126 492.83326 512.19326">xong</tspan></text>
<text xml:space="preserve" transform="matrix(.73690059 0 0 .73690059 28.5 -757.03598)" font-size="32" font-family="SegoeUI" font-weight="bold"><tspan y="1357" x="598.8281 615.9531 635.5051 655.0571 674.4171">xoong</tspan></text>
<text fill="#7f7f7f" xml:space="preserve" transform="matrix(.73690059 0 0 .73690059 28.5 -757.03598)" font-size="32" font-family="SegoeUI" font-weight="bold"><tspan y="1530" x="6.390625 26.358626 45.622629 64.98263 73.81463">Ch&#x00fa; &#x00fd;</tspan></text>
<path transform="matrix(.73690059,0,0,.73690059,28.5,-757.03598)" d="M28 1578C27.999999 1578.3977 27.923876 1578.7803 27.771636 1579.1478 27.619395 1579.5154 27.402623 1579.8399 27.121317 1580.1212 26.840012 1580.4025 26.515589 1580.6193 26.148047 1580.7715 25.780507 1580.9237 25.397824 1580.9999 25 1581 24.602173 1580.9999 24.219489 1580.9236 23.851946 1580.7714 23.484406 1580.6192 23.159983 1580.4025 22.87868 1580.1212 22.597374 1579.8399 22.3806 1579.5154 22.22836 1579.148 22.076119 1578.7804 21.999999 1578.3977 22 1578 21.999999 1577.6022 22.076119 1577.2194 22.22836 1576.8518 22.3806 1576.4843 22.597374 1576.1598 22.87868 1575.8786 23.159983 1575.5972 23.484406 1575.3804 23.851948 1575.2282 24.219489 1575.076 24.602173 1575 25 1575 25.397824 1575 25.780507 1575.076 26.148047 1575.2282 26.515589 1575.3804 26.840012 1575.5972 27.121317 1575.8786 27.402623 1576.1598 27.619395 1576.4843 27.771636 1576.8518 27.923876 1577.2194 27.999999 1577.6022 28 1578Z"/>
<text xml:space="preserve" transform="matrix(.73690059 0 0 .73690059 28.5 -757.03598)" font-size="16" font-family="SegoeUI"><tspan y="1583" x="40 49.936 58.08 67.136 71.520008 80.928 89.072 94.496 98.880008 108.30401 116.448009 125.504009 129.888 139.296 147.44 156.496 165.92 170.304 173.984 181.728 185.40799 189.79199 195.21599 204.27199 208.14398 212.52799 219.91999 228.97599 238.03199 245.77599 254.14398 263.19999 267.58399 273.008 282.064 290.208 299.264 308.32 312.704 316.384 320.256">V&#x1ea7;n b&#x1eaf;t &#x0111;&#x1ea7;u b&#x1eb1;ng 'y' th&#x00ec; chuy&#x1ec3;n th&#x00e0;nh 'i'</tspan></text>
<path transform="matrix(.73690059,0,0,.73690059,28.5,-757.03598)" d="M28 1599C27.999999 1599.3977 27.923876 1599.7804 27.771636 1600.148 27.619395 1600.5155 27.402623 1600.84 27.121317 1601.1213 26.840012 1601.4025 26.515589 1601.6193 26.148047 1601.7715 25.780507 1601.9238 25.397824 1602 25 1602 24.602173 1602 24.219489 1601.9238 23.851946 1601.7715 23.484406 1601.6193 23.159983 1601.4025 22.87868 1601.1213 22.597374 1600.84 22.3806 1600.5155 22.22836 1600.148 22.076119 1599.7804 21.999999 1599.3977 22 1599 21.999999 1598.602 22.076119 1598.2194 22.22836 1597.8518 22.3806 1597.4843 22.597374 1597.1599 22.87868 1596.8787 23.159983 1596.5973 23.484406 1596.3805 23.851948 1596.2283 24.219489 1596.076 24.602173 1596 25 1596 25.397824 1596 25.780507 1596.076 26.148047 1596.2283 26.515589 1596.3805 26.840012 1596.5973 27.121317 1596.8787 27.402623 1597.1599 27.619395 1597.4843 27.771636 1597.8518 27.923876 1598.2194 27.999999 1598.602 28 1599Z"/>
<text xml:space="preserve" transform="matrix(.73690059 0 0 .73690059 28.5 -757.03598)" font-size="16" font-family="SegoeUI"><tspan y="1604" x="40 51.968004 61.024003 70.432 79.488 88.912 93.296009 100.688 109.744 119.152 123.536 130.92801 140.30402 144.68802 154.09603 163.15203 172.20803 176.59203 184.73603 198.51203 202.89603 206.57602 216.00002 225.05602 228.73601 233.12001 238.544 247.6 251.472 255.856 259.536 268.96003 278.01603 281.696 286.08003 295.50404 304.91203 314.46403 321.85603 326.24003 333.63203 343.00804 346.88005 351.26405 355.13606 363.28007 367.66407 377.07206 386.12806 395.18406 399.56806 407.71208 421.48808 424.96009 429.3441 438.75209 447.80809 455.9521 465.0081 469.3921 476.7841 486.1601 495.2161 499.6001 503.4721 511.61613 515.4881 519.8721 523.7441 531.88809 536.27206 543.93606 552.08 561.13607">Nh&#x1eef;ng ch&#x1eef; c&#x00f3; ph&#x1ee5; &#x00e2;m 'qu' th&#x00ec; 'qu' &#x0111;&#x01b0;&#x1ee3;c coi l&#x00e0; ph&#x1ee5; &#x00e2;m, ph&#x1ea7;n c&#x00f2;n l&#x1ea1;i l&#x00e0; v&#x1ea7;n.</tspan></text>
<path transform="matrix(.73690059,0,0,.73690059,28.5,-757.03598)" stroke-width="1" stroke-linecap="butt" stroke-miterlimit="4" stroke-linejoin="miter" fill="none" stroke="#000000" d="M68 1620C67.99999 1620.3978 67.923877 1620.7804 67.77163 1621.148 67.619388 1621.5155 67.40262 1621.8399 67.121318 1622.1212 66.84001 1622.4025 66.51559 1622.6193 66.14804 1622.7715 65.7805 1622.9237 65.39782 1622.9999 65 1623 64.602169 1622.9999 64.21948 1622.9237 63.85194 1622.7715 63.484399 1622.6193 63.159978 1622.4025 62.878679 1622.1212 62.59737 1621.8399 62.380598 1621.5155 62.22835 1621.148 62.076116 1620.7804 61.999998 1620.3978 62 1620 61.999998 1619.602 62.076116 1619.2192 62.228357 1618.8517 62.380598 1618.4841 62.59737 1618.1598 62.878679 1617.8786 63.159978 1617.5972 63.4844 1617.3805 63.851945 1617.2283 64.21948 1617.076 64.602169 1617 65 1617 65.39782 1617 65.7805 1617.076 66.14804 1617.2282 66.51559 1617.3804 66.84001 1617.5972 67.121318 1617.8786 67.40262 1618.1598 67.619388 1618.4843 67.77163 1618.8518 67.923877 1619.2194 67.99999 1619.602 68 1620Z"/>
<text xml:space="preserve" transform="matrix(.73690059 0 0 .73690059 28.5 -757.03598)" font-size="16" font-family="SegoeUI" font-weight="bold"><tspan y="1625" x="80 89.904 99.584 108.03906 116.69506 126.37506 130.79106 142.10306 146.51906 156.42307 166.10306 170.51906 181.83106 186.24706 190.79106 199.44707 203.86307 215.17507 219.59107">quy&#x00ea;n = qu + i&#x00ea; + n</tspan></text>
<path transform="matrix(.73690059,0,0,.73690059,28.5,-757.03598)" d="M28 1641C27.999999 1641.3977 27.923876 1641.7803 27.771636 1642.1478 27.619395 1642.5154 27.402623 1642.8397 27.121317 1643.1211 26.840012 1643.4024 26.515589 1643.6192 26.148047 1643.7714 25.780507 1643.9237 25.397824 1643.9999 25 1644 24.602173 1643.9999 24.219489 1643.9237 23.851946 1643.7714 23.484406 1643.6192 23.159983 1643.4024 22.87868 1643.1211 22.597374 1642.8397 22.3806 1642.5154 22.22836 1642.1478 22.076119 1641.7803 21.999999 1641.3977 22 1641 21.999999 1640.6019 22.076119 1640.2191 22.22836 1639.8516 22.3806 1639.484 22.597374 1639.1596 22.87868 1638.8784 23.159983 1638.597 23.484406 1638.3804 23.851948 1638.2282 24.219489 1638.076 24.602173 1638 25 1638 25.397824 1638 25.780507 1638.076 26.148047 1638.2282 26.515589 1638.3804 26.840012 1638.597 27.121317 1638.8784 27.402623 1639.1596 27.619395 1639.484 27.771636 1639.8517 27.923876 1640.2192 27.999999 1640.6019 28 1641Z"/>
<text xml:space="preserve" transform="matrix(.73690059 0 0 .73690059 28.5 -757.03598)" font-size="16" font-family="SegoeUI"><tspan y="1646" x="40 51.968004 61.024003 70.432 79.488 88.912 93.296009 100.688 109.744 119.152 123.536 131.488 139.856 145.28 149.664 155.088 164.144 173.2 180.592 184.976 194.384 202.528 211.584 221.008 225.392 234.8 243.856 252.912 257.296 265.44 279.216 283.6 290.992 300.048 309.424 313.29603 317.68003 322.51203 329.90403 333.37605 337.76005 345.15205 354.20805 357.68006 362.06407 371.47206 374.94404 379.32804 384.75205 389.58406 393.96806 407.74406 415.88807 420.27207 427.66407 437.04008 441.42408 450.84809 458.9921 468.0481 472.4321 479.2161 487.3601 494.7521 499.1361 504.56013 513.61618 517.48818 521.87216 529.82418 539.20016 543.5841 550.97616 559.1201 568.17617 572.5601 580.2241 584.0961 592.4641 597.8881 602.2721 611.6961 619.8401 628.8961 633.2801 638.7041 647.76016 655.9041 664.96017">Nh&#x1eef;ng ch&#x1eef; k&#x1ebf;t th&#x00fa;c b&#x1eb1;ng ph&#x1ee5; &#x00e2;m cu&#x1ed1;i (c, ch, p, t) m&#x00e0; c&#x00f3; d&#x1ea5;u s&#x1eaf;c th&#x00ec; ko c&#x1ea7;n vi&#x1ebf;t d&#x1ea5;u thanh</tspan></text>
<path transform="matrix(.73690059,0,0,.73690059,28.5,-757.03598)" stroke-width="1" stroke-linecap="butt" stroke-miterlimit="4" stroke-linejoin="miter" fill="none" stroke="#000000" d="M68 1662C67.99999 1662.3977 67.923877 1662.7803 67.77163 1663.1478 67.619388 1663.5154 67.40262 1663.8399 67.121318 1664.1212 66.84001 1664.4025 66.51559 1664.6193 66.14804 1664.7715 65.7805 1664.9237 65.39782 1664.9999 65 1665 64.602169 1664.9999 64.21948 1664.9236 63.85194 1664.7714 63.484399 1664.6192 63.159978 1664.4025 62.878679 1664.1212 62.59737 1663.8399 62.380598 1663.5155 62.22835 1663.148 62.076116 1662.7804 61.999998 1662.3977 62 1662 61.999998 1661.602 62.076116 1661.2192 62.228357 1660.8517 62.380598 1660.4841 62.59737 1660.1598 62.878679 1659.8786 63.159978 1659.5972 63.4844 1659.3805 63.851945 1659.2283 64.21948 1659.076 64.602169 1659 65 1659 65.39782 1659 65.7805 1659.076 66.14804 1659.2283 66.51559 1659.3805 66.84001 1659.5972 67.121318 1659.8786 67.40262 1660.1598 67.619388 1660.4841 67.77163 1660.8517 67.923877 1661.2192 67.99999 1661.602 68 1662Z"/>
<text xml:space="preserve" transform="matrix(.73690059 0 0 .73690059 28.5 -757.03598)" font-size="16" font-family="SegoeUI" font-weight="bold"><tspan y="1667" x="80 89.904 99.584 109.36 117.04 121.456 132.768 137.184 147.08802 156.768 161.184 172.496 176.912 186.688 191.104 202.416 206.832">qu&#x1ed1;c = qu + &#x00f4; + c</tspan></text>
<path transform="matrix(.73690059,0,0,.73690059,28.5,-757.03598)" d="M28 1683C27.999999 1683.3976 27.923876 1683.7802 27.771636 1684.1477 27.619395 1684.5153 27.402623 1684.8399 27.121317 1685.1212 26.840012 1685.4025 26.515589 1685.6193 26.148047 1685.7715 25.780507 1685.9237 25.397824 1685.9999 25 1686 24.602173 1685.9999 24.219489 1685.9237 23.851946 1685.7715 23.484406 1685.6193 23.159983 1685.4025 22.87868 1685.1212 22.597374 1684.8399 22.3806 1684.5154 22.22836 1684.1478 22.076119 1683.7803 21.999999 1683.3976 22 1683 21.999999 1682.602 22.076119 1682.2194 22.22836 1681.8518 22.3806 1681.4843 22.597374 1681.1599 22.87868 1680.8787 23.159983 1680.5973 23.484406 1680.3805 23.851948 1680.2283 24.219489 1680.076 24.602173 1680 25 1680 25.397824 1680 25.780507 1680.076 26.148047 1680.2283 26.515589 1680.3805 26.840012 1680.5973 27.121317 1680.8787 27.402623 1681.1599 27.619395 1681.4843 27.771636 1681.8518 27.923876 1682.2194 27.999999 1682.602 28 1683Z"/>
<text xml:space="preserve" transform="matrix(.73690059 0 0 .73690059 28.5 -757.03598)" font-size="16" font-family="SegoeUI"><tspan y="1688" x="40 48.384004 57.440004 65.584 73.328 77.712009 87.13601 96.51201 100.38401 104.76801 112.432018 120.57601">Thay &#x0111;&#x1ed5;i v&#x1ea7;n</tspan></text>
<path transform="matrix(.73690059,0,0,.73690059,28.5,-757.03598)" stroke-width="1" stroke-linecap="butt" stroke-miterlimit="4" stroke-linejoin="miter" fill="none" stroke="#000000" d="M68 1704C67.99999 1704.3977 67.923877 1704.7803 67.77163 1705.1478 67.619388 1705.5154 67.40262 1705.8399 67.121318 1706.1212 66.84001 1706.4025 66.51559 1706.6192 66.14804 1706.7714 65.7805 1706.9236 65.39782 1706.9999 65 1707 64.602169 1706.9999 64.21948 1706.9236 63.85194 1706.7714 63.484399 1706.6192 63.159978 1706.4025 62.878679 1706.1212 62.59737 1705.8399 62.380598 1705.5154 62.22835 1705.1478 62.076116 1704.7803 61.999998 1704.3977 62 1704 61.999998 1703.602 62.076116 1703.2192 62.228357 1702.8517 62.380598 1702.4841 62.59737 1702.1597 62.878679 1701.8786 63.159978 1701.5972 63.4844 1701.3805 63.851945 1701.2283 64.21948 1701.076 64.602169 1701 65 1701 65.39782 1701 65.7805 1701.076 66.14804 1701.2282 66.51559 1701.3804 66.84001 1701.5972 67.121318 1701.8786 67.40262 1702.1597 67.619388 1702.4841 67.77163 1702.8517 67.923877 1703.2192 67.99999 1703.602 68 1704Z"/>
<text xml:space="preserve" transform="matrix(.73690059 0 0 .73690059 28.5 -757.03598)" font-size="16" font-family="SegoeUI" font-weight="bold"><tspan y="1709" x="80 89.776 99.456 109.36 113.776 118.192 122.608 127.024 140.832 145.248 155.024 164.70401 174.33602 178.75202 184.65602 193.21875 202.99475 212.67475 222.57875 226.99475 240.80275 245.21875 253.78125 263.55726 273.23725 282.86924">ong &#x00a0;&#x00a0;&#x00a0;&#x2192; onh (xong &#x2192; xonh)</tspan></text>
<path transform="matrix(.73690059,0,0,.73690059,28.5,-757.03598)" stroke-width="1" stroke-linecap="butt" stroke-miterlimit="4" stroke-linejoin="miter" fill="none" stroke="#000000" d="M68 1725C67.99999 1725.3977 67.923877 1725.7803 67.77163 1726.1477 67.619388 1726.5153 67.40262 1726.8397 67.121318 1727.1211 66.84001 1727.4022 66.51559 1727.619 66.14804 1727.7714 65.7805 1727.9236 65.39782 1727.9999 65 1728 64.602169 1727.9999 64.21948 1727.9236 63.85194 1727.7714 63.484399 1727.619 63.159978 1727.4022 62.878679 1727.1211 62.59737 1726.8397 62.380598 1726.5153 62.22835 1726.1477 62.076116 1725.7803 61.999998 1725.3977 62 1725 61.999998 1724.6019 62.076116 1724.2192 62.228357 1723.8517 62.380598 1723.4841 62.59737 1723.1597 62.878679 1722.8784 63.159978 1722.5972 63.4844 1722.3804 63.851945 1722.2282 64.21948 1722.076 64.602169 1722 65 1722 65.39782 1722 65.7805 1722.076 66.14804 1722.2282 66.51559 1722.3804 66.84001 1722.5972 67.121318 1722.8784 67.40262 1723.1597 67.619388 1723.4841 67.77163 1723.8518 67.923877 1724.2192 67.99999 1724.6019 68 1725Z"/>
<text xml:space="preserve" transform="matrix(.73690059 0 0 .73690059 28.5 -757.03598)" font-size="16" font-family="SegoeUI" font-weight="bold"><tspan y="1730" x="80 89.776 99.552 109.232 119.136 123.552 127.968 141.776 146.192 155.968 165.64801 175.55202 179.96802 185.87203 194.44532 204.22132 213.99732 223.6773 233.58132 237.99732 251.80532 256.2213 264.78907 274.56507 284.24507 294.14906">oong &#x00a0;&#x2192; ong (xoong &#x2192; xong)</tspan></text>
<path transform="matrix(.73690059,0,0,.73690059,28.5,-757.03598)" stroke-width="1" stroke-linecap="butt" stroke-miterlimit="4" stroke-linejoin="miter" fill="none" stroke="#000000" d="M68 1746C67.99999 1746.3977 67.923877 1746.7803 67.77163 1747.1478 67.619388 1747.5154 67.40262 1747.8399 67.121318 1748.1212 66.84001 1748.4024 66.51559 1748.6192 66.14804 1748.7714 65.7805 1748.9236 65.39782 1748.9999 65 1749 64.602169 1748.9999 64.21948 1748.9236 63.85194 1748.7714 63.484399 1748.6192 63.159978 1748.4024 62.878679 1748.1212 62.59737 1747.8399 62.380598 1747.5154 62.22835 1747.1478 62.076116 1746.7803 61.999998 1746.3977 62 1746 61.999998 1745.602 62.076116 1745.2192 62.228357 1744.8517 62.380598 1744.4841 62.59737 1744.1598 62.878679 1743.8786 63.159978 1743.5972 63.4844 1743.3804 63.851945 1743.2282 64.21948 1743.076 64.602169 1743 65 1743 65.39782 1743 65.7805 1743.076 66.14804 1743.2282 66.51559 1743.3804 66.84001 1743.5972 67.121318 1743.8786 67.40262 1744.1598 67.619388 1744.4841 67.77163 1744.8517 67.923877 1745.2192 67.99999 1745.602 68 1746Z"/>
<text xml:space="preserve" transform="matrix(.73690059 0 0 .73690059 28.5 -757.03598)" font-size="16" font-family="SegoeUI" font-weight="bold"><tspan y="1751" x="80 89.776 98.432 108.208 112.624 117.04 121.456 125.872 139.68001 144.09601 152.75202 162.52802 166.94402 172.84803 182.52802 192.43202 202.20803 210.86403 220.64003 225.05603 238.86403 243.28003 252.96002 262.864 272.496 281.152 290.928">oeo &#x00a0;&#x00a0;&#x00a0;&#x2192; eo (ngo&#x00e8;o &#x2192; ngh&#x00e8;o)</tspan></text>
<path transform="matrix(.73690059,0,0,.73690059,28.5,-757.03598)" stroke-width="1" stroke-linecap="butt" stroke-miterlimit="4" stroke-linejoin="miter" fill="none" stroke="#000000" d="M68 1767C67.99999 1767.3977 67.923877 1767.7803 67.77163 1768.1478 67.619388 1768.5154 67.40262 1768.8399 67.121318 1769.1212 66.84001 1769.4026 66.51559 1769.6193 66.14804 1769.7715 65.7805 1769.9237 65.39782 1769.9999 65 1770 64.602169 1769.9999 64.21948 1769.9237 63.85194 1769.7715 63.484399 1769.6193 63.159978 1769.4026 62.878679 1769.1212 62.59737 1768.8399 62.380598 1768.5155 62.22835 1768.148 62.076116 1767.7804 61.999998 1767.3977 62 1767 61.999998 1766.6022 62.076116 1766.2195 62.228357 1765.8519 62.380598 1765.4843 62.59737 1765.1598 62.878679 1764.8787 63.159978 1764.5973 63.4844 1764.3805 63.851945 1764.2283 64.21948 1764.076 64.602169 1764 65 1764 65.39782 1764 65.7805 1764.0762 66.14804 1764.2284 66.51559 1764.3805 66.84001 1764.5973 67.121318 1764.8787 67.40262 1765.1598 67.619388 1765.4843 67.77163 1765.8518 67.923877 1766.2194 67.99999 1766.6022 68 1767Z"/>
<text xml:space="preserve" transform="matrix(.73690059 0 0 .73690059 28.5 -757.03598)" font-size="16" font-family="SegoeUI" font-weight="bold"><tspan y="1772" x="80 89.625 98.233 108.009 112.425 116.841 121.257 125.673007 139.481 143.897 152.505 162.281 166.697 172.60102 182.281 192.18502 201.8125 210.4205 220.1965 224.6125 238.4205 242.8365 252.51651 262.4205 271.0285 280.8045">oao &#x00a0;&#x00a0;&#x00a0;&#x2192; ao (ngo&#x00e0;o &#x2192; ng&#x00e0;o)</tspan></text>
</g>
<g clip-path="url(#clip_175)">
<path transform="matrix(.71874228,0,0,.7375625,31.239708,-339.45536)" d="M67.919 733.355C67.888 733.781 67.849 734.206 67.801 734.63 67.563 736.724 67.151 738.165 66.566 738.952 66.295 739.382 65.829 739.649 65.321 739.664 63.59 739.664 61.858 736.696 60.126 730.758 60.481 729.339 60.821 727.917 61.146 726.49 61.441 725.195 61.72 723.897 61.981 722.594 61.981 722.594 62.655 676.173 62.515 671.789 62.472 670.417 62.418 669.044 62.352 667.672 62.182 666.779 61.954 666.091 61.667 665.607 61.554 665.408 61.409 665.228 61.239 665.074 61.036 664.855 60.847 664.624 60.672 664.381 60.253 663.808 59.942 663.162 59.755 662.476L60.497 661.734C64.456 661.734 67.301 663.342 69.032 666.558 68.604 668.134 68.355 669.752 68.29 671.383L67.919 733.355Z"/>
</g>
<g clip-path="url(#clip_176)">
<path transform="matrix(.73699876,0,0,.7439039,53.448179,136.25469)" d="M75.655 65.178C75.933 65.383 76.21 65.588 76.487 65.794 80.526 68.788 84.456 71.925 88.272 75.198 88.538 75.954 88.783 76.718 89.006 77.488 89.754 80.079 90.128 82.408 90.128 84.475 90.133 84.845 90.09 85.215 90.001 85.575 89.768 86.472 89.212 87.046 88.334 87.297 87.951 87.4 87.556 87.45 87.159 87.444 87.125 87.444 87.091 87.443 87.056 87.44 85.653 87.335 83.779 85.111 81.433 80.766 80.842 79.665 80.277 78.551 79.737 77.425 70.51 80.205 61.463 83.551 52.647 87.444 52.116 87.679 51.59 87.927 51.07 88.186 50.6 88.42 50.135 88.668 49.678 88.928 48.589 88.619 47.535 88.197 46.533 87.669 43.68 86.241 41.678 83.539 41.143 80.393L41.885 79.651C42.206 79.812 42.532 79.965 42.861 80.109 43.509 80.39 44.067 80.581 44.533 80.681 44.76 80.733 44.992 80.76 45.225 80.764 45.281 80.764 45.336 80.763 45.391 80.762 45.869 80.751 46.441 80.694 47.107 80.589 47.471 80.531 47.833 80.466 48.194 80.393 53.219 64.102 58.277 38.08 59.698 29.637 60.004 27.82 60.238 26.171 60.782 24.411 60.632 24.11 60.482 23.808 60.333 23.506 59.684 22.183 59.256 21.247 59.048 20.699 59.001 20.578 58.961 20.454 58.927003 20.329L59.669 19.587C60.581 19.753 61.481 19.975 62.364 20.254 66.045 21.433 68.239 23.437 68.946 26.267 63.936 45.27 57.891 64.261 52.276 80.022 56.519 79.121 60.756 78.193 64.986 77.239 69.538 76.212 74.084 75.161 78.624 74.085 78.33 73.517 78.041 72.946 77.757 72.372 76.868 70.573 76.158 68.988 75.627 67.619 75.361 66.939 75.123 66.249 74.913 65.55L75.655 65.178Z"/>
</g>
<g clip-path="url(#clip_177)">
<path transform="matrix(.71610996,0,0,.7377481,20.505278,4.384409)" d="M215.656 210.574C219.491 210.814 221.203 212.169 222.069 215.139V239.259C222.069 239.349 222.068 239.439 222.065 239.529 222.042 240.299 221.917 240.899 221.688 241.339 221.422 241.909 220.839 242.259 220.213 242.229 219.108 242.229 218.395 241.014 216.8 238.074 216.398 237.324 216.016 236.574 215.656 235.804 215.69 235.564 215.723 235.334 215.755 235.094 216.21 231.704 216.512 227.614 216.661 222.844 216.736 220.364 216.772 217.884 216.769 215.394 216.576 215.094 216.389 214.794 216.209 214.484 215.447 213.184 215.015 212.124 214.914 211.314L215.656 210.574ZM230.129 193.504C231.31 193.494 232.49 193.574 233.657 193.754 237.231 194.324 238.607 194.629 239.608 197.109 239.591 197.619 239.559 198.139 239.512 198.649 239.401 199.879 239.185 201.109 238.866 202.309V250.919C238.866 254.749 239.113 259.699 239.608 265.759 239.483 266.589 239.338 267.409 239.173 268.229 238.544 271.329 237.76 273.429 236.822 274.519 236.429 275.049 235.817 275.379 235.155 275.409 235.122 275.409 235.089 275.409 235.056 275.399 234.315 275.279 234.146 275.014 232.726 272.174 231.079 270.314 229.296 268.574 227.392 266.974 225.314 265.234 223.13 263.624 220.851 262.154L221.594 261.414C222.222 261.574 222.852 261.724 223.484 261.864 225.456 262.324 227.147 262.624 228.558 262.774 229.203 262.854 229.851 262.894 230.5 262.894 231.114 262.914 231.701 262.644 232.086 262.164 232.723 261.394 233.06 260.034 233.097 258.074 233.096 248.884 233.065 239.704 233.005 230.514 232.939 220.524 232.846 210.534 232.726 200.554 232.703 200.334 232.664 200.124 232.609 199.914 232.36 198.974 231.781 198.074 230.871 197.214 230.708 197.044 230.552 196.874 230.405 196.704 229.726 195.884 229.387 195.064 229.387 194.244L230.129 193.504Z"/>
</g>
<g clip-path="url(#clip_178)">
<path transform="matrix(.73699876,0,0,.7439039,163.24636,136.25469)" d="M75.655 65.178C75.933 65.383 76.21 65.588 76.487 65.794 80.526 68.788 84.456 71.925 88.272 75.198 88.538 75.954 88.783 76.718 89.006 77.488 89.754 80.079 90.128 82.408 90.128 84.475 90.133 84.845 90.09 85.215 90.001 85.575 89.768 86.472 89.212 87.046 88.334 87.297 87.951 87.4 87.556 87.45 87.159 87.444 87.125 87.444 87.091 87.443 87.056 87.44 85.653 87.335 83.779 85.111 81.433 80.766 80.842 79.665 80.277 78.551 79.737 77.425 70.51 80.205 61.463 83.551 52.647 87.444 52.116 87.679 51.59 87.927 51.07 88.186 50.6 88.42 50.135 88.668 49.678 88.928 48.589 88.619 47.535 88.197 46.533 87.669 43.68 86.241 41.678 83.539 41.143 80.393L41.885 79.651C42.206 79.812 42.532 79.965 42.861 80.109 43.509 80.39 44.067 80.581 44.533 80.681 44.76 80.733 44.992 80.76 45.225 80.764 45.281 80.764 45.336 80.763 45.391 80.762 45.869 80.751 46.441 80.694 47.107 80.589 47.471 80.531 47.833 80.466 48.194 80.393 53.219 64.102 58.277 38.08 59.698 29.637 60.004 27.82 60.238 26.171 60.782 24.411 60.632 24.11 60.482 23.808 60.333 23.506 59.684 22.183 59.256 21.247 59.048 20.699 59.001 20.578 58.961 20.454 58.927003 20.329L59.669 19.587C60.581 19.753 61.481 19.975 62.364 20.254 66.045 21.433 68.239 23.437 68.946 26.267 63.936 45.27 57.891 64.261 52.276 80.022 56.519 79.121 60.756 78.193 64.986 77.239 69.538 76.212 74.084 75.161 78.624 74.085 78.33 73.517 78.041 72.946 77.757 72.372 76.868 70.573 76.158 68.988 75.627 67.619 75.361 66.939 75.123 66.249 74.913 65.55L75.655 65.178Z"/>
</g>
<g clip-path="url(#clip_179)">
<path transform="matrix(.74594786,0,0,.7377481,109.88979,4.384409)" d="M215.656 210.574C219.491 210.814 221.203 212.169 222.069 215.139V239.259C222.069 239.349 222.068 239.439 222.065 239.529 222.042 240.299 221.917 240.899 221.688 241.339 221.422 241.909 220.839 242.259 220.213 242.229 219.108 242.229 218.395 241.014 216.8 238.074 216.398 237.324 216.016 236.574 215.656 235.804 215.69 235.564 215.723 235.334 215.755 235.094 216.21 231.704 216.512 227.614 216.661 222.844 216.736 220.364 216.772 217.884 216.769 215.394 216.576 215.094 216.389 214.794 216.209 214.484 215.447 213.184 215.015 212.124 214.914 211.314L215.656 210.574ZM230.129 193.504C231.31 193.494 232.49 193.574 233.657 193.754 237.231 194.324 238.607 194.629 239.608 197.109 239.591 197.619 239.559 198.139 239.512 198.649 239.401 199.879 239.185 201.109 238.866 202.309V250.919C238.866 254.749 239.113 259.699 239.608 265.759 239.483 266.589 239.338 267.409 239.173 268.229 238.544 271.329 237.76 273.429 236.822 274.519 236.429 275.049 235.817 275.379 235.155 275.409 235.122 275.409 235.089 275.409 235.056 275.399 234.315 275.279 234.146 275.014 232.726 272.174 231.079 270.314 229.296 268.574 227.392 266.974 225.314 265.234 223.13 263.624 220.851 262.154L221.594 261.414C222.222 261.574 222.852 261.724 223.484 261.864 225.456 262.324 227.147 262.624 228.558 262.774 229.203 262.854 229.851 262.894 230.5 262.894 231.114 262.914 231.701 262.644 232.086 262.164 232.723 261.394 233.06 260.034 233.097 258.074 233.096 248.884 233.065 239.704 233.005 230.514 232.939 220.524 232.846 210.534 232.726 200.554 232.703 200.334 232.664 200.124 232.609 199.914 232.36 198.974 231.781 198.074 230.871 197.214 230.708 197.044 230.552 196.874 230.405 196.704 229.726 195.884 229.387 195.064 229.387 194.244L230.129 193.504Z"/>
</g>
<g clip-path="url(#clip_180)">
<path transform="matrix(.73306336,0,0,.7446574,222.7427,-96.84063)" d="M106.307 324.674C106.385 324.683 106.463 324.692 106.54 324.702 107.698 324.849 108.738 325.096 109.659 325.444 111.924 326.203 113.704 327.977 114.471 330.24 114.18 330.702 113.877 331.157 113.56 331.603 112.668 332.868 111.488 334.385 110.018 336.155 109.286 337.036 108.544 337.91 107.792 338.776 113.873 337.241 119.934 335.632 125.975 333.951 126.212 333.869 126.439 333.76 126.651 333.626 127.43 333.146 128.318 332.265 129.315 330.983 130.14 331.079 130.963 331.197 131.781 331.337 134.125 331.745 135.695 332.263 136.492 332.892 136.854 333.127 137.082 333.52 137.108 333.951 137.108 334.941 136.242 335.683 134.51 336.178 126.686 337.765 118.892 339.497 111.132 341.373L105.565 341.002C104.537 342.033 103.481 343.036 102.397 344.01 100.317 345.872 98.405 347.343 96.659 348.424L95.917 348.053C97.325 345.955 98.703 343.837 100.051 341.701 101.321 339.685 102.483 337.77 103.537 335.958 104.635 334.08 105.682 332.173 106.678 330.24 106.709 330.163 106.738 330.086 106.765 330.008 106.952 329.487 107.048 328.938 107.05 328.385 106.868 328.124 106.693 327.857 106.526 327.586 106.116 326.915 105.837 326.326 105.689 325.82 105.612 325.569 105.57 325.308 105.565 325.045L106.307 324.674Z"/>
</g>
<g clip-path="url(#clip_181)">
<path transform="matrix(.73697367,0,0,.73233756,264.3527,81.49207)" d="M69.453 144.379C69.731 144.584 70.008 144.789 70.285 144.995 74.324 147.989 78.254 151.126 82.07 154.399 82.336 155.155 82.581 155.919 82.804 156.689 83.552 159.28 83.926 161.609 83.926 163.676 83.931 164.046 83.888 164.416 83.799 164.776 83.566 165.673 83.01 166.247 82.132 166.498 81.749 166.601 81.354 166.651 80.957 166.645 80.923 166.645 80.889 166.644 80.854 166.641 79.451 166.536 77.577 164.312 75.231 159.967 74.64 158.866 74.075 157.752 73.535 156.626 64.308 159.406 55.261 162.752 46.445 166.645 45.914 166.88 45.388 167.128 44.868 167.387 44.398 167.621 43.933 167.869 43.476 168.129 42.387 167.82 41.333 167.398 40.331 166.87 37.478 165.442 35.476 162.74 34.941 159.594L35.683 158.852C36.004 159.013 36.33 159.166 36.659 159.31 37.307 159.591 37.865 159.782 38.331 159.882 38.558 159.934 38.79 159.961 39.023 159.965 39.079 159.965 39.134 159.964 39.189 159.963 39.667 159.952 40.239 159.895 40.905 159.79 41.269 159.732 41.631 159.667 41.992 159.594 48.95 144.422 53.794 133.176 56.524 125.855 57.177 124.132 57.776 122.389 58.32 120.629 58.17 120.328 58.02 120.026 57.871 119.724 57.222 118.401 56.794 117.465 56.586 116.917 56.539 116.796 56.499 116.672 56.465 116.547L57.207 115.805C58.119 115.971 59.019 116.193 59.902 116.472 63.583 117.651 65.777 119.655 66.484 122.485 60.124 134.972 53.317 147.226 46.074 159.223 50.317 158.322 54.554 157.394 58.784 156.44 63.336 155.413 67.882 154.362 72.422 153.286 72.128 152.718 71.839 152.147 71.555 151.573 70.666 149.774 69.956 148.189 69.425 146.82 69.159 146.14 68.921 145.45 68.711 144.751L69.453 144.379Z"/>
</g>
<g clip-path="url(#clip_182)">
<path transform="matrix(.74594786,0,0,.7377481,207.16069,4.384409)" d="M215.656 210.574C219.491 210.814 221.203 212.169 222.069 215.139V239.259C222.069 239.349 222.068 239.439 222.065 239.529 222.042 240.299 221.917 240.899 221.688 241.339 221.422 241.909 220.839 242.259 220.213 242.229 219.108 242.229 218.395 241.014 216.8 238.074 216.398 237.324 216.016 236.574 215.656 235.804 215.69 235.564 215.723 235.334 215.755 235.094 216.21 231.704 216.512 227.614 216.661 222.844 216.736 220.364 216.772 217.884 216.769 215.394 216.576 215.094 216.389 214.794 216.209 214.484 215.447 213.184 215.015 212.124 214.914 211.314L215.656 210.574ZM230.129 193.504C231.31 193.494 232.49 193.574 233.657 193.754 237.231 194.324 238.607 194.629 239.608 197.109 239.591 197.619 239.559 198.139 239.512 198.649 239.401 199.879 239.185 201.109 238.866 202.309V250.919C238.866 254.749 239.113 259.699 239.608 265.759 239.483 266.589 239.338 267.409 239.173 268.229 238.544 271.329 237.76 273.429 236.822 274.519 236.429 275.049 235.817 275.379 235.155 275.409 235.122 275.409 235.089 275.409 235.056 275.399 234.315 275.279 234.146 275.014 232.726 272.174 231.079 270.314 229.296 268.574 227.392 266.974 225.314 265.234 223.13 263.624 220.851 262.154L221.594 261.414C222.222 261.574 222.852 261.724 223.484 261.864 225.456 262.324 227.147 262.624 228.558 262.774 229.203 262.854 229.851 262.894 230.5 262.894 231.114 262.914 231.701 262.644 232.086 262.164 232.723 261.394 233.06 260.034 233.097 258.074 233.096 248.884 233.065 239.704 233.005 230.514 232.939 220.524 232.846 210.534 232.726 200.554 232.703 200.334 232.664 200.124 232.609 199.914 232.36 198.974 231.781 198.074 230.871 197.214 230.708 197.044 230.552 196.874 230.405 196.704 229.726 195.884 229.387 195.064 229.387 194.244L230.129 193.504Z"/>
</g>
<g clip-path="url(#clip_183)">
<path transform="matrix(.73346439,0,0,.7326013,359.4287,11.477182)" d="M68.834 204.107C72.485 205.964 76.198 207.696 79.966 209.302 79.98 209.33 79.995 209.358 80.009 209.385 81.74 212.758 82.79 215.145 83.158 216.547 83.245 216.846 83.294 217.155 83.306 217.466 83.307 217.71 83.293 217.954 83.263 218.196 83.104 219.442 82.5 220.064 81.451 220.064 81.187 220.06 80.926 220.01 80.679 219.917 79.267 219.413 77.421 217.606 75.142 214.498 65.989 216.724 57.454 219.074 49.537 221.548 48.167 222.462 47.067 223.038 46.236 223.277 45.983 223.355 45.72 223.398 45.455 223.404 44.712 223.404 43.599 221.301 42.115 217.095 42.126 217.089 42.136 217.082 42.147 217.075 44.912 215.291 46.633 213.813 47.31 212.642 47.527 212.255 47.741 211.867 47.952 211.477 51.194 205.459 53.838 199.138 55.845 192.603 56.046 191.347 56.166 190.459 56.203 189.937 56.211 189.836 56.215 189.735 56.216 189.634 55.783 188.336 55.536 187.099 55.474 185.923L56.216 185.181C57.152 185.614 58.046 186.134 58.884 186.735 61.143 188.291 62.713 190.659 63.267 193.345 59.309 201.015 55.227 208.437 51.021 215.611 51.46 215.545 51.9 215.478 52.339 215.41 58.567 214.456 65.55 213.286 73.287 211.9 72.301 210.52 71.385 209.21 70.539 207.969 69.834 206.938 69.142 205.898 68.463 204.849L68.834 204.107Z"/>
</g>
<g clip-path="url(#clip_184)">
<path transform="matrix(.7406528,0,0,.7354272,150.89339,-865.0847)" d="M321.021 1428.03C321.512 1428.05 322.003 1428.09 322.492 1428.14 323.504 1428.26 324.502 1428.47 325.474 1428.78 326.613 1428.65 327.751 1428.52 328.889 1428.38 336.601 1427.44 344.257 1426.09 351.822 1424.32 352.303 1424.15 352.786 1423.98 353.269 1423.81 355.275 1423.11 356.626 1422.69 357.324 1422.53 357.466 1422.5 357.612 1422.47 357.759 1422.47 363.944 1425.25 367.037 1427.1 367.037 1428.03 367.033 1428.26 366.982 1428.48 366.889 1428.69 366.638 1429.27 366.069 1429.92 365.181 1430.63 364.914 1431.38 364.644 1432.14 364.369 1432.89 362.655 1437.57 360.575 1442.76 358.13 1448.44 357.834 1449.28 357.15 1449.91 356.297 1450.15 355.927 1450.25 355.545 1450.3 355.162 1450.3 355.143 1450.3 355.125 1450.3 355.107 1450.3 354.536 1450.28 353.823 1449.9 352.969 1449.17 352.701 1448.94 352.442 1448.69 352.193 1448.44 345.884 1449.06 339.575 1449.93 333.267 1451.04 333.142 1451.71 332.878 1452.15 332.474 1452.36 332.26 1452.48 332.023 1452.53 331.783 1452.53 331.508 1452.53 331.233 1452.51 330.961 1452.47 329.881 1452.33 329.003 1451.9 328.326 1451.17 327.898 1450.7 327.561 1450.15 327.33 1449.56 326.309 1446.5 325.01 1442.46 323.433 1437.45 322.873 1435.67 322.317 1433.89 321.763 1432.11 321.602 1431.81 321.445 1431.51 321.292 1431.2 320.616 1429.85 320.279 1428.91 320.279 1428.4L321.021 1428.03ZM332.525 1447.7C336.013 1446.99 339.508 1446.31 343.008 1445.66 346.187 1445.07 349.373 1444.51 352.564 1443.99 352.941 1442.93 353.309 1441.87 353.667 1440.8 354.434 1438.51 355.11 1436.34 355.695 1434.28 356.18 1432.58 356.62 1430.87 357.017 1429.15 357.02 1428.91 356.993 1428.68 356.938 1428.46 356.735 1427.68 356.143 1427.29 355.162 1427.29 345.76 1428.78 336.607 1430.26 327.701 1431.74L332.525 1447.7Z"/>
</g>
<g clip-path="url(#clip_185)">
<path transform="matrix(.74594786,0,0,.7377481,319.90647,4.384409)" d="M215.656 210.574C219.491 210.814 221.203 212.169 222.069 215.139V239.259C222.069 239.349 222.068 239.439 222.065 239.529 222.042 240.299 221.917 240.899 221.688 241.339 221.422 241.909 220.839 242.259 220.213 242.229 219.108 242.229 218.395 241.014 216.8 238.074 216.398 237.324 216.016 236.574 215.656 235.804 215.69 235.564 215.723 235.334 215.755 235.094 216.21 231.704 216.512 227.614 216.661 222.844 216.736 220.364 216.772 217.884 216.769 215.394 216.576 215.094 216.389 214.794 216.209 214.484 215.447 213.184 215.015 212.124 214.914 211.314L215.656 210.574ZM230.129 193.504C231.31 193.494 232.49 193.574 233.657 193.754 237.231 194.324 238.607 194.629 239.608 197.109 239.591 197.619 239.559 198.139 239.512 198.649 239.401 199.879 239.185 201.109 238.866 202.309V250.919C238.866 254.749 239.113 259.699 239.608 265.759 239.483 266.589 239.338 267.409 239.173 268.229 238.544 271.329 237.76 273.429 236.822 274.519 236.429 275.049 235.817 275.379 235.155 275.409 235.122 275.409 235.089 275.409 235.056 275.399 234.315 275.279 234.146 275.014 232.726 272.174 231.079 270.314 229.296 268.574 227.392 266.974 225.314 265.234 223.13 263.624 220.851 262.154L221.594 261.414C222.222 261.574 222.852 261.724 223.484 261.864 225.456 262.324 227.147 262.624 228.558 262.774 229.203 262.854 229.851 262.894 230.5 262.894 231.114 262.914 231.701 262.644 232.086 262.164 232.723 261.394 233.06 260.034 233.097 258.074 233.096 248.884 233.065 239.704 233.005 230.514 232.939 220.524 232.846 210.534 232.726 200.554 232.703 200.334 232.664 200.124 232.609 199.914 232.36 198.974 231.781 198.074 230.871 197.214 230.708 197.044 230.552 196.874 230.405 196.704 229.726 195.884 229.387 195.064 229.387 194.244L230.129 193.504Z"/>
</g>
<g clip-path="url(#clip_186)">
<path transform="matrix(.75094297,0,0,.7446574,430.30769,-96.84063)" d="M106.307 324.674C106.385 324.683 106.463 324.692 106.54 324.702 107.698 324.849 108.738 325.096 109.659 325.444 111.924 326.203 113.704 327.977 114.471 330.24 114.18 330.702 113.877 331.157 113.56 331.603 112.668 332.868 111.488 334.385 110.018 336.155 109.286 337.036 108.544 337.91 107.792 338.776 113.873 337.241 119.934 335.632 125.975 333.951 126.212 333.869 126.439 333.76 126.651 333.626 127.43 333.146 128.318 332.265 129.315 330.983 130.14 331.079 130.963 331.197 131.781 331.337 134.125 331.745 135.695 332.263 136.492 332.892 136.854 333.127 137.082 333.52 137.108 333.951 137.108 334.941 136.242 335.683 134.51 336.178 126.686 337.765 118.892 339.497 111.132 341.373L105.565 341.002C104.537 342.033 103.481 343.036 102.397 344.01 100.317 345.872 98.405 347.343 96.659 348.424L95.917 348.053C97.325 345.955 98.703 343.837 100.051 341.701 101.321 339.685 102.483 337.77 103.537 335.958 104.635 334.08 105.682 332.173 106.678 330.24 106.709 330.163 106.738 330.086 106.765 330.008 106.952 329.487 107.048 328.938 107.05 328.385 106.868 328.124 106.693 327.857 106.526 327.586 106.116 326.915 105.837 326.326 105.689 325.82 105.612 325.569 105.57 325.308 105.565 325.045L106.307 324.674Z"/>
</g>
<g clip-path="url(#clip_187)">
<path transform="matrix(.7239115,0,0,.7355244,471.88645,-20.734673)" d="M69.666 257.313C69.836 257.382 70.006 257.452 70.175 257.523 75.283 259.629 80.203 262.165 84.881 265.106 86.397 268.42 87.332 270.938 87.686 272.658 87.786 273.102 87.841 273.556 87.85 274.012 87.85 274.089 87.848 274.167 87.845 274.245 87.795 275.616 87.294 276.472 86.342 276.813 85.991 276.931 85.623 276.987 85.252 276.981 85.2 276.981 85.149 276.977 85.097 276.971 83.927 276.821 82.047 275.028 79.457 271.592 78.773 270.68 78.107 269.755 77.459 268.817 63.481 272.775 62.878 273.88 49.395 277.591L47.91 278.333C45.094 278.242 42.745 276.95 40.863 274.458 40.131 273.469 39.508 272.404 39.004 271.282L39.746 270.54C40.213 270.654 40.682 270.761 41.152 270.861 42.042 271.049 42.791 271.174 43.399 271.236 43.665 271.264 43.932 271.28 44.199 271.282L45.018 271.396C50.607 265.303 55.465 258.578 59.491 251.357 59.677003 250.058 59.8 248.821 59.862 247.646L60.604 247.275C61.208 247.759 61.776 248.287 62.304 248.854 64.311 250.913 65.433 253.676 65.428 256.552L64.315 257.295C59.553 261.814 54.728 266.268 49.842 270.654 60.852 268.798 64.595 268.322 75.603 266.219 73.579 263.438 71.475 260.715 69.295 258.055L69.666 257.313Z"/>
</g>
<g clip-path="url(#clip_188)">
<path transform="matrix(.7444756,0,0,.7484146,263.80546,-918.36996)" d="M321.136 1481.31C321.439 1481.31 321.742 1481.32 322.044 1481.33 323.174 1481.39 324.107 1481.55 324.843 1481.82 325.246 1481.96 325.623 1482.16 325.96 1482.42 327.497 1482.23 329.031 1482.02 330.563 1481.8 338.525 1480.65 346.407 1479 354.163 1476.86 354.741 1477.09 355.315 1477.34 355.883 1477.59 358.606 1478.82 360.414 1480.01 361.305 1481.15 361.701 1481.61 361.93 1482.19 361.956 1482.8 361.956 1483.31 361.672 1483.86 361.104 1484.45 360.905 1484.65 360.694 1484.84 360.472 1485.02 358.493 1488.73 356.39 1492.69 354.164 1496.9L354.163 1498.75C354.164 1498.86 354.145 1498.96 354.105 1499.06 353.931 1499.48 353.368 1499.74 352.416 1499.83 352.133 1499.85 351.85 1499.87 351.566 1499.87 350.365 1499.79 349.163 1499.73 347.96 1499.67 346.813 1499.62 345.719 1499.58 344.68 1499.55 343.512 1499.51 342.344 1499.49 341.175 1499.49 338.172 1499.5 335.181 1499.87 332.269 1500.61 332.233 1500.7 332.196 1500.79 332.156 1500.88 331.913 1501.41 331.643 1501.82 331.346 1502.08 331.095 1502.32 330.762 1502.46 330.414 1502.46 328.935 1502.46 327.692 1501.36 326.685 1499.16 326.406 1498.55 326.164 1497.91 325.96 1497.27 325.369 1495.36 324.758 1493.27 324.127 1491 323.609 1489.13 323.107 1487.27 322.621 1485.39 322.401 1485.15 322.192 1484.9 321.996 1484.64 321.729 1484.29 321.461 1483.9 321.194 1483.47 320.91 1483.01 320.644 1482.53 320.394 1482.05L321.136 1481.31ZM350.824 1482.05C346.961 1482.66 343.095 1483.24 339.227 1483.82 335.55 1484.36 331.87 1484.88 328.187 1485.39 329.236 1489.53 330.475 1493.62 331.898 1497.64 337.341 1496.28 342.907 1495.16 348.597 1494.3 348.888 1493.35 349.178 1492.4 349.467 1491.45 350.303 1488.69 351.127 1485.93 351.937 1483.17L350.824 1482.05Z"/>
</g>
<g clip-path="url(#clip_189)">
<path transform="matrix(.72710898,0,0,.73950389,-152.39162,-581.5298)" d="M297.158 1153.85C297.579 1153.85 298 1153.87 298.419 1153.89 299.118 1153.96 299.812 1154.07 300.498 1154.21 301.677 1153.94 302.851 1153.66 304.021 1153.37 306.459 1152.74 308.873 1152.04 311.26 1151.24 311.627 1151.08 311.995 1150.9 312.365 1150.74 313.449 1150.27 314.27 1149.96 314.829 1149.84 314.997 1149.8 315.169 1149.77 315.342 1149.77 320.29 1151.81 322.764 1153.41 322.764 1154.59 321.774 1156.38 321.279 1157.62 321.279 1158.3 321.277 1164.58 321.215 1170.86 321.094 1177.13 320.963 1183.96 320.777 1190.81 320.537 1197.63 320.17 1200.24 319.614 1201.99 318.869 1202.88 318.565 1203.31 318.085 1203.56 317.568 1203.58 316.713 1203.58 315.981 1202.59 315.371 1200.63 315.219 1200.13 315.086 1199.63 314.971 1199.12V1195.04C313.813 1195.55 312.662 1196.08 311.517 1196.63 309.131 1197.77 307.066 1198.84 305.322 1199.86 305.27 1199.88 305.217 1199.89 305.164 1199.9 304.79 1200.03 304.386 1200.11 303.952 1200.15 303.545 1200.2 303.135 1200.23 302.725 1200.22 302.686 1200.38 302.643 1200.55 302.598 1200.7 302.295 1201.78 301.949 1202.49 301.56 1202.88 301.383 1203.08 301.134 1203.19 300.869 1203.19 300.563 1203.19 300.263 1203.11 300.002 1202.94 299.118 1202.42 298.21 1201.13 297.279 1199.04 296.968 1198.34 296.68 1197.62 296.416 1196.88 296.796 1194.8 297.113 1192.67 297.365 1190.57 297.646 1188.22 297.824 1185.88 297.9 1183.54 298.026 1179.08 298.12 1174.84 298.182 1170.83 298.241 1167.14 298.271 1163.46 298.272 1159.79 298.272 1159.63 298.26 1159.47 298.237 1159.33 298.129 1158.58 297.77 1157.62 297.158 1156.44 296.664 1155.45 296.416 1154.7 296.416 1154.21L297.158 1153.85ZM314.229 1153.85C313.07 1154.15 311.909 1154.46 310.746 1154.78 307.188 1155.7 304.39 1156.38 302.354 1156.82 302.509 1156.95 302.649 1157.12 302.772 1157.29 303.236 1157.92 303.467 1158.76 303.467 1159.79L303.096 1167.58C304.854 1167.04 306.587 1166.41 308.291 1165.71 308.786 1165.47 309.157 1165.11 309.404 1164.61 312.126 1164.97 313.486 1165.71 313.486 1166.84 313.487 1166.91 313.474 1166.98 313.45 1167.07 313.32 1167.46 312.842 1167.81 312.016 1168.1 311.768 1168.17 311.516 1168.26 311.26 1168.32 308.539 1168.93 305.818 1169.67 303.096 1170.55L302.725 1180.57C304.209 1180.14 305.485 1179.77 306.552 1179.41 306.886 1179.31 307.218 1179.19 307.549 1179.08 307.59 1179.07 307.63 1179.05 307.67 1179.04 308.144 1178.84 308.722 1178.47 309.404 1177.96 311.154 1178.44 312.285 1178.95 312.797 1179.51 312.99 1179.67 313.104 1179.92 313.115 1180.19 313.115 1180.49 312.789 1180.8 312.135 1181.1 311.97 1181.17 311.802 1181.24 311.631 1181.31 308.353 1182.23 305.385 1182.97 302.725 1183.54L302.354 1196.88C302.832 1196.79 303.304 1196.64 303.769 1196.49 305.958 1195.8 309.692 1194.32 314.971 1192.07 315.026 1190.33 315.077 1188.58 315.124 1186.83 315.27 1181.47 315.342 1177.29 315.342 1174.26 315.342 1174.23 315.342 1174.21 315.342 1174.19 315.342 1170.95 315.272 1166.47 315.133 1160.76 315.083 1158.69 315.029 1156.64 314.971 1154.59L314.229 1153.85Z"/>
</g>
<g clip-path="url(#clip_190)">
<path transform="matrix(.73903736,0,0,.7377903,-79.8319,95.93429)" d="M228.144 228.158C229.571 227.975 230.995 227.776 232.418 227.563 238.344 226.684 244.224 225.52 250.038 224.076 250.672 223.918 251.306 223.608 251.94 223.144 252.319 222.865 252.676 222.556 253.007 222.221 258.697 223.025 261.542 224.386 261.542 226.303 261.557 226.729 261.388 227.14 261.077 227.43 260.712 227.77 260.132 227.991 259.337 228.093 258.96 228.139 258.581 228.161 258.202 228.158 256.873 228.158 255.544 228.182 254.216 228.231 251.454 228.329 248.698 228.552 245.956 228.901 246.07 229.023 246.18 229.149 246.284 229.278 246.979 230.115 247.385 231.154 247.441 232.24 247.328 232.863 247.221 233.487 247.12 234.112 246.516 237.792 246.037 245.354 245.866 249.079 248.137 248.784 250.41 248.505 252.685 248.244 254.739 248.008 255.761 247.792 257.819 247.594 258.158 247.425 258.497 247.258 258.838 247.093 260.295 246.389 261.313 245.959 261.89 245.804 262.015 245.767 262.143 245.745 262.273 245.739 269.2 247.038 271.215 248.755 271.215 251.167 271.227 251.525 271.12 251.876 270.91 252.166 270.598 252.58 270.046 252.844 269.255 252.958 268.921 253.004 268.583 253.026 268.246 253.023 263.549 252.776 261.332 252.79 256.628 252.79 254.263 252.793 251.899 252.868 249.538 253.014 241.485 253.502 235.803 254.096 225.574 256.18 223.471 255.314 221.74 254.325 220.379 253.211L220.75 252.469C224.675 251.865 228.602 251.277 232.532 250.706 236.272 250.163 236.556 250.329 240.3 249.821L240.39 232.612C240.39 232.585 240.389 232.558 240.389 232.531 240.384 232.131 240.343 231.757 240.265 231.411 240.157 230.908 239.947 230.433 239.648 230.014 239.134 230.09 238.62 230.173 238.108 230.262 237.219 230.417 236.273 230.6 235.27 230.811 234.252 231.027 233.238 231.256 232.226 231.498 232.206 231.491 232.185 231.484 232.165 231.476 230.884 231.007 229.825 230.488 228.988 229.92 228.547 229.627 228.139 229.285 227.773 228.901L228.144 228.158Z"/>
</g>
<g clip-path="url(#clip_191)">
<path transform="matrix(.7406528,0,0,.7354272,-152.70964,-753.81277)" d="M321.021 1428.03C321.512 1428.05 322.003 1428.09 322.492 1428.14 323.504 1428.26 324.502 1428.47 325.474 1428.78 326.613 1428.65 327.751 1428.52 328.889 1428.38 336.601 1427.44 344.257 1426.09 351.822 1424.32 352.303 1424.15 352.786 1423.98 353.269 1423.81 355.275 1423.11 356.626 1422.69 357.324 1422.53 357.466 1422.5 357.612 1422.47 357.759 1422.47 363.944 1425.25 367.037 1427.1 367.037 1428.03 367.033 1428.26 366.982 1428.48 366.889 1428.69 366.638 1429.27 366.069 1429.92 365.181 1430.63 364.914 1431.38 364.644 1432.14 364.369 1432.89 362.655 1437.57 360.575 1442.76 358.13 1448.44 357.834 1449.28 357.15 1449.91 356.297 1450.15 355.927 1450.25 355.545 1450.3 355.162 1450.3 355.143 1450.3 355.125 1450.3 355.107 1450.3 354.536 1450.28 353.823 1449.9 352.969 1449.17 352.701 1448.94 352.442 1448.69 352.193 1448.44 345.884 1449.06 339.575 1449.93 333.267 1451.04 333.142 1451.71 332.878 1452.15 332.474 1452.36 332.26 1452.48 332.023 1452.53 331.783 1452.53 331.508 1452.53 331.233 1452.51 330.961 1452.47 329.881 1452.33 329.003 1451.9 328.326 1451.17 327.898 1450.7 327.561 1450.15 327.33 1449.56 326.309 1446.5 325.01 1442.46 323.433 1437.45 322.873 1435.67 322.317 1433.89 321.763 1432.11 321.602 1431.81 321.445 1431.51 321.292 1431.2 320.616 1429.85 320.279 1428.91 320.279 1428.4L321.021 1428.03ZM332.525 1447.7C336.013 1446.99 339.508 1446.31 343.008 1445.66 346.187 1445.07 349.373 1444.51 352.564 1443.99 352.941 1442.93 353.309 1441.87 353.667 1440.8 354.434 1438.51 355.11 1436.34 355.695 1434.28 356.18 1432.58 356.62 1430.87 357.017 1429.15 357.02 1428.91 356.993 1428.68 356.938 1428.46 356.735 1427.68 356.143 1427.29 355.162 1427.29 345.76 1428.78 336.607 1430.26 327.701 1431.74L332.525 1447.7Z"/>
</g>
<g clip-path="url(#clip_192)">
<path transform="matrix(.72710898,0,0,.73950389,-42.593439,-581.5298)" d="M297.158 1153.85C297.579 1153.85 298 1153.87 298.419 1153.89 299.118 1153.96 299.812 1154.07 300.498 1154.21 301.677 1153.94 302.851 1153.66 304.021 1153.37 306.459 1152.74 308.873 1152.04 311.26 1151.24 311.627 1151.08 311.995 1150.9 312.365 1150.74 313.449 1150.27 314.27 1149.96 314.829 1149.84 314.997 1149.8 315.169 1149.77 315.342 1149.77 320.29 1151.81 322.764 1153.41 322.764 1154.59 321.774 1156.38 321.279 1157.62 321.279 1158.3 321.277 1164.58 321.215 1170.86 321.094 1177.13 320.963 1183.96 320.777 1190.81 320.537 1197.63 320.17 1200.24 319.614 1201.99 318.869 1202.88 318.565 1203.31 318.085 1203.56 317.568 1203.58 316.713 1203.58 315.981 1202.59 315.371 1200.63 315.219 1200.13 315.086 1199.63 314.971 1199.12V1195.04C313.813 1195.55 312.662 1196.08 311.517 1196.63 309.131 1197.77 307.066 1198.84 305.322 1199.86 305.27 1199.88 305.217 1199.89 305.164 1199.9 304.79 1200.03 304.386 1200.11 303.952 1200.15 303.545 1200.2 303.135 1200.23 302.725 1200.22 302.686 1200.38 302.643 1200.55 302.598 1200.7 302.295 1201.78 301.949 1202.49 301.56 1202.88 301.383 1203.08 301.134 1203.19 300.869 1203.19 300.563 1203.19 300.263 1203.11 300.002 1202.94 299.118 1202.42 298.21 1201.13 297.279 1199.04 296.968 1198.34 296.68 1197.62 296.416 1196.88 296.796 1194.8 297.113 1192.67 297.365 1190.57 297.646 1188.22 297.824 1185.88 297.9 1183.54 298.026 1179.08 298.12 1174.84 298.182 1170.83 298.241 1167.14 298.271 1163.46 298.272 1159.79 298.272 1159.63 298.26 1159.47 298.237 1159.33 298.129 1158.58 297.77 1157.62 297.158 1156.44 296.664 1155.45 296.416 1154.7 296.416 1154.21L297.158 1153.85ZM314.229 1153.85C313.07 1154.15 311.909 1154.46 310.746 1154.78 307.188 1155.7 304.39 1156.38 302.354 1156.82 302.509 1156.95 302.649 1157.12 302.772 1157.29 303.236 1157.92 303.467 1158.76 303.467 1159.79L303.096 1167.58C304.854 1167.04 306.587 1166.41 308.291 1165.71 308.786 1165.47 309.157 1165.11 309.404 1164.61 312.126 1164.97 313.486 1165.71 313.486 1166.84 313.487 1166.91 313.474 1166.98 313.45 1167.07 313.32 1167.46 312.842 1167.81 312.016 1168.1 311.768 1168.17 311.516 1168.26 311.26 1168.32 308.539 1168.93 305.818 1169.67 303.096 1170.55L302.725 1180.57C304.209 1180.14 305.485 1179.77 306.552 1179.41 306.886 1179.31 307.218 1179.19 307.549 1179.08 307.59 1179.07 307.63 1179.05 307.67 1179.04 308.144 1178.84 308.722 1178.47 309.404 1177.96 311.154 1178.44 312.285 1178.95 312.797 1179.51 312.99 1179.67 313.104 1179.92 313.115 1180.19 313.115 1180.49 312.789 1180.8 312.135 1181.1 311.97 1181.17 311.802 1181.24 311.631 1181.31 308.353 1182.23 305.385 1182.97 302.725 1183.54L302.354 1196.88C302.832 1196.79 303.304 1196.64 303.769 1196.49 305.958 1195.8 309.692 1194.32 314.971 1192.07 315.026 1190.33 315.077 1188.58 315.124 1186.83 315.27 1181.47 315.342 1177.29 315.342 1174.26 315.342 1174.23 315.342 1174.21 315.342 1174.19 315.342 1170.95 315.272 1166.47 315.133 1160.76 315.083 1158.69 315.029 1156.64 314.971 1154.59L314.229 1153.85Z"/>
</g>
<g clip-path="url(#clip_193)">
<path transform="matrix(.73808547,0,0,.734684,70.645259,102.01245)" d="M196.08 232.331C197.332 232.71 198.569 233.177 199.788 233.728 202.252 234.829 205.274 236.133 207.475 238.048 209.744 240.522 210.878 243.244 210.878 246.212 210.878 246.3 210.877 246.387 210.875 246.474 210.86 247.246 210.771 247.852 210.609 248.293 210.422 248.861 209.349 249.432 208.908 249.402 208.065 249.415 207.241 249.036 206.564 248.323 206.16 247.893 205.803 247.382 205.504 246.804 204.947 245.745 204.363 244.716 203.751 243.719 202.689 241.983 201.481 240.208 200.126 238.396 198.737 236.548 197.3 234.773 195.819 233.074L196.08 232.331ZM190.06 211.55C191.02 212.571 191.805 213.638 192.416 214.751 192.998 215.788 194.333 216.92 194.616 218.183L194.093 220.409C194.099 220.408 194.106 220.406 194.111 220.404 197.204 219.478 199.796 218.661 203.672 217.859 204.459 217.54 205.189 217.188 205.86 216.803 206.456 216.465 207.037 216.074 207.598 215.632 208.283 215.792 208.965 215.975 209.643 216.18 213.515 217.364 215.452 218.913 215.452 220.827 215.452 221.28 215.106 221.692 214.415 222.062 214.239 222.155 214.061 222.239 213.881 222.312 211.523 222.311 209.166 222.371 206.81 222.493 201.91 222.737 197.911 223.249 193.046 224.12 192.592 225.594 192.101 227.044 191.571 228.466 187.742 239.309 181.253 248.434 172.259 251.999L171.997 251.257C175.626 247.422 178.653 243.407 181.077 239.211 183.461 235.168 185.348 230.584 186.657 225.652 186.1 225.795 185.544 225.945 184.989 226.103 182.596 226.783 179.773 227.711 176.521 228.887 175.098 229.403 173.677 229.932 172.259 230.476 172.258 230.476 172.258 230.476 172.257 230.475 170.164 229.733 168.594 228.744 167.547 227.507L168.07 226.765C174.572 224.971 181.028 223.363 187.442 221.941 187.965 219.962 188.227 218.354 188.227 217.116 188.225 216.626 188.173 216.139 188.072 215.669 187.876 214.721 187.491 213.719 186.918 212.663L187.18 211.55 188.157 210.923C188.29 210.854 189.1 210.743 190.06 211.55Z"/>
</g>
<g clip-path="url(#clip_194)">
<path transform="matrix(.7302467,0,0,.73435279,134.7935,204.24138)" d="M90.573 118.885C91.242 118.985 91.9 119.141 92.542 119.352 93.289 119.596 94 119.938 94.655 120.37 95.726 120.187 96.793 119.986 97.856 119.767 100.912 119.143 100.932 119.354 103.901 118.401 104.597 118.014 105.245 117.676 105.844 117.386 106.183 117.222 106.525 117.066 106.87 116.917 107.7 117.152 108.524 117.41 109.339 117.689 111.719 118.512 113.301 119.334 114.085 120.157 114.429 120.471 114.636 120.906 114.663 121.37 114.661 121.487 114.64 121.604 114.6 121.714 114.443 122.181 113.993 122.795 113.249 123.555 112.986 123.824 112.715 124.085 112.437 124.339 110.705 135.595 109.839 136.13 109.839 141.944 109.823 142.938 110.182 143.902 110.844 144.642 111.2 145.037 111.612 145.378 112.065 145.655 112.526 145.926 113.017 146.14 113.529 146.293 114.068 146.458 114.664 146.581 115.318 146.66 115.963 146.735 116.635 146.939 117.261 146.768 119.086 146.271 117.211 146.828 119.499 146.086 120.417 145.78 120.849 144.703 121.458 143.716 121.728 143.272 121.955 142.803 122.136 142.315 122.571 141.107 123.044 138.729 123.554 135.18 123.709 134.096 123.855 133.011 123.991 131.925L125.104 132.296C125.596 136.542 126.339 140.755 127.331 144.913 127.638 145.229 127.934 145.556 128.217 145.893 128.921 146.732 129.407 147.493 129.677 148.178 129.835 148.555 129.921 148.958 129.929 149.366 129.929 149.807 129.779 150.234 129.504 150.578 128.95 151.299 127.855 151.884 126.218 152.335 125.91 152.413 125.598 152.477 125.284 152.528 123.666 152.801 121.158 152.972 117.76 153.041 116.498 153.066 114.601 152.582 111.323 151.593 110.28 151.266 109.374 150.856 108.605 150.362 107.259 149.541 106.25 148.266 105.757 146.768 105.235 145.072 104.897 142.856 104.742 140.121 104.675 138.875 104.642 137.626 104.644 136.378 104.645 134.914 104.813 134.754 104.933 131.897 105.057 129.005 105.208 126.114 105.386 123.225L104.644 122.483C101.799 122.916 101.335 122.291 98.489 123.095 98.705 123.238 98.698 123.674 98.826 123.898 98.926 124.072 99 124.259 99.046 124.454 98.806 130.831 99.188 128.698 97.698 132.942 96.985 135.056 96.399 136.74 95.14 138.582 93.765 140.514 92.163 142.375 90.456 144.021 86.959 147.395 84.816 148.233 81.863 149.11L81.492 148.368C83.077 146.48 86.066 145.133 87.477 143.112 90.056 139.405 89.287 140.83 90.785 137.225 92.791 132.578 92.376 133.966 92.429 128.905V124.823C92.431 124.519 92.411 124.215 92.371 123.914 92.272 123.19 92.044 122.627 91.687 122.225 91.68 122.217 91.673 122.209 91.665 122.201 90.967 121.412 90.518 120.747 90.32 120.208 90.248 120.023 90.208 119.827 90.202 119.628L90.573 118.885Z"/>
</g>
<g clip-path="url(#clip_195)">
<path transform="matrix(.73879256,0,0,.73617419,227.75188,-351.6737)" d="M64.166 854.737C64.722 854.737 65.217 854.861 65.65 855.108 70.027 854.043 74.36 852.805 78.639 851.397 79.837 848.344 80.769 845.556 81.436 843.033 81.812 841.632 82.117 840.212 82.35 838.78 82.35 838.66 82.344 838.539 82.331 838.419 82.272 837.899 82.078 837.56 81.749 837.401 81.588 837.328 81.412 837.292 81.236 837.296 80.048 837.609 78.865 837.941 77.688 838.293 73.991 839.404 70.346 840.681 66.764 842.12 66.285 842.025 65.809 841.916 65.337 841.792 64.607 841.599 63.937 841.381 63.327 841.137 62.716 840.898 62.128 840.606 61.568 840.265L61.939 839.522C61.99 839.508 62.041 839.493 62.093 839.479 68.586 837.636 74.349 835.672 79.381 833.585 79.683 833.383 79.988 833.186 80.296 832.993 81.278 832.382 82.038 831.992 82.576 831.825 82.742 831.768 82.916 831.736 83.092 831.729 89.276 833.708 92.369 835.564 92.369 837.296 92.369 837.359 92.363 837.422 92.351 837.484 92.229 838.133 91.493 838.937 90.143 839.894 88.34 844.723 86.233 849.433 83.834 853.995 83.668 854.308 83.482 854.609 83.278 854.898 83.002 855.285 82.711 855.605 82.407 855.86 81.878 856.327 81.199 856.588 80.494 856.593 79.814 856.593 79.195 856.222 78.639 855.479 76.377 855.897 74.292 856.393 72.383 856.967 70.978 857.385 69.598 857.879 68.248 858.448 68.324 858.639 68.396 858.832 68.464 859.026 68.632 859.51 68.76 859.974 68.848 860.418 68.939 860.869 68.987 861.328 68.99 861.788 68.988 862.034 68.975 862.279 68.952 862.524 68.839 863.765 68.474 865.661 67.858 868.212 67.626 869.165 67.385 870.117 67.135 871.065 70.693 870.271 74.17 869.153 77.525 867.726 78.885 866.736 79.875 866.241 80.494 866.241 81.299 866.45 82.094 866.7 82.874 866.989 84.372 867.554 85.479 868.195 86.195 868.912 86.802 869.465 87.156 870.244 87.174 871.065 87.174 871.622 86.803 872.117 86.061 872.55 85.784 873.72 85.497 874.887 85.202 876.052 83.222 883.927 80.782 891.679 77.896 899.269 77.741 899.578 77.585 899.887 77.427 900.194 74.819 905.267 72.872 907.804 71.588 907.804 70.934 907.804 70.077 906.906 69.016 905.109 68.748 904.653 68.492 904.191 68.248 903.722 68.19 903.615 68.13 903.509 68.068 903.405 67.238 902.019 65.598 900.196 63.147 897.937 62.265 897.127 61.367 896.334 60.455 895.558L60.826 894.815C64.846 895.805 67.567 896.3 68.99 896.3 68.997 896.3 69.005 896.3 69.013 896.3 70.362 896.291 71.344 895.549 71.959 894.073 73.187 891.104 74.307 888.092 75.318 885.042 76.719 880.805 77.95 876.514 79.01 872.179L78.268 871.437C77.607 871.641 76.95 871.854 76.296 872.077 72.64 873.333 69.082 874.855 65.65 876.632 65.042 877.204 64.455 877.611 63.889 877.852 63.508 878.021 63.098 878.111 62.682 878.116 62.4 878.101 62.139 877.962 61.97 877.736 61.366 877.053 60.861 875.448 60.455 872.921 60.455 872.24 61.073 870.756 62.311 868.468 63.453 866.1 64.219 864.001 64.608 862.172 64.798 861.315 64.899 860.44 64.908 859.562 64.908 859.509 64.905 859.455 64.901 859.402 64.853 858.825 64.553 857.996 64.002 856.916 63.817 856.557 63.625 856.202 63.424 855.851L64.166 854.737Z"/>
</g>
<g clip-path="url(#clip_196)">
<path transform="matrix(.7258531,0,0,.7393722,181.7969,-113.82495)" d="M179.276 530.796C179.64 530.734 180.003 530.67 180.367 530.604 186.173 529.555 189.397 528.506 190.038 527.456 195.975 528.075 198.944 529.436 198.944 531.538 198.944 532.899 197.831 533.641 195.604 533.765 189.79 534.074 183.976 534.569 178.163 535.249 176.508 535.442 174.856 535.66 173.208 535.903 167.844 536.693 161.703 537.835 154.784 539.331 154.443 539.271 154.105 539.2 153.769 539.118 152.14 538.734 150.597 538.051 149.217 537.104L150.702 536.362C153.404 535.791 156.11 535.234 158.819 534.692 161.677 534.121 164.537 533.565 167.401 533.022 167.4 530.94 167.381 528.858 167.342 526.776 167.234 521.185 167.006 515.596 166.659 510.014 166.635 509.897 166.61 509.78 166.583 509.663 166.338 508.613 165.992 507.864 165.545 507.417 165.075 507.115 164.728 506.657 164.564 506.123 164.473 505.821 164.428 505.506 164.432 505.19L165.916 504.448C168.116 504.599 170.221 505.401 171.964 506.751 173.041 507.584 174.002 508.557 174.823 509.643 174.823 510.088 174.759 510.66 174.631 511.36 174.577 511.655 174.517 511.949 174.452 512.241 174.378 512.978 174.312 513.715 174.256 514.452 174.139 515.994 174.081 517.36 174.081 518.55L181.502 516.323C181.634 516.185 181.768 516.048 181.904 515.913 182.601 515.223 183.175 514.78 183.625 514.584 183.774 514.514 183.935 514.475 184.1 514.468 187.233 515.077 189.264 515.809 190.193 516.663 190.544 516.943 190.758 517.359 190.78 517.807 190.786 518.414 190.485 518.983 189.98 519.318 189.553 519.63 188.953 519.869 188.182 520.034 185.983 520.474 183.657 520.978 181.204 521.545 178.699 522.126 176.2 522.736 173.709 523.374L173.338 531.909 179.276 530.796Z"/>
</g>
<g clip-path="url(#clip_197)">
<path transform="matrix(.7454602,0,0,.73435279,229.3508,204.24138)" d="M90.573 118.885C91.242 118.985 91.9 119.141 92.542 119.352 93.289 119.596 94 119.938 94.655 120.37 95.726 120.187 96.793 119.986 97.856 119.767 100.912 119.143 100.932 119.354 103.901 118.401 104.597 118.014 105.245 117.676 105.844 117.386 106.183 117.222 106.525 117.066 106.87 116.917 107.7 117.152 108.524 117.41 109.339 117.689 111.719 118.512 113.301 119.334 114.085 120.157 114.429 120.471 114.636 120.906 114.663 121.37 114.661 121.487 114.64 121.604 114.6 121.714 114.443 122.181 113.993 122.795 113.249 123.555 112.986 123.824 112.715 124.085 112.437 124.339 110.705 135.595 109.839 136.13 109.839 141.944 109.823 142.938 110.182 143.902 110.844 144.642 111.2 145.037 111.612 145.378 112.065 145.655 112.526 145.926 113.017 146.14 113.529 146.293 114.068 146.458 114.664 146.581 115.318 146.66 115.963 146.735 116.635 146.939 117.261 146.768 119.086 146.271 117.211 146.828 119.499 146.086 120.417 145.78 120.849 144.703 121.458 143.716 121.728 143.272 121.955 142.803 122.136 142.315 122.571 141.107 123.044 138.729 123.554 135.18 123.709 134.096 123.855 133.011 123.991 131.925L125.104 132.296C125.596 136.542 126.339 140.755 127.331 144.913 127.638 145.229 127.934 145.556 128.217 145.893 128.921 146.732 129.407 147.493 129.677 148.178 129.835 148.555 129.921 148.958 129.929 149.366 129.929 149.807 129.779 150.234 129.504 150.578 128.95 151.299 127.855 151.884 126.218 152.335 125.91 152.413 125.598 152.477 125.284 152.528 123.666 152.801 121.158 152.972 117.76 153.041 116.498 153.066 114.601 152.582 111.323 151.593 110.28 151.266 109.374 150.856 108.605 150.362 107.259 149.541 106.25 148.266 105.757 146.768 105.235 145.072 104.897 142.856 104.742 140.121 104.675 138.875 104.642 137.626 104.644 136.378 104.645 134.914 104.813 134.754 104.933 131.897 105.057 129.005 105.208 126.114 105.386 123.225L104.644 122.483C101.799 122.916 101.335 122.291 98.489 123.095 98.705 123.238 98.698 123.674 98.826 123.898 98.926 124.072 99 124.259 99.046 124.454 98.806 130.831 99.188 128.698 97.698 132.942 96.985 135.056 96.399 136.74 95.14 138.582 93.765 140.514 92.163 142.375 90.456 144.021 86.959 147.395 84.816 148.233 81.863 149.11L81.492 148.368C83.077 146.48 86.066 145.133 87.477 143.112 90.056 139.405 89.287 140.83 90.785 137.225 92.791 132.578 92.376 133.966 92.429 128.905V124.823C92.431 124.519 92.411 124.215 92.371 123.914 92.272 123.19 92.044 122.627 91.687 122.225 91.68 122.217 91.673 122.209 91.665 122.201 90.967 121.412 90.518 120.747 90.32 120.208 90.248 120.023 90.208 119.827 90.202 119.628L90.573 118.885Z"/>
</g>
<g clip-path="url(#clip_198)">
<path transform="matrix(.74481359,0,0,.74152579,148.61144,-449.4672)" d="M308.507 965.558C311.012 966.562 312.904 967.817 314.184 969.321 315.044 970.289 316.275 972.238 316.593 973.658 316.593 973.77 316.586 973.883 316.57 973.994 316.5 974.616 316.213 975.37 315.733 976.256 315.43 977.179 315.128 978.099 314.818 979.015 313.903 981.715 313.432 983.788 312.494 986.136 311.586 988.431 310.703 991.612 309.741 993.849 309.982 994.124 310.222 994.4 310.463 994.677 313.184 997.813 313.819 998.884 314.819 1000.29 315.029 1000.58 315.23 1000.87 315.417 1001.18 315.804 1001.91 316.176 1002.65 316.533 1003.4 317.409 1005.27 317.999 1006.9 318.317 1008.31 318.48 1009.01 318.573 1009.73 318.58 1010.46 318.58 1012.44 318.007 1013.43 316.859 1013.43 316.727 1013.43 316.603 1013.42 316.479 1013.4 315.572 1013.25 314.354 1012.746 313.478 1011.526 313.121 1011.016 312.795 1010.476 312.501 1009.906 312.082 1009.086 311.64 1008.286 311.19 1007.496 310.415 1006.116 309.66 1004.924 308.706 1003.444 307.729 1001.934 307.389 1001.593 306.365 1000.149 304.318 1004.513 301.844 1009.688 299.285 1013.568 295.958 1018.648 292.997 1021.277 287.501 1024.19L286.927 1023.45C289.719 1019.47 292.293 1015.25 294.643 1010.83 297.535 1005.36 300.007 999.944 302.326 994.043 301.325 992.739 300.325 991.44 299.317 990.147 297.223 987.461 295.527 984.871 293.945 982.942 293.239 982.086 292.533 981.239 291.82 980.402L292.394 979.66C295.465 981.392 299.59 984.484 304.77 988.937 305.631 986.513 306.46 983.892 307.251 981.074 308.027 978.282 308.74 975.459 309.376 972.609 309.376 972.313 309.368 972.017 309.36 971.721 309.329 970.583 309.236 969.89 309.081 969.64 308.787 969.144 308.546 968.649 308.36 968.153 308.135 967.571 307.996 966.944 307.934 966.3L308.507 965.558Z"/>
</g>
<g clip-path="url(#clip_199)">
<path transform="matrix(.73143628,0,0,.736358,350.8573,98.39507)" d="M59.544 237.747C60.886 237.466 62.224 237.162 63.556 236.833 66.072 236.21 68.132 235.587 69.738 234.963 70.44 234.697 71.125 234.387 71.79 234.036 72.049 233.87 72.308 233.702 72.566 233.532 72.812 233.37 73.046 233.214 73.269 233.064 73.519 232.896 73.769 232.725 74.017 232.551 77.727 233.046 79.583 233.788 79.583 234.778 79.583 235.381 78.929 235.902 77.623 236.342 77.291 236.453 76.954 236.55 76.615 236.633 72.718 237.499 68.636 238.613 64.368 239.973 63.828 239.946 63.291 239.871 62.765 239.75 62.211 239.627 61.621 239.454 60.996 239.232 60.378 239.011 59.769 238.763 59.173 238.489L59.544 237.747ZM56.976 224.731C59.504 224.214 62.024 223.653 64.534 223.05 71.139 221.474 77.658 219.558 84.066 217.31 84.204 217.37 84.342 217.43 84.481 217.49 88.373 219.197 90.799 220.637 91.759 221.81 92.033 222.101 92.2 222.478 92.23 222.876 92.226 222.959 92.201 223.038 92.158 223.108 91.988 223.413 91.517 223.83 90.746 224.36L83.48 247.916C83.649 248.028 83.808 248.156 83.954 248.297 84.363 248.678 84.595 249.212 84.594 249.771 84.596 249.937 84.546 250.099 84.452 250.234 84.303 250.45 84.036 250.621 83.651 250.748 83.473 250.806 83.292 250.851 83.109 250.884 76.058 251.627 69.131 253.112 62.328 255.338 60.472 255.276 58.741 254.658 57.133 253.482L57.504 252.74C64.678 251.256 71.482 249.648 77.914 247.916L82.582 223.618C82.584 223.433 82.563 223.248 82.519 223.068 82.402 222.62 82.124 222.333 81.685 222.207 81.493 222.156 81.295 222.131 81.097 222.134 74.912 223.557 68.604 225.165 62.172 226.958 61.632 226.931 61.095 226.856 60.569 226.735 60.014 226.612 59.424 226.439 58.799 226.217 58.181 225.996 57.572 225.748 56.976 225.474V224.731Z"/>
</g>
<g clip-path="url(#clip_200)">
<path transform="matrix(.72495588,0,0,.7337519,94.626567,116.64681)" d="M408.637 268.578C415.248 262.094 418.478 251.703 420.218 241.859L420.292 240.736C420.201 240.486 420.119 240.231 420.045 239.971 419.954 239.654 419.886 239.352 419.838 239.064 419.785 238.76 419.758 238.45 419.755 238.138L420.292 237.396C424.044 238.447 425.847 239.447 425.847 242.602L425.578 243.344C427.176 245.605 428.831 247.786 430.541 249.884 433.203 253.161 436.021 256.183 438.98 258.93 440.719 260.516 442.536 261.934 444.418 263.172 446.739 264.697 449.13 266.007 451.578 267.094V267.836C451.304 267.905 451.03 267.973 450.757 268.039 446.778 269.009 442.752 269.561 438.712 269.691 433.38 261.694 428.284 255.928 423.915 248.074 420.28 257.218 416.199 266.133 408.88 270.623 408.203 271.038 407.458 271.363 407.213 271.431 406.402 271.657 405.719 271.497 405.869 271.312 406.633 270.373 407.038 270.146 408.637 268.578Z"/>
</g>
<g clip-path="url(#clip_201)">
<path transform="matrix(.74481359,0,0,.74152579,261.35725,-449.4672)" d="M308.507 965.558C311.012 966.562 312.904 967.817 314.184 969.321 315.044 970.289 316.275 972.238 316.593 973.658 316.593 973.77 316.586 973.883 316.57 973.994 316.5 974.616 316.213 975.37 315.733 976.256 315.43 977.179 315.128 978.099 314.818 979.015 313.903 981.715 313.432 983.788 312.494 986.136 311.586 988.431 310.703 991.612 309.741 993.849 309.982 994.124 310.222 994.4 310.463 994.677 313.184 997.813 313.819 998.884 314.819 1000.29 315.029 1000.58 315.23 1000.87 315.417 1001.18 315.804 1001.91 316.176 1002.65 316.533 1003.4 317.409 1005.27 317.999 1006.9 318.317 1008.31 318.48 1009.01 318.573 1009.73 318.58 1010.46 318.58 1012.44 318.007 1013.43 316.859 1013.43 316.727 1013.43 316.603 1013.42 316.479 1013.4 315.572 1013.25 314.354 1012.746 313.478 1011.526 313.121 1011.016 312.795 1010.476 312.501 1009.906 312.082 1009.086 311.64 1008.286 311.19 1007.496 310.415 1006.116 309.66 1004.924 308.706 1003.444 307.729 1001.934 307.389 1001.593 306.365 1000.149 304.318 1004.513 301.844 1009.688 299.285 1013.568 295.958 1018.648 292.997 1021.277 287.501 1024.19L286.927 1023.45C289.719 1019.47 292.293 1015.25 294.643 1010.83 297.535 1005.36 300.007 999.944 302.326 994.043 301.325 992.739 300.325 991.44 299.317 990.147 297.223 987.461 295.527 984.871 293.945 982.942 293.239 982.086 292.533 981.239 291.82 980.402L292.394 979.66C295.465 981.392 299.59 984.484 304.77 988.937 305.631 986.513 306.46 983.892 307.251 981.074 308.027 978.282 308.74 975.459 309.376 972.609 309.376 972.313 309.368 972.017 309.36 971.721 309.329 970.583 309.236 969.89 309.081 969.64 308.787 969.144 308.546 968.649 308.36 968.153 308.135 967.571 307.996 966.944 307.934 966.3L308.507 965.558Z"/>
</g>
<g clip-path="url(#clip_202)">
<path transform="matrix(.7523344,0,0,.736358,461.67558,98.39507)" d="M59.544 237.747C60.886 237.466 62.224 237.162 63.556 236.833 66.072 236.21 68.132 235.587 69.738 234.963 70.44 234.697 71.125 234.387 71.79 234.036 72.049 233.87 72.308 233.702 72.566 233.532 72.812 233.37 73.046 233.214 73.269 233.064 73.519 232.896 73.769 232.725 74.017 232.551 77.727 233.046 79.583 233.788 79.583 234.778 79.583 235.381 78.929 235.902 77.623 236.342 77.291 236.453 76.954 236.55 76.615 236.633 72.718 237.499 68.636 238.613 64.368 239.973 63.828 239.946 63.291 239.871 62.765 239.75 62.211 239.627 61.621 239.454 60.996 239.232 60.378 239.011 59.769 238.763 59.173 238.489L59.544 237.747ZM56.976 224.731C59.504 224.214 62.024 223.653 64.534 223.05 71.139 221.474 77.658 219.558 84.066 217.31 84.204 217.37 84.342 217.43 84.481 217.49 88.373 219.197 90.799 220.637 91.759 221.81 92.033 222.101 92.2 222.478 92.23 222.876 92.226 222.959 92.201 223.038 92.158 223.108 91.988 223.413 91.517 223.83 90.746 224.36L83.48 247.916C83.649 248.028 83.808 248.156 83.954 248.297 84.363 248.678 84.595 249.212 84.594 249.771 84.596 249.937 84.546 250.099 84.452 250.234 84.303 250.45 84.036 250.621 83.651 250.748 83.473 250.806 83.292 250.851 83.109 250.884 76.058 251.627 69.131 253.112 62.328 255.338 60.472 255.276 58.741 254.658 57.133 253.482L57.504 252.74C64.678 251.256 71.482 249.648 77.914 247.916L82.582 223.618C82.584 223.433 82.563 223.248 82.519 223.068 82.402 222.62 82.124 222.333 81.685 222.207 81.493 222.156 81.295 222.131 81.097 222.134 74.912 223.557 68.604 225.165 62.172 226.958 61.632 226.931 61.095 226.856 60.569 226.735 60.014 226.612 59.424 226.439 58.799 226.217 58.181 225.996 57.572 225.748 56.976 225.474V224.731Z"/>
</g>
<g clip-path="url(#clip_203)">
<path transform="matrix(.74628397,0,0,.75060448,289.3521,105.87584)" d="M280.818 253.44C283.066 253.034 285.316 252.632 287.567 252.234 294.588 250.993 311.879 249.082 316.2 248.403 317.225 248.17 318.185 247.712 319.012 247.062 319.62 246.585 320.171 246.039 320.653 245.434 321.421 245.535 322.188 245.652 322.952 245.785 326.724 246.442 329.288 247.341 330.644 248.481 331.334 248.984 331.755 249.776 331.786 250.63 331.779 250.881 331.654 251.114 331.45 251.259 330.858 251.739 329.485 252.024 327.333 252.114 327.097 252.121 326.862 252.129 326.627 252.138 319.341 252.392 312.433 252.879 305.902 253.598 299.519 254.284 299.337 253.866 293.049 255.158 294.1 256.271 294.842 257.508 295.275 258.869 294.981 260.778 294.775 264.906 294.656 267.252 294.571 268.957 294.53 270.665 294.533 272.373 294.531 272.682 294.558 272.991 294.616 273.295 294.852 274.507 295.594 275.263 296.844 275.564 297.303 275.668 297.773 275.718 298.244 275.713 303.885 275.736 306.862 275.162 312.301 273.662 312.814 273.523 313.313 273.337 313.792 273.105 315.15 272.451 316.509 271.4 317.868 269.951 325.042 270.631 328.629 272.116 328.629 274.404 328.622 274.904 328.391 275.376 328.001 275.689 327.552 276.086 326.863 276.418 325.935 276.685 325.477 276.813 325.014 276.919 324.547 277.002 318.198 278.13 312.292 278.937 306.828 279.423 302.972 279.776 301.744 279.783 297.873 279.795 297.852 279.795 297.832 279.795 297.812 279.795 291.915 279.776 288.967 277.055 288.967 271.631V258.498C288.967 257.632 288.843 256.766 288.596 255.9 286.122 256.456 287.497 256.099 285.271 256.78 284.732 256.624 284.202 256.437 283.686 256.219 282.499 255.727 281.404 255.038 280.447 254.182L280.818 253.44Z"/>
</g>
</svg>
