<svg xmlns="http://www.w3.org/2000/svg" xmlns:xlink="http://www.w3.org/1999/xlink" xmlns:inkscape="http://www.inkscape.org/namespaces/inkscape" version="1.1" width="594.95999" height="841.92" viewBox="0 0 594.95999 841.92">
<defs>
<clipPath id="clip_174">
<path transform="matrix(.24,0,0,.24,0,0)" d="M118.75 118.75H2362.7442V3390.7716H118.75Z" clip-rule="evenodd"/>
</clipPath>
<clipPath id="clip_175">
<path transform="matrix(.24,0,0,.24,0,0)" d="M326.74189 624.76H363.99418V866.89987H326.74189Z" clip-rule="evenodd"/>
</clipPath>
<clipPath id="clip_176">
<path transform="matrix(.24,0,0,.24,0,0)" d="M370.20289 634.07327H522.31637V851.3782H370.20289Z" clip-rule="evenodd"/>
</clipPath>
<clipPath id="clip_177">
<path transform="matrix(.24,0,0,.24,0,0)" d="M733.4126 618.5513H811.0215V873.1085H733.4126Z" clip-rule="evenodd"/>
</clipPath>
<clipPath id="clip_178">
<path transform="matrix(.24,0,0,.24,0,0)" d="M817.2302 634.07327H969.3437V851.3782H817.2302Z" clip-rule="evenodd"/>
</clipPath>
<clipPath id="clip_179">
<path transform="matrix(.24,0,0,.24,0,0)" d="M1124.5615 618.5513H1202.1704V873.1085H1124.5615Z" clip-rule="evenodd"/>
</clipPath>
<clipPath id="clip_180">
<path transform="matrix(.24,0,0,.24,0,0)" d="M1220.7965 609.2383H1348.0751V683.74288H1220.7965Z" clip-rule="evenodd"/>
</clipPath>
<clipPath id="clip_181">
<path transform="matrix(.24,0,0,.24,0,0)" d="M1208.3792 699.26467H1360.4926V860.69119H1208.3792Z" clip-rule="evenodd"/>
</clipPath>
<clipPath id="clip_182">
<path transform="matrix(.24,0,0,.24,0,0)" d="M1521.9192 618.5513H1599.5281V873.1085H1521.9192Z" clip-rule="evenodd"/>
</clipPath>
<clipPath id="clip_183">
<path transform="matrix(.24,0,0,.24,0,0)" d="M1618.1542 618.5513H1745.4328V736.51687H1618.1542Z" clip-rule="evenodd"/>
</clipPath>
<clipPath id="clip_184">
<path transform="matrix(.24,0,0,.24,0,0)" d="M1608.8412 761.3518H1754.7459V854.4824H1608.8412Z" clip-rule="evenodd"/>
</clipPath>
<clipPath id="clip_185">
<path transform="matrix(.24,0,0,.24,0,0)" d="M1981.3639 618.5513H2055.8685V873.1085H1981.3639Z" clip-rule="evenodd"/>
</clipPath>
<clipPath id="clip_186">
<path transform="matrix(.24,0,0,.24,0,0)" d="M2074.4947 609.2383H2201.7733V683.74288H2074.4947Z" clip-rule="evenodd"/>
</clipPath>
<clipPath id="clip_187">
<path transform="matrix(.24,0,0,.24,0,0)" d="M2062.0772 677.5342H2214.1907V773.7692H2062.0772Z" clip-rule="evenodd"/>
</clipPath>
<clipPath id="clip_188">
<path transform="matrix(.24,0,0,.24,0,0)" d="M2074.4947 786.1865H2204.8778V866.8998H2074.4947Z" clip-rule="evenodd"/>
</clipPath>
<clipPath id="clip_189">
<path transform="matrix(.24,0,0,.24,0,0)" d="M280.17655 1130.77H363.99418V1298.4053H280.17655Z" clip-rule="evenodd"/>
</clipPath>
<clipPath id="clip_190">
<path transform="matrix(.24,0,0,.24,0,0)" d="M367.0985 1093.5181H525.4207V1199.0659H367.0985Z" clip-rule="evenodd"/>
</clipPath>
<clipPath id="clip_191">
<path transform="matrix(.24,0,0,.24,0,0)" d="M373.30726 1230.1094H519.21206V1323.2401H373.30726Z" clip-rule="evenodd"/>
</clipPath>
<clipPath id="clip_192">
<path transform="matrix(.24,0,0,.24,0,0)" d="M727.20388 1130.77H811.0215V1298.4053H727.20388Z" clip-rule="evenodd"/>
</clipPath>
<clipPath id="clip_193">
<path transform="matrix(.24,0,0,.24,0,0)" d="M817.2302 1081.1006H966.2393V1208.3789H817.2302Z" clip-rule="evenodd"/>
</clipPath>
<clipPath id="clip_194">
<path transform="matrix(.24,0,0,.24,0,0)" d="M817.2302 1220.7964H966.2393V1332.5532H817.2302Z" clip-rule="evenodd"/>
</clipPath>
<clipPath id="clip_195">
<path transform="matrix(.24,0,0,.24,0,0)" d="M1133.8745 1096.6221H1233.2139V1332.5532H1133.8745Z" clip-rule="evenodd"/>
</clipPath>
<clipPath id="clip_196">
<path transform="matrix(.24,0,0,.24,0,0)" d="M1208.3792 1090.4136H1360.4926V1199.0659H1208.3792Z" clip-rule="evenodd"/>
</clipPath>
<clipPath id="clip_197">
<path transform="matrix(.24,0,0,.24,0,0)" d="M1208.3792 1220.7964H1360.4926V1332.5532H1208.3792Z" clip-rule="evenodd"/>
</clipPath>
<clipPath id="clip_198">
<path transform="matrix(.24,0,0,.24,0,0)" d="M1500.1886 1121.457H1599.528V1304.6141H1500.1886Z" clip-rule="evenodd"/>
</clipPath>
<clipPath id="clip_199">
<path transform="matrix(.24,0,0,.24,0,0)" d="M1627.4673 1087.3091H1736.1198V1205.2747H1627.4673Z" clip-rule="evenodd"/>
</clipPath>
<clipPath id="clip_200">
<path transform="matrix(.24,0,0,.24,0,0)" d="M1608.8412 1223.9009H1751.6415V1329.449H1608.8412Z" clip-rule="evenodd"/>
</clipPath>
<clipPath id="clip_201">
<path transform="matrix(.24,0,0,.24,0,0)" d="M1959.6334 1121.457H2055.8685V1304.6141H1959.6334Z" clip-rule="evenodd"/>
</clipPath>
<clipPath id="clip_202">
<path transform="matrix(.24,0,0,.24,0,0)" d="M2083.8077 1087.3091H2192.4603V1205.2747H2083.8077Z" clip-rule="evenodd"/>
</clipPath>
<clipPath id="clip_203">
<path transform="matrix(.24,0,0,.24,0,0)" d="M2058.9727 1220.7964H2217.295V1329.4489H2058.9727Z" clip-rule="evenodd"/>
</clipPath>
</defs>
<g clip-path="url(#clip_174)">
<path transform="matrix(.74504557,0,0,.74504557,28.5,-757.5231)" d="M0 1055H723V1789H0Z" fill="#ffffff"/>
<path transform="matrix(.74504557,0,0,.74504557,28.5,-757.5231)" d="M9 1154H167V1208H9Z" fill="#ffffff"/>
<path transform="matrix(.74504557,0,0,.74504557,28.5,-757.5231)" d="M167 1154H297V1208H167Z" fill="#ffffff"/>
<path transform="matrix(.74504557,0,0,.74504557,28.5,-757.5231)" d="M297 1154H420V1208H297Z" fill="#ffffff"/>
<path transform="matrix(.74504557,0,0,.74504557,28.5,-757.5231)" d="M420 1154H552V1208H420Z" fill="#ffffff"/>
<path transform="matrix(.74504557,0,0,.74504557,28.5,-757.5231)" d="M552 1154H715V1208H552Z" fill="#ffffff"/>
<path transform="matrix(.74504557,0,0,.74504557,28.5,-757.5231)" d="M9 1208H167V1305H9Z" fill="#ffffff"/>
<path transform="matrix(.74504557,0,0,.74504557,28.5,-757.5231)" d="M297 1208H420V1305H297Z" fill="#ffffff"/>
<path transform="matrix(.74504557,0,0,.74504557,28.5,-757.5231)" d="M552 1208H715V1305H552Z" fill="#ffffff"/>
<path transform="matrix(.74504557,0,0,.74504557,28.5,-757.5231)" d="M9 1305H167V1359H9Z" fill="#ffffff"/>
<path transform="matrix(.74504557,0,0,.74504557,28.5,-757.5231)" d="M167 1305H297V1359H167Z" fill="#ffffff"/>
<path transform="matrix(.74504557,0,0,.74504557,28.5,-757.5231)" d="M297 1305H420V1359H297Z" fill="#ffffff"/>
<path transform="matrix(.74504557,0,0,.74504557,28.5,-757.5231)" d="M420 1305H552V1359H420Z" fill="#ffffff"/>
<path transform="matrix(.74504557,0,0,.74504557,28.5,-757.5231)" d="M552 1305H715V1359H552Z" fill="#ffffff"/>
<path transform="matrix(.74504557,0,0,.74504557,28.5,-757.5231)" d="M9 1359H167V1456H9Z" fill="#ffffff"/>
<path transform="matrix(.74504557,0,0,.74504557,28.5,-757.5231)" d="M297 1359H420V1456H297Z" fill="#ffffff"/>
<path transform="matrix(.74504557,0,0,.74504557,28.5,-757.5231)" d="M552 1359H715V1456H552Z" fill="#ffffff"/>
<path transform="matrix(.74504557,0,0,.74504557,28.5,-757.5231)" d="M8 1154H9V1209H8Z" fill="#41b8b8"/>
<path transform="matrix(.74504557,0,0,.74504557,28.5,-757.5231)" d="M8 1154H167V1155H8Z" fill="#41b8b8"/>
<path transform="matrix(.74504557,0,0,.74504557,28.5,-757.5231)" d="M166 1154H167V1209H166Z" fill="#41b8b8"/>
<path transform="matrix(.74504557,0,0,.74504557,28.5,-757.5231)" d="M167 1154H297V1155H167Z" fill="#41b8b8"/>
<path transform="matrix(.74504557,0,0,.74504557,28.5,-757.5231)" d="M296 1154H297V1209H296Z" fill="#41b8b8"/>
<path transform="matrix(.74504557,0,0,.74504557,28.5,-757.5231)" d="M297 1154H420V1155H297Z" fill="#41b8b8"/>
<path transform="matrix(.74504557,0,0,.74504557,28.5,-757.5231)" d="M419 1154H420V1209H419Z" fill="#41b8b8"/>
<path transform="matrix(.74504557,0,0,.74504557,28.5,-757.5231)" d="M420 1154H553V1155H420Z" fill="#41b8b8"/>
<path transform="matrix(.74504557,0,0,.74504557,28.5,-757.5231)" d="M552 1154H553V1209H552Z" fill="#41b8b8"/>
<path transform="matrix(.74504557,0,0,.74504557,28.5,-757.5231)" d="M553 1154H715V1155H553Z" fill="#41b8b8"/>
<path transform="matrix(.74504557,0,0,.74504557,28.5,-757.5231)" d="M714 1154H715V1209H714Z" fill="#41b8b8"/>
<path transform="matrix(.74504557,0,0,.74504557,28.5,-757.5231)" d="M8 1209H9V1306H8Z" fill="#41b8b8"/>
<path transform="matrix(.74504557,0,0,.74504557,28.5,-757.5231)" d="M8 1208H167V1209H8Z" fill="#41b8b8"/>
<path transform="matrix(.74504557,0,0,.74504557,28.5,-757.5231)" d="M166 1209H167V1306H166Z" fill="#41b8b8"/>
<path transform="matrix(.74504557,0,0,.74504557,28.5,-757.5231)" d="M167 1208H297V1209H167Z" fill="#41b8b8"/>
<path transform="matrix(.74504557,0,0,.74504557,28.5,-757.5231)" d="M296 1209H297V1306H296Z" fill="#41b8b8"/>
<path transform="matrix(.74504557,0,0,.74504557,28.5,-757.5231)" d="M297 1208H420V1209H297Z" fill="#41b8b8"/>
<path transform="matrix(.74504557,0,0,.74504557,28.5,-757.5231)" d="M419 1209H420V1306H419Z" fill="#41b8b8"/>
<path transform="matrix(.74504557,0,0,.74504557,28.5,-757.5231)" d="M420 1208H553V1209H420Z" fill="#41b8b8"/>
<path transform="matrix(.74504557,0,0,.74504557,28.5,-757.5231)" d="M552 1209H553V1306H552Z" fill="#41b8b8"/>
<path transform="matrix(.74504557,0,0,.74504557,28.5,-757.5231)" d="M553 1208H715V1209H553Z" fill="#41b8b8"/>
<path transform="matrix(.74504557,0,0,.74504557,28.5,-757.5231)" d="M714 1209H715V1306H714Z" fill="#41b8b8"/>
<path transform="matrix(.74504557,0,0,.74504557,28.5,-757.5231)" d="M8 1306H9V1360H8Z" fill="#41b8b8"/>
<path transform="matrix(.74504557,0,0,.74504557,28.5,-757.5231)" d="M8 1305H167V1306H8Z" fill="#41b8b8"/>
<path transform="matrix(.74504557,0,0,.74504557,28.5,-757.5231)" d="M166 1306H167V1360H166Z" fill="#41b8b8"/>
<path transform="matrix(.74504557,0,0,.74504557,28.5,-757.5231)" d="M167 1305H297V1306H167Z" fill="#41b8b8"/>
<path transform="matrix(.74504557,0,0,.74504557,28.5,-757.5231)" d="M296 1306H297V1360H296Z" fill="#41b8b8"/>
<path transform="matrix(.74504557,0,0,.74504557,28.5,-757.5231)" d="M297 1305H420V1306H297Z" fill="#41b8b8"/>
<path transform="matrix(.74504557,0,0,.74504557,28.5,-757.5231)" d="M419 1306H420V1360H419Z" fill="#41b8b8"/>
<path transform="matrix(.74504557,0,0,.74504557,28.5,-757.5231)" d="M420 1305H553V1306H420Z" fill="#41b8b8"/>
<path transform="matrix(.74504557,0,0,.74504557,28.5,-757.5231)" d="M552 1306H553V1360H552Z" fill="#41b8b8"/>
<path transform="matrix(.74504557,0,0,.74504557,28.5,-757.5231)" d="M553 1305H715V1306H553Z" fill="#41b8b8"/>
<path transform="matrix(.74504557,0,0,.74504557,28.5,-757.5231)" d="M714 1306H715V1360H714Z" fill="#41b8b8"/>
<path transform="matrix(.74504557,0,0,.74504557,28.5,-757.5231)" d="M8 1360H9V1457H8Z" fill="#41b8b8"/>
<path transform="matrix(.74504557,0,0,.74504557,28.5,-757.5231)" d="M8 1359H167V1360H8Z" fill="#41b8b8"/>
<path transform="matrix(.74504557,0,0,.74504557,28.5,-757.5231)" d="M166 1360H167V1457H166Z" fill="#41b8b8"/>
<path transform="matrix(.74504557,0,0,.74504557,28.5,-757.5231)" d="M167 1359H297V1360H167Z" fill="#41b8b8"/>
<path transform="matrix(.74504557,0,0,.74504557,28.5,-757.5231)" d="M296 1360H297V1457H296Z" fill="#41b8b8"/>
<path transform="matrix(.74504557,0,0,.74504557,28.5,-757.5231)" d="M297 1359H420V1360H297Z" fill="#41b8b8"/>
<path transform="matrix(.74504557,0,0,.74504557,28.5,-757.5231)" d="M419 1360H420V1457H419Z" fill="#41b8b8"/>
<path transform="matrix(.74504557,0,0,.74504557,28.5,-757.5231)" d="M420 1359H553V1360H420Z" fill="#41b8b8"/>
<path transform="matrix(.74504557,0,0,.74504557,28.5,-757.5231)" d="M552 1360H553V1457H552Z" fill="#41b8b8"/>
<path transform="matrix(.74504557,0,0,.74504557,28.5,-757.5231)" d="M553 1359H715V1360H553Z" fill="#41b8b8"/>
<path transform="matrix(.74504557,0,0,.74504557,28.5,-757.5231)" d="M714 1360H715V1457H714Z" fill="#41b8b8"/>
<path transform="matrix(.74504557,0,0,.74504557,28.5,-757.5231)" d="M8 1456H167V1457H8Z" fill="#41b8b8"/>
<path transform="matrix(.74504557,0,0,.74504557,28.5,-757.5231)" d="M167 1456H297V1457H167Z" fill="#41b8b8"/>
<path transform="matrix(.74504557,0,0,.74504557,28.5,-757.5231)" d="M297 1456H420V1457H297Z" fill="#41b8b8"/>
<path transform="matrix(.74504557,0,0,.74504557,28.5,-757.5231)" d="M420 1456H553V1457H420Z" fill="#41b8b8"/>
<path transform="matrix(.74504557,0,0,.74504557,28.5,-757.5231)" d="M553 1456H715V1457H553Z" fill="#41b8b8"/>
<text fill="#7f7f7f" xml:space="preserve" transform="matrix(.74504557 0 0 .74504557 28.5 -757.5231)" font-size="32" font-family="SegoeUI" font-weight="bold"><tspan y="1118" x="14.390625 37.142625 56.406625 73.71863 93.558628 102.390628 120.278629 129.36663 138.19863 150.64662">Gh&#x00e9;p k&#x00ed; t&#x1ef1;</tspan></text>
<text xml:space="preserve" transform="matrix(.74504557 0 0 .74504557 28.5 -757.5231)" font-size="32" font-family="SegoeUI" font-weight="bold"><tspan y="1195" x="79.03125">a</tspan></text>
<text xml:space="preserve" transform="matrix(.74504557 0 0 .74504557 28.5 -757.5231)" font-size="32" font-family="SegoeUI" font-weight="bold"><tspan y="1195" x="212.95313 233.17713">&#x0111;a</tspan></text>
<text xml:space="preserve" transform="matrix(.74504557 0 0 .74504557 28.5 -757.5231)" font-size="32" font-family="SegoeUI" font-weight="bold"><tspan y="1195" x="339.375 359.599">&#x0111;&#x00e1;</tspan></text>
<text xml:space="preserve" transform="matrix(.74504557 0 0 .74504557 28.5 -757.5231)" font-size="32" font-family="SegoeUI" font-weight="bold"><tspan y="1195" x="457.45314 477.67713 494.89314">&#x0111;an</tspan></text>
<text xml:space="preserve" transform="matrix(.74504557 0 0 .74504557 28.5 -757.5231)" font-size="32" font-family="SegoeUI" font-weight="bold"><tspan y="1195" x="604.8906 625.1146 642.3306">&#x0111;&#x00e1;n</tspan></text>
<text xml:space="preserve" transform="matrix(.74504557 0 0 .74504557 28.5 -757.5231)" font-size="32" font-family="SegoeUI" font-weight="bold"><tspan y="1346" x="41.265626 61.073625 80.433628 97.34375 114.65575">quy&#x00ea;n</tspan></text>
<text xml:space="preserve" transform="matrix(.74504557 0 0 .74504557 28.5 -757.5231)" font-size="32" font-family="SegoeUI" font-weight="bold"><tspan y="1346" x="194.64063 214.44863 233.80863 253.36063">qu&#x1ed1;c</tspan></text>
<text xml:space="preserve" transform="matrix(.74504557 0 0 .74504557 28.5 -757.5231)" font-size="32" font-family="SegoeUI" font-weight="bold"><tspan y="1346" x="323.28126 338.64125 358.00123 377.55323">cu&#x1ed1;c</tspan></text>
<text xml:space="preserve" transform="matrix(.74504557 0 0 .74504557 28.5 -757.5231)" font-size="32" font-family="SegoeUI" font-weight="bold"><tspan y="1346" x="447.92189 465.04689 484.59889 503.95887">xong</tspan></text>
<text xml:space="preserve" transform="matrix(.74504557 0 0 .74504557 28.5 -757.5231)" font-size="32" font-family="SegoeUI" font-weight="bold"><tspan y="1346" x="585.59378 602.71878 622.27078 641.82278 661.18276">xoong</tspan></text>
<text fill="#7f7f7f" xml:space="preserve" transform="matrix(.74504557 0 0 .74504557 28.5 -757.5231)" font-size="32" font-family="SegoeUI" font-weight="bold"><tspan y="1519" x="14.390625 34.358629 53.622629 72.98263 81.81463">Ch&#x00fa; &#x00fd;</tspan></text>
<path transform="matrix(.74504557,0,0,.74504557,28.5,-757.5231)" d="M36 1567C35.999998 1567.3977 35.923875 1567.7803 35.771635 1568.1478 35.619394 1568.5154 35.402624 1568.8399 35.121316 1569.1212 34.840009 1569.4026 34.515588 1569.6193 34.148046 1569.7715 33.780508 1569.9237 33.397825 1569.9999 33 1570 32.602174 1569.9999 32.21949 1569.9237 31.851946 1569.7715 31.484404 1569.6193 31.15998 1569.4026 30.878678 1569.1212 30.597373 1568.8399 30.380599 1568.5154 30.228358 1568.1478 30.076117 1567.7803 29.999999 1567.3977 30 1567 29.999999 1566.6022 30.076117 1566.2195 30.228358 1565.8519 30.380599 1565.4843 30.597373 1565.1598 30.878678 1564.8787 31.15998 1564.5973 31.484404 1564.3805 31.851946 1564.2283 32.21949 1564.076 32.602174 1564 33 1564 33.397825 1564 33.780508 1564.0762 34.148046 1564.2284 34.515588 1564.3805 34.840009 1564.5973 35.121316 1564.8787 35.402624 1565.1598 35.619394 1565.4843 35.771635 1565.8518 35.923875 1566.2194 35.999998 1566.6022 36 1567Z"/>
<text xml:space="preserve" transform="matrix(.74504557 0 0 .74504557 28.5 -757.5231)" font-size="16" font-family="SegoeUI"><tspan y="1572" x="48 57.936 66.08 75.136 79.520008 88.928 97.072 102.496 106.880008 116.30401 124.448009 133.50402 137.88802 147.29602 155.44002 164.49602 173.92002 178.30402 181.98401 189.72801 193.408 197.792 203.216 212.272 216.144 220.528 227.92 236.976 246.032 253.776 262.144 271.2 275.584 281.00804 290.06404 298.20805 307.26405 316.32005 320.70405 324.38404 328.25605">V&#x1ea7;n b&#x1eaf;t &#x0111;&#x1ea7;u b&#x1eb1;ng 'y' th&#x00ec; chuy&#x1ec3;n th&#x00e0;nh 'i'</tspan></text>
<path transform="matrix(.74504557,0,0,.74504557,28.5,-757.5231)" d="M36 1588C35.999998 1588.3977 35.923875 1588.7803 35.771635 1589.1477 35.619394 1589.5153 35.402624 1589.8399 35.121316 1590.1212 34.840009 1590.4025 34.515588 1590.6193 34.148046 1590.7715 33.780508 1590.9237 33.397825 1590.9999 33 1591 32.602174 1590.9999 32.21949 1590.9237 31.851946 1590.7715 31.484404 1590.6193 31.15998 1590.4025 30.878678 1590.1212 30.597373 1589.8399 30.380599 1589.5154 30.228358 1589.1478 30.076117 1588.7803 29.999999 1588.3977 30 1588 29.999999 1587.602 30.076117 1587.2194 30.228358 1586.8518 30.380599 1586.4843 30.597373 1586.1598 30.878678 1585.8786 31.15998 1585.5972 31.484404 1585.3804 31.851946 1585.2282 32.21949 1585.076 32.602174 1585 33 1585 33.397825 1585 33.780508 1585.076 34.148046 1585.2282 34.515588 1585.3804 34.840009 1585.5972 35.121316 1585.8786 35.402624 1586.1598 35.619394 1586.4843 35.771635 1586.8518 35.923875 1587.2194 35.999998 1587.602 36 1588Z"/>
<text xml:space="preserve" transform="matrix(.74504557 0 0 .74504557 28.5 -757.5231)" font-size="16" font-family="SegoeUI"><tspan y="1593" x="48 59.968004 69.024 78.432 87.488 96.912 101.296009 108.688 117.744 127.152 131.536 138.928 148.304 152.688 162.09601 171.15201 180.20801 184.59201 192.73601 206.51201 210.89601 214.576 224 233.056 236.736 241.12 246.54399 255.59999 259.472 263.856 267.53599 276.96 286.016 289.69599 294.08 303.504 312.912 322.464 329.856 334.24 341.632 351.008 354.88 359.264 363.13603 371.28004 375.66404 385.07203 394.12803 403.18403 407.56803 415.71205 429.48805 432.96003 437.34403 446.752 455.808 463.95204 473.00804 477.39204 484.78404 494.16004 503.21604 507.60005 511.47206 519.616 523.48806 527.872 531.744 539.888 544.272 551.936 560.07998 569.136">Nh&#x1eef;ng ch&#x1eef; c&#x00f3; ph&#x1ee5; &#x00e2;m 'qu' th&#x00ec; 'qu' &#x0111;&#x01b0;&#x1ee3;c coi l&#x00e0; ph&#x1ee5; &#x00e2;m, ph&#x1ea7;n c&#x00f2;n l&#x1ea1;i l&#x00e0; v&#x1ea7;n.</tspan></text>
<path transform="matrix(.74504557,0,0,.74504557,28.5,-757.5231)" stroke-width="1" stroke-linecap="butt" stroke-miterlimit="4" stroke-linejoin="miter" fill="none" stroke="#000000" d="M76 1609C75.99999 1609.3976 75.923877 1609.7802 75.77163 1610.1477 75.619388 1610.5153 75.40262 1610.8397 75.121318 1611.1211 74.84001 1611.4022 74.51559 1611.619 74.14804 1611.7713 73.780498 1611.9235 73.39782 1611.9998 73 1612 72.602169 1611.9998 72.21948 1611.9235 71.851947 1611.7713 71.4844 1611.619 71.15998 1611.4022 70.87868 1611.1211 70.59737 1610.8397 70.38059 1610.5153 70.228359 1610.1477 70.07611 1609.7802 69.99999 1609.3976 70 1609 69.99999 1608.602 70.07611 1608.2194 70.228359 1607.8518 70.38059 1607.4843 70.59737 1607.1599 70.87868 1606.8787 71.15998 1606.5973 71.4844 1606.3805 71.851947 1606.2283 72.21948 1606.076 72.602169 1606 73 1606 73.39782 1606 73.780498 1606.076 74.14804 1606.2283 74.51559 1606.3805 74.84001 1606.5973 75.121318 1606.8787 75.40262 1607.1599 75.619388 1607.4843 75.77163 1607.8518 75.923877 1608.2194 75.99999 1608.602 76 1609Z"/>
<text xml:space="preserve" transform="matrix(.74504557 0 0 .74504557 28.5 -757.5231)" font-size="16" font-family="SegoeUI" font-weight="bold"><tspan y="1614" x="88 97.904 107.584 116.03906 124.69506 134.37506 138.79106 150.10306 154.51906 164.42307 174.10306 178.51906 189.83106 194.24706 198.79106 207.44707 211.86307 223.17507 227.59107">quy&#x00ea;n = qu + i&#x00ea; + n</tspan></text>
<path transform="matrix(.74504557,0,0,.74504557,28.5,-757.5231)" d="M36 1630C35.999998 1630.3978 35.923875 1630.7804 35.771635 1631.148 35.619394 1631.5154 35.402624 1631.8399 35.121316 1632.1212 34.840009 1632.4025 34.515588 1632.6193 34.148046 1632.7715 33.780508 1632.9237 33.397825 1632.9999 33 1633 32.602174 1632.9999 32.21949 1632.9237 31.851946 1632.7715 31.484404 1632.6193 31.15998 1632.4025 30.878678 1632.1212 30.597373 1631.8399 30.380599 1631.5154 30.228358 1631.148 30.076117 1630.7804 29.999999 1630.3978 30 1630 29.999999 1629.6022 30.076117 1629.2194 30.228358 1628.8518 30.380599 1628.4843 30.597373 1628.1599 30.878678 1627.8787 31.15998 1627.5973 31.484404 1627.3805 31.851946 1627.2282 32.21949 1627.076 32.602174 1627 33 1627 33.397825 1627 33.780508 1627.076 34.148046 1627.2282 34.515588 1627.3805 34.840009 1627.5973 35.121316 1627.8787 35.402624 1628.1599 35.619394 1628.4843 35.771635 1628.8518 35.923875 1629.2194 35.999998 1629.6022 36 1630Z"/>
<text xml:space="preserve" transform="matrix(.74504557 0 0 .74504557 28.5 -757.5231)" font-size="16" font-family="SegoeUI"><tspan y="1635" x="48 59.968004 69.024 78.432 87.488 96.912 101.296009 108.688 117.744 127.152 131.536 139.48799 147.85599 153.27999 157.66399 163.08798 172.14398 181.19998 188.59198 192.97599 202.38399 210.52799 219.58399 229.00798 233.39199 242.79999 251.85599 260.912 265.296 273.44 287.216 291.6 298.992 308.048 317.424 321.29603 325.68003 330.51203 337.90403 341.37605 345.76005 353.15205 362.20805 365.68006 370.06407 379.47206 382.94404 387.32804 392.75205 397.58406 401.96806 415.74406 423.88807 428.27207 435.66407 445.04008 449.42408 458.84809 466.9921 476.0481 480.4321 487.2161 495.3601 502.7521 507.1361 512.5601 521.61618 525.48818 529.87216 537.82418 547.20016 551.5841 558.97616 567.1201 576.17617 580.5601 588.2241 592.0961 600.4641 605.8881 610.2721 619.6961 627.8401 636.8961 641.2801 646.7041 655.76016 663.9041 672.96017">Nh&#x1eef;ng ch&#x1eef; k&#x1ebf;t th&#x00fa;c b&#x1eb1;ng ph&#x1ee5; &#x00e2;m cu&#x1ed1;i (c, ch, p, t) m&#x00e0; c&#x00f3; d&#x1ea5;u s&#x1eaf;c th&#x00ec; ko c&#x1ea7;n vi&#x1ebf;t d&#x1ea5;u thanh</tspan></text>
<path transform="matrix(.74504557,0,0,.74504557,28.5,-757.5231)" stroke-width="1" stroke-linecap="butt" stroke-miterlimit="4" stroke-linejoin="miter" fill="none" stroke="#000000" d="M76 1651C75.99999 1651.3977 75.923877 1651.7803 75.77163 1652.1478 75.619388 1652.5154 75.40262 1652.8399 75.121318 1653.1212 74.84001 1653.4025 74.51559 1653.6193 74.14804 1653.7715 73.780498 1653.9237 73.39782 1653.9999 73 1654 72.602169 1653.9999 72.21948 1653.9237 71.851947 1653.7714 71.4844 1653.6192 71.15998 1653.4025 70.87868 1653.1212 70.59737 1652.8399 70.38059 1652.5154 70.228359 1652.1478 70.07611 1651.7803 69.99999 1651.3977 70 1651 69.99999 1650.6022 70.07611 1650.2195 70.228359 1649.8519 70.38059 1649.4843 70.59737 1649.1598 70.87868 1648.8787 71.15998 1648.5973 71.4844 1648.3804 71.851947 1648.2282 72.21948 1648.076 72.602169 1648 73 1648 73.39782 1648 73.780498 1648.076 74.14804 1648.2282 74.51559 1648.3804 74.84001 1648.5973 75.121318 1648.8787 75.40262 1649.1598 75.619388 1649.4843 75.77163 1649.8518 75.923877 1650.2194 75.99999 1650.6022 76 1651Z"/>
<text xml:space="preserve" transform="matrix(.74504557 0 0 .74504557 28.5 -757.5231)" font-size="16" font-family="SegoeUI" font-weight="bold"><tspan y="1656" x="88 97.904 107.584 117.36 125.04 129.456 140.76799 145.18399 155.088 164.768 169.184 180.496 184.912 194.688 199.104 210.416 214.832">qu&#x1ed1;c = qu + &#x00f4; + c</tspan></text>
<path transform="matrix(.74504557,0,0,.74504557,28.5,-757.5231)" d="M36 1672C35.999998 1672.3977 35.923875 1672.7803 35.771635 1673.1478 35.619394 1673.5154 35.402624 1673.8399 35.121316 1674.1212 34.840009 1674.4025 34.515588 1674.6193 34.148046 1674.7715 33.780508 1674.9237 33.397825 1674.9999 33 1675 32.602174 1674.9999 32.21949 1674.9236 31.851946 1674.7714 31.484404 1674.6192 31.15998 1674.4025 30.878678 1674.1212 30.597373 1673.8399 30.380599 1673.5155 30.228358 1673.148 30.076117 1672.7804 29.999999 1672.3977 30 1672 29.999999 1671.6022 30.076117 1671.2194 30.228358 1670.8518 30.380599 1670.4843 30.597373 1670.1598 30.878678 1669.8786 31.15998 1669.5972 31.484404 1669.3805 31.851946 1669.2283 32.21949 1669.076 32.602174 1669 33 1669 33.397825 1669 33.780508 1669.076 34.148046 1669.2283 34.515588 1669.3805 34.840009 1669.5972 35.121316 1669.8786 35.402624 1670.1598 35.619394 1670.4843 35.771635 1670.8518 35.923875 1671.2194 35.999998 1671.6022 36 1672Z"/>
<text xml:space="preserve" transform="matrix(.74504557 0 0 .74504557 28.5 -757.5231)" font-size="16" font-family="SegoeUI"><tspan y="1677" x="48 56.384004 65.44 73.584 81.328 85.712009 95.13601 104.51201 108.38401 112.76801 120.432018 128.57602">Thay &#x0111;&#x1ed5;i v&#x1ea7;n</tspan></text>
<path transform="matrix(.74504557,0,0,.74504557,28.5,-757.5231)" stroke-width="1" stroke-linecap="butt" stroke-miterlimit="4" stroke-linejoin="miter" fill="none" stroke="#000000" d="M76 1693C75.99999 1693.3976 75.923877 1693.7802 75.77163 1694.1477 75.619388 1694.5153 75.40262 1694.8397 75.121318 1695.1211 74.84001 1695.4022 74.51559 1695.619 74.14804 1695.7713 73.780498 1695.9236 73.39782 1695.9999 73 1696 72.602169 1695.9999 72.21948 1695.9236 71.851947 1695.7713 71.4844 1695.619 71.15998 1695.4022 70.87868 1695.1211 70.59737 1694.8397 70.38059 1694.5153 70.228359 1694.1477 70.07611 1693.7802 69.99999 1693.3976 70 1693 69.99999 1692.602 70.07611 1692.2192 70.228359 1691.8517 70.38059 1691.4841 70.59737 1691.1597 70.87868 1690.8786 71.15998 1690.5972 71.4844 1690.3804 71.851947 1690.2282 72.21948 1690.076 72.602169 1690 73 1690 73.39782 1690 73.780498 1690.076 74.14804 1690.2282 74.51559 1690.3804 74.84001 1690.5972 75.121318 1690.8786 75.40262 1691.1597 75.619388 1691.4841 75.77163 1691.8517 75.923877 1692.2192 75.99999 1692.602 76 1693Z"/>
<text xml:space="preserve" transform="matrix(.74504557 0 0 .74504557 28.5 -757.5231)" font-size="16" font-family="SegoeUI" font-weight="bold"><tspan y="1698" x="88 97.776 107.456 117.36 121.776 126.192 130.608 135.024 148.832 153.248 163.024 172.70401 182.33602 186.75202 192.65602 201.21875 210.99475 220.67475 230.57875 234.99475 248.80275 253.21875 261.78126 271.55726 281.23725 290.86924">ong &#x00a0;&#x00a0;&#x00a0;&#x2192; onh (xong &#x2192; xonh)</tspan></text>
<path transform="matrix(.74504557,0,0,.74504557,28.5,-757.5231)" stroke-width="1" stroke-linecap="butt" stroke-miterlimit="4" stroke-linejoin="miter" fill="none" stroke="#000000" d="M76 1714C75.99999 1714.3977 75.923877 1714.7803 75.77163 1715.1478 75.619388 1715.5154 75.40262 1715.8399 75.121318 1716.1212 74.84001 1716.4025 74.51559 1716.6193 74.14804 1716.7715 73.780498 1716.9237 73.39782 1716.9999 73 1717 72.602169 1716.9999 72.21948 1716.9237 71.851947 1716.7715 71.4844 1716.6193 71.15998 1716.4025 70.87868 1716.1212 70.59737 1715.8399 70.38059 1715.5154 70.228359 1715.1478 70.07611 1714.7803 69.99999 1714.3977 70 1714 69.99999 1713.602 70.07611 1713.2194 70.228359 1712.8518 70.38059 1712.4843 70.59737 1712.1599 70.87868 1711.8787 71.15998 1711.5973 71.4844 1711.3805 71.851947 1711.2283 72.21948 1711.076 72.602169 1711 73 1711 73.39782 1711 73.780498 1711.076 74.14804 1711.2283 74.51559 1711.3805 74.84001 1711.5973 75.121318 1711.8787 75.40262 1712.1599 75.619388 1712.4843 75.77163 1712.8518 75.923877 1713.2194 75.99999 1713.602 76 1714Z"/>
<text xml:space="preserve" transform="matrix(.74504557 0 0 .74504557 28.5 -757.5231)" font-size="16" font-family="SegoeUI" font-weight="bold"><tspan y="1719" x="88 97.776 107.552 117.232 127.136 131.552 135.968 149.776 154.192 163.968 173.64801 183.55202 187.96802 193.87203 202.44532 212.22132 221.99732 231.6773 241.58132 245.99732 259.80534 264.2213 272.78907 282.56507 292.24507 302.14906">oong &#x00a0;&#x2192; ong (xoong &#x2192; xong)</tspan></text>
<path transform="matrix(.74504557,0,0,.74504557,28.5,-757.5231)" stroke-width="1" stroke-linecap="butt" stroke-miterlimit="4" stroke-linejoin="miter" fill="none" stroke="#000000" d="M76 1735C75.99999 1735.3978 75.923877 1735.7804 75.77163 1736.1478 75.619388 1736.5154 75.40262 1736.8399 75.121318 1737.1212 74.84001 1737.4024 74.51559 1737.6192 74.14804 1737.7715 73.780498 1737.9237 73.39782 1737.9999 73 1738 72.602169 1737.9999 72.21948 1737.9237 71.851947 1737.7715 71.4844 1737.6192 71.15998 1737.4024 70.87868 1737.1212 70.59737 1736.8399 70.38059 1736.5154 70.228359 1736.1478 70.07611 1735.7804 69.99999 1735.3978 70 1735 69.99999 1734.602 70.07611 1734.2192 70.228359 1733.8517 70.38059 1733.4843 70.59737 1733.1599 70.87868 1732.8786 71.15998 1732.5972 71.4844 1732.3804 71.851947 1732.2282 72.21948 1732.076 72.602169 1732 73 1732 73.39782 1732 73.780498 1732.076 74.14804 1732.2282 74.51559 1732.3804 74.84001 1732.5972 75.121318 1732.8786 75.40262 1733.1599 75.619388 1733.4843 75.77163 1733.8517 75.923877 1734.2192 75.99999 1734.602 76 1735Z"/>
<text xml:space="preserve" transform="matrix(.74504557 0 0 .74504557 28.5 -757.5231)" font-size="16" font-family="SegoeUI" font-weight="bold"><tspan y="1740" x="88 97.776 106.432 116.208 120.624 125.04 129.456 133.872 147.68 152.096 160.752 170.528 174.944 180.848 190.52802 200.43202 210.20803 218.86403 228.64003 233.05603 246.86403 251.28003 260.96003 270.864 280.496 289.152 298.928">oeo &#x00a0;&#x00a0;&#x00a0;&#x2192; eo (ngo&#x00e8;o &#x2192; ngh&#x00e8;o)</tspan></text>
<path transform="matrix(.74504557,0,0,.74504557,28.5,-757.5231)" stroke-width="1" stroke-linecap="butt" stroke-miterlimit="4" stroke-linejoin="miter" fill="none" stroke="#000000" d="M76 1756C75.99999 1756.3977 75.923877 1756.7803 75.77163 1757.1478 75.619388 1757.5154 75.40262 1757.8399 75.121318 1758.1212 74.84001 1758.4024 74.51559 1758.6192 74.14804 1758.7714 73.780498 1758.9236 73.39782 1758.9999 73 1759 72.602169 1758.9999 72.21948 1758.9236 71.851947 1758.7714 71.4844 1758.6192 71.15998 1758.4024 70.87868 1758.1212 70.59737 1757.8399 70.38059 1757.5154 70.228359 1757.1478 70.07611 1756.7803 69.99999 1756.3977 70 1756 69.99999 1755.602 70.07611 1755.2192 70.228359 1754.8517 70.38059 1754.4841 70.59737 1754.1598 70.87868 1753.8786 71.15998 1753.5972 71.4844 1753.3805 71.851947 1753.2283 72.21948 1753.076 72.602169 1753 73 1753 73.39782 1753 73.780498 1753.076 74.14804 1753.2283 74.51559 1753.3805 74.84001 1753.5972 75.121318 1753.8786 75.40262 1754.1598 75.619388 1754.4841 75.77163 1754.8517 75.923877 1755.2192 75.99999 1755.602 76 1756Z"/>
<text xml:space="preserve" transform="matrix(.74504557 0 0 .74504557 28.5 -757.5231)" font-size="16" font-family="SegoeUI" font-weight="bold"><tspan y="1761" x="88 97.625 106.233 116.009 120.425 124.841 129.257 133.673 147.481 151.897 160.505 170.281 174.697 180.60102 190.281 200.18502 209.8125 218.4205 228.1965 232.6125 246.4205 250.8365 260.5165 270.4205 279.0285 288.8045">oao &#x00a0;&#x00a0;&#x00a0;&#x2192; ao (ngo&#x00e0;o &#x2192; ng&#x00e0;o)</tspan></text>
</g>
<g clip-path="url(#clip_175)">
<path transform="matrix(.792749,0,0,.7457148,31.04769,-343.52244)" d="M67.919 733.355C67.888 733.781 67.849 734.206 67.801 734.63 67.563 736.724 67.151 738.165 66.566 738.952 66.295 739.382 65.829 739.649 65.321 739.664 63.59 739.664 61.858 736.696 60.126 730.758 60.481 729.339 60.821 727.917 61.146 726.49 61.441 725.195 61.72 723.897 61.981 722.594 61.981 722.594 62.655 676.173 62.515 671.789 62.472 670.417 62.418 669.044 62.352 667.672 62.182 666.779 61.954 666.091 61.667 665.607 61.554 665.408 61.409 665.228 61.239 665.074 61.036 664.855 60.847 664.624 60.672 664.381 60.253 663.808 59.942 663.162 59.755 662.476L60.497 661.734C64.456 661.734 67.301 663.342 69.032 666.558 68.604 668.134 68.355 669.752 68.29 671.383L67.919 733.355Z"/>
</g>
<g clip-path="url(#clip_176)">
<path transform="matrix(.74514487,0,0,.7521263,58.194204,137.44567)" d="M75.655 65.178C75.933 65.383 76.21 65.588 76.487 65.794 80.526 68.788 84.456 71.925 88.272 75.198 88.538 75.954 88.783 76.718 89.006 77.488 89.754 80.079 90.128 82.408 90.128 84.475 90.133 84.845 90.09 85.215 90.001 85.575 89.768 86.472 89.212 87.046 88.334 87.297 87.951 87.4 87.556 87.45 87.159 87.444 87.125 87.444 87.091 87.443 87.056 87.44 85.653 87.335 83.779 85.111 81.433 80.766 80.842 79.665 80.277 78.551 79.737 77.425 70.51 80.205 61.463 83.551 52.647 87.444 52.116 87.679 51.59 87.927 51.07 88.186 50.6 88.42 50.135 88.668 49.678 88.928 48.589 88.619 47.535 88.197 46.533 87.669 43.68 86.241 41.678 83.539 41.143 80.393L41.885 79.651C42.206 79.812 42.532 79.965 42.861 80.109 43.509 80.39 44.067 80.581 44.533 80.681 44.76 80.733 44.992 80.76 45.225 80.764 45.281 80.764 45.336 80.763 45.391 80.762 45.869 80.751 46.441 80.694 47.107 80.589 47.471 80.531 47.833 80.466 48.194 80.393 53.219 64.102 58.277 38.08 59.698 29.637 60.004 27.82 60.238 26.171 60.782 24.411 60.632 24.11 60.482 23.808 60.333 23.506 59.684 22.183 59.256 21.247 59.048 20.699 59.001 20.578 58.961 20.454 58.927003 20.329L59.669 19.587C60.581 19.753 61.481 19.975 62.364 20.254 66.045 21.433 68.239 23.437 68.946 26.267 63.936 45.27 57.891 64.261 52.276 80.022 56.519 79.121 60.756 78.193 64.986 77.239 69.538 76.212 74.084 75.161 78.624 74.085 78.33 73.517 78.041 72.946 77.757 72.372 76.868 70.573 76.158 68.988 75.627 67.619 75.361 66.939 75.123 66.249 74.913 65.55L75.655 65.178Z"/>
</g>
<g clip-path="url(#clip_177)">
<path transform="matrix(.7541928,0,0,.7459024,13.933476,4.117793)" d="M215.656 210.574C219.491 210.814 221.203 212.169 222.069 215.139V239.259C222.069 239.349 222.068 239.439 222.065 239.529 222.042 240.299 221.917 240.899 221.688 241.339 221.422 241.909 220.839 242.259 220.213 242.229 219.108 242.229 218.395 241.014 216.8 238.074 216.398 237.324 216.016 236.574 215.656 235.804 215.69 235.564 215.723 235.334 215.755 235.094 216.21 231.704 216.512 227.614 216.661 222.844 216.736 220.364 216.772 217.884 216.769 215.394 216.576 215.094 216.389 214.794 216.209 214.484 215.447 213.184 215.015 212.124 214.914 211.314L215.656 210.574ZM230.129 193.504C231.31 193.494 232.49 193.574 233.657 193.754 237.231 194.324 238.607 194.629 239.608 197.109 239.591 197.619 239.559 198.139 239.512 198.649 239.401 199.879 239.185 201.109 238.866 202.309V250.919C238.866 254.749 239.113 259.699 239.608 265.759 239.483 266.589 239.338 267.409 239.173 268.229 238.544 271.329 237.76 273.429 236.822 274.519 236.429 275.049 235.817 275.379 235.155 275.409 235.122 275.409 235.089 275.409 235.056 275.399 234.315 275.279 234.146 275.014 232.726 272.174 231.079 270.314 229.296 268.574 227.392 266.974 225.314 265.234 223.13 263.624 220.851 262.154L221.594 261.414C222.222 261.574 222.852 261.724 223.484 261.864 225.456 262.324 227.147 262.624 228.558 262.774 229.203 262.854 229.851 262.894 230.5 262.894 231.114 262.914 231.701 262.644 232.086 262.164 232.723 261.394 233.06 260.034 233.097 258.074 233.096 248.884 233.065 239.704 233.005 230.514 232.939 220.524 232.846 210.534 232.726 200.554 232.703 200.334 232.664 200.124 232.609 199.914 232.36 198.974 231.781 198.074 230.871 197.214 230.708 197.044 230.552 196.874 230.405 196.704 229.726 195.884 229.387 195.064 229.387 194.244L230.129 193.504Z"/>
</g>
<g clip-path="url(#clip_178)">
<path transform="matrix(.74514487,0,0,.7521263,165.48076,137.44567)" d="M75.655 65.178C75.933 65.383 76.21 65.588 76.487 65.794 80.526 68.788 84.456 71.925 88.272 75.198 88.538 75.954 88.783 76.718 89.006 77.488 89.754 80.079 90.128 82.408 90.128 84.475 90.133 84.845 90.09 85.215 90.001 85.575 89.768 86.472 89.212 87.046 88.334 87.297 87.951 87.4 87.556 87.45 87.159 87.444 87.125 87.444 87.091 87.443 87.056 87.44 85.653 87.335 83.779 85.111 81.433 80.766 80.842 79.665 80.277 78.551 79.737 77.425 70.51 80.205 61.463 83.551 52.647 87.444 52.116 87.679 51.59 87.927 51.07 88.186 50.6 88.42 50.135 88.668 49.678 88.928 48.589 88.619 47.535 88.197 46.533 87.669 43.68 86.241 41.678 83.539 41.143 80.393L41.885 79.651C42.206 79.812 42.532 79.965 42.861 80.109 43.509 80.39 44.067 80.581 44.533 80.681 44.76 80.733 44.992 80.76 45.225 80.764 45.281 80.764 45.336 80.763 45.391 80.762 45.869 80.751 46.441 80.694 47.107 80.589 47.471 80.531 47.833 80.466 48.194 80.393 53.219 64.102 58.277 38.08 59.698 29.637 60.004 27.82 60.238 26.171 60.782 24.411 60.632 24.11 60.482 23.808 60.333 23.506 59.684 22.183 59.256 21.247 59.048 20.699 59.001 20.578 58.961 20.454 58.927003 20.329L59.669 19.587C60.581 19.753 61.481 19.975 62.364 20.254 66.045 21.433 68.239 23.437 68.946 26.267 63.936 45.27 57.891 64.261 52.276 80.022 56.519 79.121 60.756 78.193 64.986 77.239 69.538 76.212 74.084 75.161 78.624 74.085 78.33 73.517 78.041 72.946 77.757 72.372 76.868 70.573 76.158 68.988 75.627 67.619 75.361 66.939 75.123 66.249 74.913 65.55L75.655 65.178Z"/>
</g>
<g clip-path="url(#clip_179)">
<path transform="matrix(.7541928,0,0,.7459024,107.80922,4.117793)" d="M215.656 210.574C219.491 210.814 221.203 212.169 222.069 215.139V239.259C222.069 239.349 222.068 239.439 222.065 239.529 222.042 240.299 221.917 240.899 221.688 241.339 221.422 241.909 220.839 242.259 220.213 242.229 219.108 242.229 218.395 241.014 216.8 238.074 216.398 237.324 216.016 236.574 215.656 235.804 215.69 235.564 215.723 235.334 215.755 235.094 216.21 231.704 216.512 227.614 216.661 222.844 216.736 220.364 216.772 217.884 216.769 215.394 216.576 215.094 216.389 214.794 216.209 214.484 215.447 213.184 215.015 212.124 214.914 211.314L215.656 210.574ZM230.129 193.504C231.31 193.494 232.49 193.574 233.657 193.754 237.231 194.324 238.607 194.629 239.608 197.109 239.591 197.619 239.559 198.139 239.512 198.649 239.401 199.879 239.185 201.109 238.866 202.309V250.919C238.866 254.749 239.113 259.699 239.608 265.759 239.483 266.589 239.338 267.409 239.173 268.229 238.544 271.329 237.76 273.429 236.822 274.519 236.429 275.049 235.817 275.379 235.155 275.409 235.122 275.409 235.089 275.409 235.056 275.399 234.315 275.279 234.146 275.014 232.726 272.174 231.079 270.314 229.296 268.574 227.392 266.974 225.314 265.234 223.13 263.624 220.851 262.154L221.594 261.414C222.222 261.574 222.852 261.724 223.484 261.864 225.456 262.324 227.147 262.624 228.558 262.774 229.203 262.854 229.851 262.894 230.5 262.894 231.114 262.914 231.701 262.644 232.086 262.164 232.723 261.394 233.06 260.034 233.097 258.074 233.096 248.884 233.065 239.704 233.005 230.514 232.939 220.524 232.846 210.534 232.726 200.554 232.703 200.334 232.664 200.124 232.609 199.914 232.36 198.974 231.781 198.074 230.871 197.214 230.708 197.044 230.552 196.874 230.405 196.704 229.726 195.884 229.387 195.064 229.387 194.244L230.129 193.504Z"/>
</g>
<g clip-path="url(#clip_180)">
<path transform="matrix(.74116596,0,0,.75288817,221.9095,-98.226039)" d="M106.307 324.674C106.385 324.683 106.463 324.692 106.54 324.702 107.698 324.849 108.738 325.096 109.659 325.444 111.924 326.203 113.704 327.977 114.471 330.24 114.18 330.702 113.877 331.157 113.56 331.603 112.668 332.868 111.488 334.385 110.018 336.155 109.286 337.036 108.544 337.91 107.792 338.776 113.873 337.241 119.934 335.632 125.975 333.951 126.212 333.869 126.439 333.76 126.651 333.626 127.43 333.146 128.318 332.265 129.315 330.983 130.14 331.079 130.963 331.197 131.781 331.337 134.125 331.745 135.695 332.263 136.492 332.892 136.854 333.127 137.082 333.52 137.108 333.951 137.108 334.941 136.242 335.683 134.51 336.178 126.686 337.765 118.892 339.497 111.132 341.373L105.565 341.002C104.537 342.033 103.481 343.036 102.397 344.01 100.317 345.872 98.405 347.343 96.659 348.424L95.917 348.053C97.325 345.955 98.703 343.837 100.051 341.701 101.321 339.685 102.483 337.77 103.537 335.958 104.635 334.08 105.682 332.173 106.678 330.24 106.709 330.163 106.738 330.086 106.765 330.008 106.952 329.487 107.048 328.938 107.05 328.385 106.868 328.124 106.693 327.857 106.526 327.586 106.116 326.915 105.837 326.326 105.689 325.82 105.612 325.569 105.57 325.308 105.565 325.045L106.307 324.674Z"/>
</g>
<g clip-path="url(#clip_181)">
<path transform="matrix(.7451194,0,0,.7404321,263.9794,82.077777)" d="M69.453 144.379C69.731 144.584 70.008 144.789 70.285 144.995 74.324 147.989 78.254 151.126 82.07 154.399 82.336 155.155 82.581 155.919 82.804 156.689 83.552 159.28 83.926 161.609 83.926 163.676 83.931 164.046 83.888 164.416 83.799 164.776 83.566 165.673 83.01 166.247 82.132 166.498 81.749 166.601 81.354 166.651 80.957 166.645 80.923 166.645 80.889 166.644 80.854 166.641 79.451 166.536 77.577 164.312 75.231 159.967 74.64 158.866 74.075 157.752 73.535 156.626 64.308 159.406 55.261 162.752 46.445 166.645 45.914 166.88 45.388 167.128 44.868 167.387 44.398 167.621 43.933 167.869 43.476 168.129 42.387 167.82 41.333 167.398 40.331 166.87 37.478 165.442 35.476 162.74 34.941 159.594L35.683 158.852C36.004 159.013 36.33 159.166 36.659 159.31 37.307 159.591 37.865 159.782 38.331 159.882 38.558 159.934 38.79 159.961 39.023 159.965 39.079 159.965 39.134 159.964 39.189 159.963 39.667 159.952 40.239 159.895 40.905 159.79 41.269 159.732 41.631 159.667 41.992 159.594 48.95 144.422 53.794 133.176 56.524 125.855 57.177 124.132 57.776 122.389 58.32 120.629 58.17 120.328 58.02 120.026 57.871 119.724 57.222 118.401 56.794 117.465 56.586 116.917 56.539 116.796 56.499 116.672 56.465 116.547L57.207 115.805C58.119 115.971 59.019 116.193 59.902 116.472 63.583 117.651 65.777 119.655 66.484 122.485 60.124 134.972 53.317 147.226 46.074 159.223 50.317 158.322 54.554 157.394 58.784 156.44 63.336 155.413 67.882 154.362 72.422 153.286 72.128 152.718 71.839 152.147 71.555 151.573 70.666 149.774 69.956 148.189 69.425 146.82 69.159 146.14 68.921 145.45 68.711 144.751L69.453 144.379Z"/>
</g>
<g clip-path="url(#clip_182)">
<path transform="matrix(.7541928,0,0,.7459024,203.17505,4.117793)" d="M215.656 210.574C219.491 210.814 221.203 212.169 222.069 215.139V239.259C222.069 239.349 222.068 239.439 222.065 239.529 222.042 240.299 221.917 240.899 221.688 241.339 221.422 241.909 220.839 242.259 220.213 242.229 219.108 242.229 218.395 241.014 216.8 238.074 216.398 237.324 216.016 236.574 215.656 235.804 215.69 235.564 215.723 235.334 215.755 235.094 216.21 231.704 216.512 227.614 216.661 222.844 216.736 220.364 216.772 217.884 216.769 215.394 216.576 215.094 216.389 214.794 216.209 214.484 215.447 213.184 215.015 212.124 214.914 211.314L215.656 210.574ZM230.129 193.504C231.31 193.494 232.49 193.574 233.657 193.754 237.231 194.324 238.607 194.629 239.608 197.109 239.591 197.619 239.559 198.139 239.512 198.649 239.401 199.879 239.185 201.109 238.866 202.309V250.919C238.866 254.749 239.113 259.699 239.608 265.759 239.483 266.589 239.338 267.409 239.173 268.229 238.544 271.329 237.76 273.429 236.822 274.519 236.429 275.049 235.817 275.379 235.155 275.409 235.122 275.409 235.089 275.409 235.056 275.399 234.315 275.279 234.146 275.014 232.726 272.174 231.079 270.314 229.296 268.574 227.392 266.974 225.314 265.234 223.13 263.624 220.851 262.154L221.594 261.414C222.222 261.574 222.852 261.724 223.484 261.864 225.456 262.324 227.147 262.624 228.558 262.774 229.203 262.854 229.851 262.894 230.5 262.894 231.114 262.914 231.701 262.644 232.086 262.164 232.723 261.394 233.06 260.034 233.097 258.074 233.096 248.884 233.065 239.704 233.005 230.514 232.939 220.524 232.846 210.534 232.726 200.554 232.703 200.334 232.664 200.124 232.609 199.914 232.36 198.974 231.781 198.074 230.871 197.214 230.708 197.044 230.552 196.874 230.405 196.704 229.726 195.884 229.387 195.064 229.387 194.244L230.129 193.504Z"/>
</g>
<g clip-path="url(#clip_183)">
<path transform="matrix(.74157139,0,0,.7406988,357.1261,11.28895)" d="M68.834 204.107C72.485 205.964 76.198 207.696 79.966 209.302 79.98 209.33 79.995 209.358 80.009 209.385 81.74 212.758 82.79 215.145 83.158 216.547 83.245 216.846 83.294 217.155 83.306 217.466 83.307 217.71 83.293 217.954 83.263 218.196 83.104 219.442 82.5 220.064 81.451 220.064 81.187 220.06 80.926 220.01 80.679 219.917 79.267 219.413 77.421 217.606 75.142 214.498 65.989 216.724 57.454 219.074 49.537 221.548 48.167 222.462 47.067 223.038 46.236 223.277 45.983 223.355 45.72 223.398 45.455 223.404 44.712 223.404 43.599 221.301 42.115 217.095 42.126 217.089 42.136 217.082 42.147 217.075 44.912 215.291 46.633 213.813 47.31 212.642 47.527 212.255 47.741 211.867 47.952 211.477 51.194 205.459 53.838 199.138 55.845 192.603 56.046 191.347 56.166 190.459 56.203 189.937 56.211 189.836 56.215 189.735 56.216 189.634 55.783 188.336 55.536 187.099 55.474 185.923L56.216 185.181C57.152 185.614 58.046 186.134 58.884 186.735 61.143 188.291 62.713 190.659 63.267 193.345 59.309 201.015 55.227 208.437 51.021 215.611 51.46 215.545 51.9 215.478 52.339 215.41 58.567 214.456 65.55 213.286 73.287 211.9 72.301 210.52 71.385 209.21 70.539 207.969 69.834 206.938 69.142 205.898 68.463 204.849L68.834 204.107Z"/>
</g>
<g clip-path="url(#clip_184)">
<path transform="matrix(.74883928,0,0,.7435559,146.28586,-874.9617)" d="M321.021 1428.03C321.512 1428.05 322.003 1428.09 322.492 1428.14 323.504 1428.26 324.502 1428.47 325.474 1428.78 326.613 1428.65 327.751 1428.52 328.889 1428.38 336.601 1427.44 344.257 1426.09 351.822 1424.32 352.303 1424.15 352.786 1423.98 353.269 1423.81 355.275 1423.11 356.626 1422.69 357.324 1422.53 357.466 1422.5 357.612 1422.47 357.759 1422.47 363.944 1425.25 367.037 1427.1 367.037 1428.03 367.033 1428.26 366.982 1428.48 366.889 1428.69 366.638 1429.27 366.069 1429.92 365.181 1430.63 364.914 1431.38 364.644 1432.14 364.369 1432.89 362.655 1437.57 360.575 1442.76 358.13 1448.44 357.834 1449.28 357.15 1449.91 356.297 1450.15 355.927 1450.25 355.545 1450.3 355.162 1450.3 355.143 1450.3 355.125 1450.3 355.107 1450.3 354.536 1450.28 353.823 1449.9 352.969 1449.17 352.701 1448.94 352.442 1448.69 352.193 1448.44 345.884 1449.06 339.575 1449.93 333.267 1451.04 333.142 1451.71 332.878 1452.15 332.474 1452.36 332.26 1452.48 332.023 1452.53 331.783 1452.53 331.508 1452.53 331.233 1452.51 330.961 1452.47 329.881 1452.33 329.003 1451.9 328.326 1451.17 327.898 1450.7 327.561 1450.15 327.33 1449.56 326.309 1446.5 325.01 1442.46 323.433 1437.45 322.873 1435.67 322.317 1433.89 321.763 1432.11 321.602 1431.81 321.445 1431.51 321.292 1431.2 320.616 1429.85 320.279 1428.91 320.279 1428.4L321.021 1428.03ZM332.525 1447.7C336.013 1446.99 339.508 1446.31 343.008 1445.66 346.187 1445.07 349.373 1444.51 352.564 1443.99 352.941 1442.93 353.309 1441.87 353.667 1440.8 354.434 1438.51 355.11 1436.34 355.695 1434.28 356.18 1432.58 356.62 1430.87 357.017 1429.15 357.02 1428.91 356.993 1428.68 356.938 1428.46 356.735 1427.68 356.143 1427.29 355.162 1427.29 345.76 1428.78 336.607 1430.26 327.701 1431.74L332.525 1447.7Z"/>
</g>
<g clip-path="url(#clip_185)">
<path transform="matrix(.7240251,0,0,.7459024,319.9252,4.117793)" d="M215.656 210.574C219.491 210.814 221.203 212.169 222.069 215.139V239.259C222.069 239.349 222.068 239.439 222.065 239.529 222.042 240.299 221.917 240.899 221.688 241.339 221.422 241.909 220.839 242.259 220.213 242.229 219.108 242.229 218.395 241.014 216.8 238.074 216.398 237.324 216.016 236.574 215.656 235.804 215.69 235.564 215.723 235.334 215.755 235.094 216.21 231.704 216.512 227.614 216.661 222.844 216.736 220.364 216.772 217.884 216.769 215.394 216.576 215.094 216.389 214.794 216.209 214.484 215.447 213.184 215.015 212.124 214.914 211.314L215.656 210.574ZM230.129 193.504C231.31 193.494 232.49 193.574 233.657 193.754 237.231 194.324 238.607 194.629 239.608 197.109 239.591 197.619 239.559 198.139 239.512 198.649 239.401 199.879 239.185 201.109 238.866 202.309V250.919C238.866 254.749 239.113 259.699 239.608 265.759 239.483 266.589 239.338 267.409 239.173 268.229 238.544 271.329 237.76 273.429 236.822 274.519 236.429 275.049 235.817 275.379 235.155 275.409 235.122 275.409 235.089 275.409 235.056 275.399 234.315 275.279 234.146 275.014 232.726 272.174 231.079 270.314 229.296 268.574 227.392 266.974 225.314 265.234 223.13 263.624 220.851 262.154L221.594 261.414C222.222 261.574 222.852 261.724 223.484 261.864 225.456 262.324 227.147 262.624 228.558 262.774 229.203 262.854 229.851 262.894 230.5 262.894 231.114 262.914 231.701 262.644 232.086 262.164 232.723 261.394 233.06 260.034 233.097 258.074 233.096 248.884 233.065 239.704 233.005 230.514 232.939 220.524 232.846 210.534 232.726 200.554 232.703 200.334 232.664 200.124 232.609 199.914 232.36 198.974 231.781 198.074 230.871 197.214 230.708 197.044 230.552 196.874 230.405 196.704 229.726 195.884 229.387 195.064 229.387 194.244L230.129 193.504Z"/>
</g>
<g clip-path="url(#clip_186)">
<path transform="matrix(.74116596,0,0,.75288817,426.79704,-98.226039)" d="M106.307 324.674C106.385 324.683 106.463 324.692 106.54 324.702 107.698 324.849 108.738 325.096 109.659 325.444 111.924 326.203 113.704 327.977 114.471 330.24 114.18 330.702 113.877 331.157 113.56 331.603 112.668 332.868 111.488 334.385 110.018 336.155 109.286 337.036 108.544 337.91 107.792 338.776 113.873 337.241 119.934 335.632 125.975 333.951 126.212 333.869 126.439 333.76 126.651 333.626 127.43 333.146 128.318 332.265 129.315 330.983 130.14 331.079 130.963 331.197 131.781 331.337 134.125 331.745 135.695 332.263 136.492 332.892 136.854 333.127 137.082 333.52 137.108 333.951 137.108 334.941 136.242 335.683 134.51 336.178 126.686 337.765 118.892 339.497 111.132 341.373L105.565 341.002C104.537 342.033 103.481 343.036 102.397 344.01 100.317 345.872 98.405 347.343 96.659 348.424L95.917 348.053C97.325 345.955 98.703 343.837 100.051 341.701 101.321 339.685 102.483 337.77 103.537 335.958 104.635 334.08 105.682 332.173 106.678 330.24 106.709 330.163 106.738 330.086 106.765 330.008 106.952 329.487 107.048 328.938 107.05 328.385 106.868 328.124 106.693 327.857 106.526 327.586 106.116 326.915 105.837 326.326 105.689 325.82 105.612 325.569 105.57 325.308 105.565 325.045L106.307 324.674Z"/>
</g>
<g clip-path="url(#clip_187)">
<path transform="matrix(.74716117,0,0,.7436542,465.7619,-21.27889)" d="M69.666 257.313C69.836 257.382 70.006 257.452 70.175 257.523 75.283 259.629 80.203 262.165 84.881 265.106 86.397 268.42 87.332 270.938 87.686 272.658 87.786 273.102 87.841 273.556 87.85 274.012 87.85 274.089 87.848 274.167 87.845 274.245 87.795 275.616 87.294 276.472 86.342 276.813 85.991 276.931 85.623 276.987 85.252 276.981 85.2 276.981 85.149 276.977 85.097 276.971 83.927 276.821 82.047 275.028 79.457 271.592 78.773 270.68 78.107 269.755 77.459 268.817 63.481 272.775 62.878 273.88 49.395 277.591L47.91 278.333C45.094 278.242 42.745 276.95 40.863 274.458 40.131 273.469 39.508 272.404 39.004 271.282L39.746 270.54C40.213 270.654 40.682 270.761 41.152 270.861 42.042 271.049 42.791 271.174 43.399 271.236 43.665 271.264 43.932 271.28 44.199 271.282L45.018 271.396C50.607 265.303 55.465 258.578 59.491 251.357 59.677003 250.058 59.8 248.821 59.862 247.646L60.604 247.275C61.208 247.759 61.776 248.287 62.304 248.854 64.311 250.913 65.433 253.676 65.428 256.552L64.315 257.295C59.553 261.814 54.728 266.268 49.842 270.654 60.852 268.798 64.595 268.322 75.603 266.219 73.579 263.438 71.475 260.715 69.295 258.055L69.666 257.313Z"/>
</g>
<g clip-path="url(#clip_188)">
<path transform="matrix(.75270429,0,0,.7566868,256.72074,-928.8358)" d="M321.136 1481.31C321.439 1481.31 321.742 1481.32 322.044 1481.33 323.174 1481.39 324.107 1481.55 324.843 1481.82 325.246 1481.96 325.623 1482.16 325.96 1482.42 327.497 1482.23 329.031 1482.02 330.563 1481.8 338.525 1480.65 346.407 1479 354.163 1476.86 354.741 1477.09 355.315 1477.34 355.883 1477.59 358.606 1478.82 360.414 1480.01 361.305 1481.15 361.701 1481.61 361.93 1482.19 361.956 1482.8 361.956 1483.31 361.672 1483.86 361.104 1484.45 360.905 1484.65 360.694 1484.84 360.472 1485.02 358.493 1488.73 356.39 1492.69 354.164 1496.9L354.163 1498.75C354.164 1498.86 354.145 1498.96 354.105 1499.06 353.931 1499.48 353.368 1499.74 352.416 1499.83 352.133 1499.85 351.85 1499.87 351.566 1499.87 350.365 1499.79 349.163 1499.73 347.96 1499.67 346.813 1499.62 345.719 1499.58 344.68 1499.55 343.512 1499.51 342.344 1499.49 341.175 1499.49 338.172 1499.5 335.181 1499.87 332.269 1500.61 332.233 1500.7 332.196 1500.79 332.156 1500.88 331.913 1501.41 331.643 1501.82 331.346 1502.08 331.095 1502.32 330.762 1502.46 330.414 1502.46 328.935 1502.46 327.692 1501.36 326.685 1499.16 326.406 1498.55 326.164 1497.91 325.96 1497.27 325.369 1495.36 324.758 1493.27 324.127 1491 323.609 1489.13 323.107 1487.27 322.621 1485.39 322.401 1485.15 322.192 1484.9 321.996 1484.64 321.729 1484.29 321.461 1483.9 321.194 1483.47 320.91 1483.01 320.644 1482.53 320.394 1482.05L321.136 1481.31ZM350.824 1482.05C346.961 1482.66 343.095 1483.24 339.227 1483.82 335.55 1484.36 331.87 1484.88 328.187 1485.39 329.236 1489.53 330.475 1493.62 331.898 1497.64 337.341 1496.28 342.907 1495.16 348.597 1494.3 348.888 1493.35 349.178 1492.4 349.467 1491.45 350.303 1488.69 351.127 1485.93 351.937 1483.17L350.824 1482.05Z"/>
</g>
<g clip-path="url(#clip_189)">
<path transform="matrix(.7634206,0,0,.7476776,-159.04688,-588.2726)" d="M297.158 1153.85C297.579 1153.85 298 1153.87 298.419 1153.89 299.118 1153.96 299.812 1154.07 300.498 1154.21 301.677 1153.94 302.851 1153.66 304.021 1153.37 306.459 1152.74 308.873 1152.04 311.26 1151.24 311.627 1151.08 311.995 1150.9 312.365 1150.74 313.449 1150.27 314.27 1149.96 314.829 1149.84 314.997 1149.8 315.169 1149.77 315.342 1149.77 320.29 1151.81 322.764 1153.41 322.764 1154.59 321.774 1156.38 321.279 1157.62 321.279 1158.3 321.277 1164.58 321.215 1170.86 321.094 1177.13 320.963 1183.96 320.777 1190.81 320.537 1197.63 320.17 1200.24 319.614 1201.99 318.869 1202.88 318.565 1203.31 318.085 1203.56 317.568 1203.58 316.713 1203.58 315.981 1202.59 315.371 1200.63 315.219 1200.13 315.086 1199.63 314.971 1199.12V1195.04C313.813 1195.55 312.662 1196.08 311.517 1196.63 309.131 1197.77 307.066 1198.84 305.322 1199.86 305.27 1199.88 305.217 1199.89 305.164 1199.9 304.79 1200.03 304.386 1200.11 303.952 1200.15 303.545 1200.2 303.135 1200.23 302.725 1200.22 302.686 1200.38 302.643 1200.55 302.598 1200.7 302.295 1201.78 301.949 1202.49 301.56 1202.88 301.383 1203.08 301.134 1203.19 300.869 1203.19 300.563 1203.19 300.263 1203.11 300.002 1202.94 299.118 1202.42 298.21 1201.13 297.279 1199.04 296.968 1198.34 296.68 1197.62 296.416 1196.88 296.796 1194.8 297.113 1192.67 297.365 1190.57 297.646 1188.22 297.824 1185.88 297.9 1183.54 298.026 1179.08 298.12 1174.84 298.182 1170.83 298.241 1167.14 298.271 1163.46 298.272 1159.79 298.272 1159.63 298.26 1159.47 298.237 1159.33 298.129 1158.58 297.77 1157.62 297.158 1156.44 296.664 1155.45 296.416 1154.7 296.416 1154.21L297.158 1153.85ZM314.229 1153.85C313.07 1154.15 311.909 1154.46 310.746 1154.78 307.188 1155.7 304.39 1156.38 302.354 1156.82 302.509 1156.95 302.649 1157.12 302.772 1157.29 303.236 1157.92 303.467 1158.76 303.467 1159.79L303.096 1167.58C304.854 1167.04 306.587 1166.41 308.291 1165.71 308.786 1165.47 309.157 1165.11 309.404 1164.61 312.126 1164.97 313.486 1165.71 313.486 1166.84 313.487 1166.91 313.474 1166.98 313.45 1167.07 313.32 1167.46 312.842 1167.81 312.016 1168.1 311.768 1168.17 311.516 1168.26 311.26 1168.32 308.539 1168.93 305.818 1169.67 303.096 1170.55L302.725 1180.57C304.209 1180.14 305.485 1179.77 306.552 1179.41 306.886 1179.31 307.218 1179.19 307.549 1179.08 307.59 1179.07 307.63 1179.05 307.67 1179.04 308.144 1178.84 308.722 1178.47 309.404 1177.96 311.154 1178.44 312.285 1178.95 312.797 1179.51 312.99 1179.67 313.104 1179.92 313.115 1180.19 313.115 1180.49 312.789 1180.8 312.135 1181.1 311.97 1181.17 311.802 1181.24 311.631 1181.31 308.353 1182.23 305.385 1182.97 302.725 1183.54L302.354 1196.88C302.832 1196.79 303.304 1196.64 303.769 1196.49 305.958 1195.8 309.692 1194.32 314.971 1192.07 315.026 1190.33 315.077 1188.58 315.124 1186.83 315.27 1181.47 315.342 1177.29 315.342 1174.26 315.342 1174.23 315.342 1174.21 315.342 1174.19 315.342 1170.95 315.272 1166.47 315.133 1160.76 315.083 1158.69 315.029 1156.64 314.971 1154.59L314.229 1153.85Z"/>
</g>
<g clip-path="url(#clip_190)">
<path transform="matrix(.747206,0,0,.74594506,-76.55901,96.67967)" d="M228.144 228.158C229.571 227.975 230.995 227.776 232.418 227.563 238.344 226.684 244.224 225.52 250.038 224.076 250.672 223.918 251.306 223.608 251.94 223.144 252.319 222.865 252.676 222.556 253.007 222.221 258.697 223.025 261.542 224.386 261.542 226.303 261.557 226.729 261.388 227.14 261.077 227.43 260.712 227.77 260.132 227.991 259.337 228.093 258.96 228.139 258.581 228.161 258.202 228.158 256.873 228.158 255.544 228.182 254.216 228.231 251.454 228.329 248.698 228.552 245.956 228.901 246.07 229.023 246.18 229.149 246.284 229.278 246.979 230.115 247.385 231.154 247.441 232.24 247.328 232.863 247.221 233.487 247.12 234.112 246.516 237.792 246.037 245.354 245.866 249.079 248.137 248.784 250.41 248.505 252.685 248.244 254.739 248.008 255.761 247.792 257.819 247.594 258.158 247.425 258.497 247.258 258.838 247.093 260.295 246.389 261.313 245.959 261.89 245.804 262.015 245.767 262.143 245.745 262.273 245.739 269.2 247.038 271.215 248.755 271.215 251.167 271.227 251.525 271.12 251.876 270.91 252.166 270.598 252.58 270.046 252.844 269.255 252.958 268.921 253.004 268.583 253.026 268.246 253.023 263.549 252.776 261.332 252.79 256.628 252.79 254.263 252.793 251.899 252.868 249.538 253.014 241.485 253.502 235.803 254.096 225.574 256.18 223.471 255.314 221.74 254.325 220.379 253.211L220.75 252.469C224.675 251.865 228.602 251.277 232.532 250.706 236.272 250.163 236.556 250.329 240.3 249.821L240.39 232.612C240.39 232.585 240.389 232.558 240.389 232.531 240.384 232.131 240.343 231.757 240.265 231.411 240.157 230.908 239.947 230.433 239.648 230.014 239.134 230.09 238.62 230.173 238.108 230.262 237.219 230.417 236.273 230.6 235.27 230.811 234.252 231.027 233.238 231.256 232.226 231.498 232.206 231.491 232.185 231.484 232.165 231.476 230.884 231.007 229.825 230.488 228.988 229.92 228.547 229.627 228.139 229.285 227.773 228.901L228.144 228.158Z"/>
</g>
<g clip-path="url(#clip_191)">
<path transform="matrix(.74883928,0,0,.7435559,-150.24228,-762.45986)" d="M321.021 1428.03C321.512 1428.05 322.003 1428.09 322.492 1428.14 323.504 1428.26 324.502 1428.47 325.474 1428.78 326.613 1428.65 327.751 1428.52 328.889 1428.38 336.601 1427.44 344.257 1426.09 351.822 1424.32 352.303 1424.15 352.786 1423.98 353.269 1423.81 355.275 1423.11 356.626 1422.69 357.324 1422.53 357.466 1422.5 357.612 1422.47 357.759 1422.47 363.944 1425.25 367.037 1427.1 367.037 1428.03 367.033 1428.26 366.982 1428.48 366.889 1428.69 366.638 1429.27 366.069 1429.92 365.181 1430.63 364.914 1431.38 364.644 1432.14 364.369 1432.89 362.655 1437.57 360.575 1442.76 358.13 1448.44 357.834 1449.28 357.15 1449.91 356.297 1450.15 355.927 1450.25 355.545 1450.3 355.162 1450.3 355.143 1450.3 355.125 1450.3 355.107 1450.3 354.536 1450.28 353.823 1449.9 352.969 1449.17 352.701 1448.94 352.442 1448.69 352.193 1448.44 345.884 1449.06 339.575 1449.93 333.267 1451.04 333.142 1451.71 332.878 1452.15 332.474 1452.36 332.26 1452.48 332.023 1452.53 331.783 1452.53 331.508 1452.53 331.233 1452.51 330.961 1452.47 329.881 1452.33 329.003 1451.9 328.326 1451.17 327.898 1450.7 327.561 1450.15 327.33 1449.56 326.309 1446.5 325.01 1442.46 323.433 1437.45 322.873 1435.67 322.317 1433.89 321.763 1432.11 321.602 1431.81 321.445 1431.51 321.292 1431.2 320.616 1429.85 320.279 1428.91 320.279 1428.4L321.021 1428.03ZM332.525 1447.7C336.013 1446.99 339.508 1446.31 343.008 1445.66 346.187 1445.07 349.373 1444.51 352.564 1443.99 352.941 1442.93 353.309 1441.87 353.667 1440.8 354.434 1438.51 355.11 1436.34 355.695 1434.28 356.18 1432.58 356.62 1430.87 357.017 1429.15 357.02 1428.91 356.993 1428.68 356.938 1428.46 356.735 1427.68 356.143 1427.29 355.162 1427.29 345.76 1428.78 336.607 1430.26 327.701 1431.74L332.525 1447.7Z"/>
</g>
<g clip-path="url(#clip_192)">
<path transform="matrix(.7634206,0,0,.7476776,-51.760328,-588.2726)" d="M297.158 1153.85C297.579 1153.85 298 1153.87 298.419 1153.89 299.118 1153.96 299.812 1154.07 300.498 1154.21 301.677 1153.94 302.851 1153.66 304.021 1153.37 306.459 1152.74 308.873 1152.04 311.26 1151.24 311.627 1151.08 311.995 1150.9 312.365 1150.74 313.449 1150.27 314.27 1149.96 314.829 1149.84 314.997 1149.8 315.169 1149.77 315.342 1149.77 320.29 1151.81 322.764 1153.41 322.764 1154.59 321.774 1156.38 321.279 1157.62 321.279 1158.3 321.277 1164.58 321.215 1170.86 321.094 1177.13 320.963 1183.96 320.777 1190.81 320.537 1197.63 320.17 1200.24 319.614 1201.99 318.869 1202.88 318.565 1203.31 318.085 1203.56 317.568 1203.58 316.713 1203.58 315.981 1202.59 315.371 1200.63 315.219 1200.13 315.086 1199.63 314.971 1199.12V1195.04C313.813 1195.55 312.662 1196.08 311.517 1196.63 309.131 1197.77 307.066 1198.84 305.322 1199.86 305.27 1199.88 305.217 1199.89 305.164 1199.9 304.79 1200.03 304.386 1200.11 303.952 1200.15 303.545 1200.2 303.135 1200.23 302.725 1200.22 302.686 1200.38 302.643 1200.55 302.598 1200.7 302.295 1201.78 301.949 1202.49 301.56 1202.88 301.383 1203.08 301.134 1203.19 300.869 1203.19 300.563 1203.19 300.263 1203.11 300.002 1202.94 299.118 1202.42 298.21 1201.13 297.279 1199.04 296.968 1198.34 296.68 1197.62 296.416 1196.88 296.796 1194.8 297.113 1192.67 297.365 1190.57 297.646 1188.22 297.824 1185.88 297.9 1183.54 298.026 1179.08 298.12 1174.84 298.182 1170.83 298.241 1167.14 298.271 1163.46 298.272 1159.79 298.272 1159.63 298.26 1159.47 298.237 1159.33 298.129 1158.58 297.77 1157.62 297.158 1156.44 296.664 1155.45 296.416 1154.7 296.416 1154.21L297.158 1153.85ZM314.229 1153.85C313.07 1154.15 311.909 1154.46 310.746 1154.78 307.188 1155.7 304.39 1156.38 302.354 1156.82 302.509 1156.95 302.649 1157.12 302.772 1157.29 303.236 1157.92 303.467 1158.76 303.467 1159.79L303.096 1167.58C304.854 1167.04 306.587 1166.41 308.291 1165.71 308.786 1165.47 309.157 1165.11 309.404 1164.61 312.126 1164.97 313.486 1165.71 313.486 1166.84 313.487 1166.91 313.474 1166.98 313.45 1167.07 313.32 1167.46 312.842 1167.81 312.016 1168.1 311.768 1168.17 311.516 1168.26 311.26 1168.32 308.539 1168.93 305.818 1169.67 303.096 1170.55L302.725 1180.57C304.209 1180.14 305.485 1179.77 306.552 1179.41 306.886 1179.31 307.218 1179.19 307.549 1179.08 307.59 1179.07 307.63 1179.05 307.67 1179.04 308.144 1178.84 308.722 1178.47 309.404 1177.96 311.154 1178.44 312.285 1178.95 312.797 1179.51 312.99 1179.67 313.104 1179.92 313.115 1180.19 313.115 1180.49 312.789 1180.8 312.135 1181.1 311.97 1181.17 311.802 1181.24 311.631 1181.31 308.353 1182.23 305.385 1182.97 302.725 1183.54L302.354 1196.88C302.832 1196.79 303.304 1196.64 303.769 1196.49 305.958 1195.8 309.692 1194.32 314.971 1192.07 315.026 1190.33 315.077 1188.58 315.124 1186.83 315.27 1181.47 315.342 1177.29 315.342 1174.26 315.342 1174.23 315.342 1174.21 315.342 1174.19 315.342 1170.95 315.272 1166.47 315.133 1160.76 315.083 1158.69 315.029 1156.64 314.971 1154.59L314.229 1153.85Z"/>
</g>
<g clip-path="url(#clip_193)">
<path transform="matrix(.74624356,0,0,.7428045,71.11108,102.82501)" d="M196.08 232.331C197.332 232.71 198.569 233.177 199.788 233.728 202.252 234.829 205.274 236.133 207.475 238.048 209.744 240.522 210.878 243.244 210.878 246.212 210.878 246.3 210.877 246.387 210.875 246.474 210.86 247.246 210.771 247.852 210.609 248.293 210.422 248.861 209.349 249.432 208.908 249.402 208.065 249.415 207.241 249.036 206.564 248.323 206.16 247.893 205.803 247.382 205.504 246.804 204.947 245.745 204.363 244.716 203.751 243.719 202.689 241.983 201.481 240.208 200.126 238.396 198.737 236.548 197.3 234.773 195.819 233.074L196.08 232.331ZM190.06 211.55C191.02 212.571 191.805 213.638 192.416 214.751 192.998 215.788 194.333 216.92 194.616 218.183L194.093 220.409C194.099 220.408 194.106 220.406 194.111 220.404 197.204 219.478 199.796 218.661 203.672 217.859 204.459 217.54 205.189 217.188 205.86 216.803 206.456 216.465 207.037 216.074 207.598 215.632 208.283 215.792 208.965 215.975 209.643 216.18 213.515 217.364 215.452 218.913 215.452 220.827 215.452 221.28 215.106 221.692 214.415 222.062 214.239 222.155 214.061 222.239 213.881 222.312 211.523 222.311 209.166 222.371 206.81 222.493 201.91 222.737 197.911 223.249 193.046 224.12 192.592 225.594 192.101 227.044 191.571 228.466 187.742 239.309 181.253 248.434 172.259 251.999L171.997 251.257C175.626 247.422 178.653 243.407 181.077 239.211 183.461 235.168 185.348 230.584 186.657 225.652 186.1 225.795 185.544 225.945 184.989 226.103 182.596 226.783 179.773 227.711 176.521 228.887 175.098 229.403 173.677 229.932 172.259 230.476 172.258 230.476 172.258 230.476 172.257 230.475 170.164 229.733 168.594 228.744 167.547 227.507L168.07 226.765C174.572 224.971 181.028 223.363 187.442 221.941 187.965 219.962 188.227 218.354 188.227 217.116 188.225 216.626 188.173 216.139 188.072 215.669 187.876 214.721 187.491 213.719 186.918 212.663L187.18 211.55 188.157 210.923C188.29 210.854 189.1 210.743 190.06 211.55Z"/>
</g>
<g clip-path="url(#clip_194)">
<path transform="matrix(.73831817,0,0,.74246957,135.96837,206.1838)" d="M90.573 118.885C91.242 118.985 91.9 119.141 92.542 119.352 93.289 119.596 94 119.938 94.655 120.37 95.726 120.187 96.793 119.986 97.856 119.767 100.912 119.143 100.932 119.354 103.901 118.401 104.597 118.014 105.245 117.676 105.844 117.386 106.183 117.222 106.525 117.066 106.87 116.917 107.7 117.152 108.524 117.41 109.339 117.689 111.719 118.512 113.301 119.334 114.085 120.157 114.429 120.471 114.636 120.906 114.663 121.37 114.661 121.487 114.64 121.604 114.6 121.714 114.443 122.181 113.993 122.795 113.249 123.555 112.986 123.824 112.715 124.085 112.437 124.339 110.705 135.595 109.839 136.13 109.839 141.944 109.823 142.938 110.182 143.902 110.844 144.642 111.2 145.037 111.612 145.378 112.065 145.655 112.526 145.926 113.017 146.14 113.529 146.293 114.068 146.458 114.664 146.581 115.318 146.66 115.963 146.735 116.635 146.939 117.261 146.768 119.086 146.271 117.211 146.828 119.499 146.086 120.417 145.78 120.849 144.703 121.458 143.716 121.728 143.272 121.955 142.803 122.136 142.315 122.571 141.107 123.044 138.729 123.554 135.18 123.709 134.096 123.855 133.011 123.991 131.925L125.104 132.296C125.596 136.542 126.339 140.755 127.331 144.913 127.638 145.229 127.934 145.556 128.217 145.893 128.921 146.732 129.407 147.493 129.677 148.178 129.835 148.555 129.921 148.958 129.929 149.366 129.929 149.807 129.779 150.234 129.504 150.578 128.95 151.299 127.855 151.884 126.218 152.335 125.91 152.413 125.598 152.477 125.284 152.528 123.666 152.801 121.158 152.972 117.76 153.041 116.498 153.066 114.601 152.582 111.323 151.593 110.28 151.266 109.374 150.856 108.605 150.362 107.259 149.541 106.25 148.266 105.757 146.768 105.235 145.072 104.897 142.856 104.742 140.121 104.675 138.875 104.642 137.626 104.644 136.378 104.645 134.914 104.813 134.754 104.933 131.897 105.057 129.005 105.208 126.114 105.386 123.225L104.644 122.483C101.799 122.916 101.335 122.291 98.489 123.095 98.705 123.238 98.698 123.674 98.826 123.898 98.926 124.072 99 124.259 99.046 124.454 98.806 130.831 99.188 128.698 97.698 132.942 96.985 135.056 96.399 136.74 95.14 138.582 93.765 140.514 92.163 142.375 90.456 144.021 86.959 147.395 84.816 148.233 81.863 149.11L81.492 148.368C83.077 146.48 86.066 145.133 87.477 143.112 90.056 139.405 89.287 140.83 90.785 137.225 92.791 132.578 92.376 133.966 92.429 128.905V124.823C92.431 124.519 92.411 124.215 92.371 123.914 92.272 123.19 92.044 122.627 91.687 122.225 91.68 122.217 91.673 122.209 91.665 122.201 90.967 121.412 90.518 120.747 90.32 120.208 90.248 120.023 90.208 119.827 90.202 119.628L90.573 118.885Z"/>
</g>
<g clip-path="url(#clip_195)">
<path transform="matrix(.7469585,0,0,.7443111,226.97402,-355.87583)" d="M64.166 854.737C64.722 854.737 65.217 854.861 65.65 855.108 70.027 854.043 74.36 852.805 78.639 851.397 79.837 848.344 80.769 845.556 81.436 843.033 81.812 841.632 82.117 840.212 82.35 838.78 82.35 838.66 82.344 838.539 82.331 838.419 82.272 837.899 82.078 837.56 81.749 837.401 81.588 837.328 81.412 837.292 81.236 837.296 80.048 837.609 78.865 837.941 77.688 838.293 73.991 839.404 70.346 840.681 66.764 842.12 66.285 842.025 65.809 841.916 65.337 841.792 64.607 841.599 63.937 841.381 63.327 841.137 62.716 840.898 62.128 840.606 61.568 840.265L61.939 839.522C61.99 839.508 62.041 839.493 62.093 839.479 68.586 837.636 74.349 835.672 79.381 833.585 79.683 833.383 79.988 833.186 80.296 832.993 81.278 832.382 82.038 831.992 82.576 831.825 82.742 831.768 82.916 831.736 83.092 831.729 89.276 833.708 92.369 835.564 92.369 837.296 92.369 837.359 92.363 837.422 92.351 837.484 92.229 838.133 91.493 838.937 90.143 839.894 88.34 844.723 86.233 849.433 83.834 853.995 83.668 854.308 83.482 854.609 83.278 854.898 83.002 855.285 82.711 855.605 82.407 855.86 81.878 856.327 81.199 856.588 80.494 856.593 79.814 856.593 79.195 856.222 78.639 855.479 76.377 855.897 74.292 856.393 72.383 856.967 70.978 857.385 69.598 857.879 68.248 858.448 68.324 858.639 68.396 858.832 68.464 859.026 68.632 859.51 68.76 859.974 68.848 860.418 68.939 860.869 68.987 861.328 68.99 861.788 68.988 862.034 68.975 862.279 68.952 862.524 68.839 863.765 68.474 865.661 67.858 868.212 67.626 869.165 67.385 870.117 67.135 871.065 70.693 870.271 74.17 869.153 77.525 867.726 78.885 866.736 79.875 866.241 80.494 866.241 81.299 866.45 82.094 866.7 82.874 866.989 84.372 867.554 85.479 868.195 86.195 868.912 86.802 869.465 87.156 870.244 87.174 871.065 87.174 871.622 86.803 872.117 86.061 872.55 85.784 873.72 85.497 874.887 85.202 876.052 83.222 883.927 80.782 891.679 77.896 899.269 77.741 899.578 77.585 899.887 77.427 900.194 74.819 905.267 72.872 907.804 71.588 907.804 70.934 907.804 70.077 906.906 69.016 905.109 68.748 904.653 68.492 904.191 68.248 903.722 68.19 903.615 68.13 903.509 68.068 903.405 67.238 902.019 65.598 900.196 63.147 897.937 62.265 897.127 61.367 896.334 60.455 895.558L60.826 894.815C64.846 895.805 67.567 896.3 68.99 896.3 68.997 896.3 69.005 896.3 69.013 896.3 70.362 896.291 71.344 895.549 71.959 894.073 73.187 891.104 74.307 888.092 75.318 885.042 76.719 880.805 77.95 876.514 79.01 872.179L78.268 871.437C77.607 871.641 76.95 871.854 76.296 872.077 72.64 873.333 69.082 874.855 65.65 876.632 65.042 877.204 64.455 877.611 63.889 877.852 63.508 878.021 63.098 878.111 62.682 878.116 62.4 878.101 62.139 877.962 61.97 877.736 61.366 877.053 60.861 875.448 60.455 872.921 60.455 872.24 61.073 870.756 62.311 868.468 63.453 866.1 64.219 864.001 64.608 862.172 64.798 861.315 64.899 860.44 64.908 859.562 64.908 859.509 64.905 859.455 64.901 859.402 64.853 858.825 64.553 857.996 64.002 856.916 63.817 856.557 63.625 856.202 63.424 855.851L64.166 854.737Z"/>
</g>
<g clip-path="url(#clip_196)">
<path transform="matrix(.73387596,0,0,.74754449,180.51111,-115.3981)" d="M179.276 530.796C179.64 530.734 180.003 530.67 180.367 530.604 186.173 529.555 189.397 528.506 190.038 527.456 195.975 528.075 198.944 529.436 198.944 531.538 198.944 532.899 197.831 533.641 195.604 533.765 189.79 534.074 183.976 534.569 178.163 535.249 176.508 535.442 174.856 535.66 173.208 535.903 167.844 536.693 161.703 537.835 154.784 539.331 154.443 539.271 154.105 539.2 153.769 539.118 152.14 538.734 150.597 538.051 149.217 537.104L150.702 536.362C153.404 535.791 156.11 535.234 158.819 534.692 161.677 534.121 164.537 533.565 167.401 533.022 167.4 530.94 167.381 528.858 167.342 526.776 167.234 521.185 167.006 515.596 166.659 510.014 166.635 509.897 166.61 509.78 166.583 509.663 166.338 508.613 165.992 507.864 165.545 507.417 165.075 507.115 164.728 506.657 164.564 506.123 164.473 505.821 164.428 505.506 164.432 505.19L165.916 504.448C168.116 504.599 170.221 505.401 171.964 506.751 173.041 507.584 174.002 508.557 174.823 509.643 174.823 510.088 174.759 510.66 174.631 511.36 174.577 511.655 174.517 511.949 174.452 512.241 174.378 512.978 174.312 513.715 174.256 514.452 174.139 515.994 174.081 517.36 174.081 518.55L181.502 516.323C181.634 516.185 181.768 516.048 181.904 515.913 182.601 515.223 183.175 514.78 183.625 514.584 183.774 514.514 183.935 514.475 184.1 514.468 187.233 515.077 189.264 515.809 190.193 516.663 190.544 516.943 190.758 517.359 190.78 517.807 190.786 518.414 190.485 518.983 189.98 519.318 189.553 519.63 188.953 519.869 188.182 520.034 185.983 520.474 183.657 520.978 181.204 521.545 178.699 522.126 176.2 522.736 173.709 523.374L173.338 531.909 179.276 530.796Z"/>
</g>
<g clip-path="url(#clip_197)">
<path transform="matrix(.7536998,0,0,.74246957,228.59062,206.1838)" d="M90.573 118.885C91.242 118.985 91.9 119.141 92.542 119.352 93.289 119.596 94 119.938 94.655 120.37 95.726 120.187 96.793 119.986 97.856 119.767 100.912 119.143 100.932 119.354 103.901 118.401 104.597 118.014 105.245 117.676 105.844 117.386 106.183 117.222 106.525 117.066 106.87 116.917 107.7 117.152 108.524 117.41 109.339 117.689 111.719 118.512 113.301 119.334 114.085 120.157 114.429 120.471 114.636 120.906 114.663 121.37 114.661 121.487 114.64 121.604 114.6 121.714 114.443 122.181 113.993 122.795 113.249 123.555 112.986 123.824 112.715 124.085 112.437 124.339 110.705 135.595 109.839 136.13 109.839 141.944 109.823 142.938 110.182 143.902 110.844 144.642 111.2 145.037 111.612 145.378 112.065 145.655 112.526 145.926 113.017 146.14 113.529 146.293 114.068 146.458 114.664 146.581 115.318 146.66 115.963 146.735 116.635 146.939 117.261 146.768 119.086 146.271 117.211 146.828 119.499 146.086 120.417 145.78 120.849 144.703 121.458 143.716 121.728 143.272 121.955 142.803 122.136 142.315 122.571 141.107 123.044 138.729 123.554 135.18 123.709 134.096 123.855 133.011 123.991 131.925L125.104 132.296C125.596 136.542 126.339 140.755 127.331 144.913 127.638 145.229 127.934 145.556 128.217 145.893 128.921 146.732 129.407 147.493 129.677 148.178 129.835 148.555 129.921 148.958 129.929 149.366 129.929 149.807 129.779 150.234 129.504 150.578 128.95 151.299 127.855 151.884 126.218 152.335 125.91 152.413 125.598 152.477 125.284 152.528 123.666 152.801 121.158 152.972 117.76 153.041 116.498 153.066 114.601 152.582 111.323 151.593 110.28 151.266 109.374 150.856 108.605 150.362 107.259 149.541 106.25 148.266 105.757 146.768 105.235 145.072 104.897 142.856 104.742 140.121 104.675 138.875 104.642 137.626 104.644 136.378 104.645 134.914 104.813 134.754 104.933 131.897 105.057 129.005 105.208 126.114 105.386 123.225L104.644 122.483C101.799 122.916 101.335 122.291 98.489 123.095 98.705 123.238 98.698 123.674 98.826 123.898 98.926 124.072 99 124.259 99.046 124.454 98.806 130.831 99.188 128.698 97.698 132.942 96.985 135.056 96.399 136.74 95.14 138.582 93.765 140.514 92.163 142.375 90.456 144.021 86.959 147.395 84.816 148.233 81.863 149.11L81.492 148.368C83.077 146.48 86.066 145.133 87.477 143.112 90.056 139.405 89.287 140.83 90.785 137.225 92.791 132.578 92.376 133.966 92.429 128.905V124.823C92.431 124.519 92.411 124.215 92.371 123.914 92.272 123.19 92.044 122.627 91.687 122.225 91.68 122.217 91.673 122.209 91.665 122.201 90.967 121.412 90.518 120.747 90.32 120.208 90.248 120.023 90.208 119.827 90.202 119.628L90.573 118.885Z"/>
</g>
<g clip-path="url(#clip_198)">
<path transform="matrix(.75304606,0,0,.7497218,143.97869,-454.75025)" d="M308.507 965.558C311.012 966.562 312.904 967.817 314.184 969.321 315.044 970.289 316.275 972.238 316.593 973.658 316.593 973.77 316.586 973.883 316.57 973.994 316.5 974.616 316.213 975.37 315.733 976.256 315.43 977.179 315.128 978.099 314.818 979.015 313.903 981.715 313.432 983.788 312.494 986.136 311.586 988.431 310.703 991.612 309.741 993.849 309.982 994.124 310.222 994.4 310.463 994.677 313.184 997.813 313.819 998.884 314.819 1000.29 315.029 1000.58 315.23 1000.87 315.417 1001.18 315.804 1001.91 316.176 1002.65 316.533 1003.4 317.409 1005.27 317.999 1006.9 318.317 1008.31 318.48 1009.01 318.573 1009.73 318.58 1010.46 318.58 1012.44 318.007 1013.43 316.859 1013.43 316.727 1013.43 316.603 1013.42 316.479 1013.4 315.572 1013.25 314.354 1012.746 313.478 1011.526 313.121 1011.016 312.795 1010.476 312.501 1009.906 312.082 1009.086 311.64 1008.286 311.19 1007.496 310.415 1006.116 309.66 1004.924 308.706 1003.444 307.729 1001.934 307.389 1001.593 306.365 1000.149 304.318 1004.513 301.844 1009.688 299.285 1013.568 295.958 1018.648 292.997 1021.277 287.501 1024.19L286.927 1023.45C289.719 1019.47 292.293 1015.25 294.643 1010.83 297.535 1005.36 300.007 999.944 302.326 994.043 301.325 992.739 300.325 991.44 299.317 990.147 297.223 987.461 295.527 984.871 293.945 982.942 293.239 982.086 292.533 981.239 291.82 980.402L292.394 979.66C295.465 981.392 299.59 984.484 304.77 988.937 305.631 986.513 306.46 983.892 307.251 981.074 308.027 978.282 308.74 975.459 309.376 972.609 309.376 972.313 309.368 972.017 309.36 971.721 309.329 970.583 309.236 969.89 309.081 969.64 308.787 969.144 308.546 968.649 308.36 968.153 308.135 967.571 307.996 966.944 307.934 966.3L308.507 965.558Z"/>
</g>
<g clip-path="url(#clip_199)">
<path transform="matrix(.7395208,0,0,.744497,348.45997,99.167537)" d="M59.544 237.747C60.886 237.466 62.224 237.162 63.556 236.833 66.072 236.21 68.132 235.587 69.738 234.963 70.44 234.697 71.125 234.387 71.79 234.036 72.049 233.87 72.308 233.702 72.566 233.532 72.812 233.37 73.046 233.214 73.269 233.064 73.519 232.896 73.769 232.725 74.017 232.551 77.727 233.046 79.583 233.788 79.583 234.778 79.583 235.381 78.929 235.902 77.623 236.342 77.291 236.453 76.954 236.55 76.615 236.633 72.718 237.499 68.636 238.613 64.368 239.973 63.828 239.946 63.291 239.871 62.765 239.75 62.211 239.627 61.621 239.454 60.996 239.232 60.378 239.011 59.769 238.763 59.173 238.489L59.544 237.747ZM56.976 224.731C59.504 224.214 62.024 223.653 64.534 223.05 71.139 221.474 77.658 219.558 84.066 217.31 84.204 217.37 84.342 217.43 84.481 217.49 88.373 219.197 90.799 220.637 91.759 221.81 92.033 222.101 92.2 222.478 92.23 222.876 92.226 222.959 92.201 223.038 92.158 223.108 91.988 223.413 91.517 223.83 90.746 224.36L83.48 247.916C83.649 248.028 83.808 248.156 83.954 248.297 84.363 248.678 84.595 249.212 84.594 249.771 84.596 249.937 84.546 250.099 84.452 250.234 84.303 250.45 84.036 250.621 83.651 250.748 83.473 250.806 83.292 250.851 83.109 250.884 76.058 251.627 69.131 253.112 62.328 255.338 60.472 255.276 58.741 254.658 57.133 253.482L57.504 252.74C64.678 251.256 71.482 249.648 77.914 247.916L82.582 223.618C82.584 223.433 82.563 223.248 82.519 223.068 82.402 222.62 82.124 222.333 81.685 222.207 81.493 222.156 81.295 222.131 81.097 222.134 74.912 223.557 68.604 225.165 62.172 226.958 61.632 226.931 61.095 226.856 60.569 226.735 60.014 226.612 59.424 226.439 58.799 226.217 58.181 225.996 57.572 225.748 56.976 225.474V224.731Z"/>
</g>
<g clip-path="url(#clip_200)">
<path transform="matrix(.74925699,0,0,.7418621,82.04165,117.62112)" d="M408.637 268.578C415.248 262.094 418.478 251.703 420.218 241.859L420.292 240.736C420.201 240.486 420.119 240.231 420.045 239.971 419.954 239.654 419.886 239.352 419.838 239.064 419.785 238.76 419.758 238.45 419.755 238.138L420.292 237.396C424.044 238.447 425.847 239.447 425.847 242.602L425.578 243.344C427.176 245.605 428.831 247.786 430.541 249.884 433.203 253.161 436.021 256.183 438.98 258.93 440.719 260.516 442.536 261.934 444.418 263.172 446.739 264.697 449.13 266.007 451.578 267.094V267.836C451.304 267.905 451.03 267.973 450.757 268.039 446.778 269.009 442.752 269.561 438.712 269.691 433.38 261.694 428.284 255.928 423.915 248.074 420.28 257.218 416.199 266.133 408.88 270.623 408.203 271.038 407.458 271.363 407.213 271.431 406.402 271.657 405.719 271.497 405.869 271.312 406.633 270.373 407.038 270.146 408.637 268.578Z"/>
</g>
<g clip-path="url(#clip_201)">
<path transform="matrix(.72951337,0,0,.7497218,260.99754,-454.75025)" d="M308.507 965.558C311.012 966.562 312.904 967.817 314.184 969.321 315.044 970.289 316.275 972.238 316.593 973.658 316.593 973.77 316.586 973.883 316.57 973.994 316.5 974.616 316.213 975.37 315.733 976.256 315.43 977.179 315.128 978.099 314.818 979.015 313.903 981.715 313.432 983.788 312.494 986.136 311.586 988.431 310.703 991.612 309.741 993.849 309.982 994.124 310.222 994.4 310.463 994.677 313.184 997.813 313.819 998.884 314.819 1000.29 315.029 1000.58 315.23 1000.87 315.417 1001.18 315.804 1001.91 316.176 1002.65 316.533 1003.4 317.409 1005.27 317.999 1006.9 318.317 1008.31 318.48 1009.01 318.573 1009.73 318.58 1010.46 318.58 1012.44 318.007 1013.43 316.859 1013.43 316.727 1013.43 316.603 1013.42 316.479 1013.4 315.572 1013.25 314.354 1012.746 313.478 1011.526 313.121 1011.016 312.795 1010.476 312.501 1009.906 312.082 1009.086 311.64 1008.286 311.19 1007.496 310.415 1006.116 309.66 1004.924 308.706 1003.444 307.729 1001.934 307.389 1001.593 306.365 1000.149 304.318 1004.513 301.844 1009.688 299.285 1013.568 295.958 1018.648 292.997 1021.277 287.501 1024.19L286.927 1023.45C289.719 1019.47 292.293 1015.25 294.643 1010.83 297.535 1005.36 300.007 999.944 302.326 994.043 301.325 992.739 300.325 991.44 299.317 990.147 297.223 987.461 295.527 984.871 293.945 982.942 293.239 982.086 292.533 981.239 291.82 980.402L292.394 979.66C295.465 981.392 299.59 984.484 304.77 988.937 305.631 986.513 306.46 983.892 307.251 981.074 308.027 978.282 308.74 975.459 309.376 972.609 309.376 972.313 309.368 972.017 309.36 971.721 309.329 970.583 309.236 969.89 309.081 969.64 308.787 969.144 308.546 968.649 308.36 968.153 308.135 967.571 307.996 966.944 307.934 966.3L308.507 965.558Z"/>
</g>
<g clip-path="url(#clip_202)">
<path transform="matrix(.7395208,0,0,.744497,457.98164,99.167537)" d="M59.544 237.747C60.886 237.466 62.224 237.162 63.556 236.833 66.072 236.21 68.132 235.587 69.738 234.963 70.44 234.697 71.125 234.387 71.79 234.036 72.049 233.87 72.308 233.702 72.566 233.532 72.812 233.37 73.046 233.214 73.269 233.064 73.519 232.896 73.769 232.725 74.017 232.551 77.727 233.046 79.583 233.788 79.583 234.778 79.583 235.381 78.929 235.902 77.623 236.342 77.291 236.453 76.954 236.55 76.615 236.633 72.718 237.499 68.636 238.613 64.368 239.973 63.828 239.946 63.291 239.871 62.765 239.75 62.211 239.627 61.621 239.454 60.996 239.232 60.378 239.011 59.769 238.763 59.173 238.489L59.544 237.747ZM56.976 224.731C59.504 224.214 62.024 223.653 64.534 223.05 71.139 221.474 77.658 219.558 84.066 217.31 84.204 217.37 84.342 217.43 84.481 217.49 88.373 219.197 90.799 220.637 91.759 221.81 92.033 222.101 92.2 222.478 92.23 222.876 92.226 222.959 92.201 223.038 92.158 223.108 91.988 223.413 91.517 223.83 90.746 224.36L83.48 247.916C83.649 248.028 83.808 248.156 83.954 248.297 84.363 248.678 84.595 249.212 84.594 249.771 84.596 249.937 84.546 250.099 84.452 250.234 84.303 250.45 84.036 250.621 83.651 250.748 83.473 250.806 83.292 250.851 83.109 250.884 76.058 251.627 69.131 253.112 62.328 255.338 60.472 255.276 58.741 254.658 57.133 253.482L57.504 252.74C64.678 251.256 71.482 249.648 77.914 247.916L82.582 223.618C82.584 223.433 82.563 223.248 82.519 223.068 82.402 222.62 82.124 222.333 81.685 222.207 81.493 222.156 81.295 222.131 81.097 222.134 74.912 223.557 68.604 225.165 62.172 226.958 61.632 226.931 61.095 226.856 60.569 226.735 60.014 226.612 59.424 226.439 58.799 226.217 58.181 225.996 57.572 225.748 56.976 225.474V224.731Z"/>
</g>
<g clip-path="url(#clip_203)">
<path transform="matrix(.7400224,0,0,.75890097,286.61903,106.73102)" d="M280.818 253.44C283.066 253.034 285.316 252.632 287.567 252.234 294.588 250.993 311.879 249.082 316.2 248.403 317.225 248.17 318.185 247.712 319.012 247.062 319.62 246.585 320.171 246.039 320.653 245.434 321.421 245.535 322.188 245.652 322.952 245.785 326.724 246.442 329.288 247.341 330.644 248.481 331.334 248.984 331.755 249.776 331.786 250.63 331.779 250.881 331.654 251.114 331.45 251.259 330.858 251.739 329.485 252.024 327.333 252.114 327.097 252.121 326.862 252.129 326.627 252.138 319.341 252.392 312.433 252.879 305.902 253.598 299.519 254.284 299.337 253.866 293.049 255.158 294.1 256.271 294.842 257.508 295.275 258.869 294.981 260.778 294.775 264.906 294.656 267.252 294.571 268.957 294.53 270.665 294.533 272.373 294.531 272.682 294.558 272.991 294.616 273.295 294.852 274.507 295.594 275.263 296.844 275.564 297.303 275.668 297.773 275.718 298.244 275.713 303.885 275.736 306.862 275.162 312.301 273.662 312.814 273.523 313.313 273.337 313.792 273.105 315.15 272.451 316.509 271.4 317.868 269.951 325.042 270.631 328.629 272.116 328.629 274.404 328.622 274.904 328.391 275.376 328.001 275.689 327.552 276.086 326.863 276.418 325.935 276.685 325.477 276.813 325.014 276.919 324.547 277.002 318.198 278.13 312.292 278.937 306.828 279.423 302.972 279.776 301.744 279.783 297.873 279.795 297.852 279.795 297.832 279.795 297.812 279.795 291.915 279.776 288.967 277.055 288.967 271.631V258.498C288.967 257.632 288.843 256.766 288.596 255.9 286.122 256.456 287.497 256.099 285.271 256.78 284.732 256.624 284.202 256.437 283.686 256.219 282.499 255.727 281.404 255.038 280.447 254.182L280.818 253.44Z"/>
</g>
</svg>
